<svg id="Слой_1" data-name="Слой 1" xmlns="http://www.w3.org/2000/svg" viewBox="0 0 81.87 62.78"><defs><style>.cls-1{fill:#fc4c02;}.cls-2{fill:none;stroke:#fc4c02;stroke-miterlimit:10;stroke-width:2px;}.cls-3{fill:#fc4c02;}</style></defs><path class="cls-1" d="M917,3453.15c-11.15,0-22.3,0-33.44,0a4.09,4.09,0,0,1-4.28-4.27q0.05-23.55,0-47.09c0-2.76,1.54-4.31,4.29-4.31h34.3v55.65H917Zm-0.41-54.3h-1c-10.64,0-21.28,0-31.92,0a2.78,2.78,0,0,0-3.06,3.08q0,20.19,0,40.38c0,2.21,0,4.42,0,6.62,0,2,1,2.94,2.93,2.94h33v-53Z" transform="translate(-879.26 -3397.51)"/><path class="cls-1" d="M932.95,3418.17a1.26,1.26,0,0,1,.36-0.47c0.67,0,.54-0.48.46-0.86a0.68,0.68,0,0,0-.9-0.54,4.31,4.31,0,0,1-.78,0l0.27-.84-1.14.28a1.85,1.85,0,0,1,.22-0.75c0.67-.14.62-0.61,0.58-1.09,1.32-.38,1.57-0.24,1.64.9a0.84,0.84,0,0,0,.61-1.3,0.79,0.79,0,0,1,.61-1.24,1.33,1.33,0,0,0,.5-0.42l1.49,0.8c-0.1.72-.6,1.62,0.43,2.24a2,2,0,0,1,.3-1,4.4,4.4,0,0,1,1.38-.19l-0.15.23a8.86,8.86,0,0,1,.73.89,4.1,4.1,0,0,1,.29.87l-1.35-.33a3.36,3.36,0,0,1,.32.44,4.31,4.31,0,0,1,.15.47,1.2,1.2,0,0,1-.55.1c-0.63-.24-1.08-0.1-1.17.59a1.29,1.29,0,0,0,.39.71,3.29,3.29,0,0,0,.52.44,10.32,10.32,0,0,0,4.39-5,7.76,7.76,0,0,1,1.26,5.23c0,0.62-.54,1.22-0.12,1.88a0.43,0.43,0,0,1-.16.33c-1.08.8-1.38,2-1.84,3.2-0.24.61-.73,1.18-0.4,1.93a0.74,0.74,0,0,1-.28.52c-0.3.28-.64,0.52-1.05,0.84a1.37,1.37,0,0,0-1.43-1.22,0.34,0.34,0,0,0,0,.15c0.74,1.35.53,1.8-1,2.23-0.58.16-1.16,0.36-1.74,0.55a0.6,0.6,0,0,1-.29.08c-0.88-.29-1.77-0.55-2.62-0.9s-0.93-.79-0.48-1.58c0.09-.15.16-0.31,0.27-0.54a1.31,1.31,0,0,0-1.51,1.25c-0.44-.34-0.83-0.62-1.18-0.94a0.73,0.73,0,0,1-.22-0.49,8.8,8.8,0,0,0-1.93-4.81c-0.25-.25-0.72-0.47-0.27-1a1,1,0,0,0-.09-0.6,7.53,7.53,0,0,1,1.08-6.09C929.34,3415.48,931.06,3416.88,932.95,3418.17Zm-4,3.41a0.94,0.94,0,0,0,0,.23l1.39,2.59a1.24,1.24,0,0,0,1.77.73c-1.42-1.18-1.4-1.16.12-2.33a7.3,7.3,0,0,0,1-1.19l-0.17-.14C931.78,3422.72,930.41,3422.35,928.94,3421.58Zm10,3.76a2.87,2.87,0,0,0,1.37-.45,35.06,35.06,0,0,0,1.81-3.19c-1.48.67-2.84,1-4.26-.07a3.72,3.72,0,0,0,.91,1.17C940.22,3423.93,940.24,3423.92,938.94,3425.33Zm-2.49-10.52h-1.9l1,2.14Z" transform="translate(-879.26 -3397.51)"/><path class="cls-1" d="M932.32,3443.32v2.55h-7.25v-2.55h7.25Z" transform="translate(-879.26 -3397.51)"/><path class="cls-1" d="M922.45,3404.41v-1.18h26.12v1.18H922.45Z" transform="translate(-879.26 -3397.51)"/><path class="cls-1" d="M925.71,3407.08v-1.26h20.23v1.26H925.71Z" transform="translate(-879.26 -3397.51)"/><path class="cls-1" d="M933,3451.85H917.87v-53h1c10.64,0,21.28,0,31.92,0a2.78,2.78,0,0,1,3.06,3.08q0,16,0,32a14.33,14.33,0,0,1,1.35,1q0-16.56,0-33.12c0-2.76-1.54-4.31-4.29-4.31h-34.3v55.65h17.07A14.26,14.26,0,0,1,933,3451.85Z" transform="translate(-879.26 -3397.51)"/><circle class="cls-2" cx="66.56" cy="47.47" r="14.31"/><path class="cls-3" d="M943.52,3448.21h0c0.79-1.18,1.54-2.36,2.34-3.5a49.2,49.2,0,0,1,6.31-7.3,0.39,0.39,0,0,1,.55,0,21.14,21.14,0,0,1,1.47,1.63,0.59,0.59,0,0,1,0,.82,45.71,45.71,0,0,0-3.9,4.26,42.33,42.33,0,0,0-6.29,10.28,16.06,16.06,0,0,0-5.45-6.38c-1.06-.74-1.37-1-0.48-2.19,1-1.34,1.18-1.14,2.2-.45A16.54,16.54,0,0,1,943.52,3448.21Z" transform="translate(-879.26 -3397.51)"/></svg>
