<svg id="Слой_1" data-name="Слой 1" xmlns="http://www.w3.org/2000/svg" viewBox="0 0 71.31 61.31"><defs><style>.cls-1{fill:#fc4c02;}</style></defs><path class="cls-1" d="M848.38,3541.35a3.33,3.33,0,0,1,4.46,1.1c0.94,1.19,2.07,2.24,3.26,3.52l15.78-15.79c2.43-2.43,3-2.44,5.43.06,1.06,1.08,2,2.26,3.33,3.72,3.48-3.52,6.6-6.7,9.75-9.86,2.6-2.61,3-2.62,5.59,0,1.08,1.08,2.06,2.25,2.93,3.2l11.36-11.37-2-3.32,11.39-2.55-2.56,10.72-4-1.86-4.83,4.8c-2.29,2.29-4.6,4.56-6.87,6.88-1.33,1.36-2.64,1.4-3.92,0s-2.49-2.83-4-4.59c-3.67,3.71-6.93,7-10.2,10.31-2.25,2.26-2.62,2.28-5-.06-1.2-1.21-2.26-2.55-3.48-4l-14.27,14.3c-4.33,4.33-4.32,4.32-8.78-.09-1.06-1.05-2.26-2-3.39-3v-2.16Z" transform="translate(-848.38 -3510.02)"/><polygon class="cls-1" points="3.29 42.41 3.29 61.31 7.8 61.31 7.8 45.62 3.29 42.41"/><polygon class="cls-1" points="13.25 39.47 7.8 45.62 7.8 61.31 13.25 61.31 13.25 39.47"/><polygon class="cls-1" points="17.28 38.31 17.28 61.31 26.76 61.31 26.76 28.4 17.28 38.31"/><polygon class="cls-1" points="32.21 35.8 26.76 28.4 26.76 61.31 32.21 61.31 32.21 35.8"/><polygon class="cls-1" points="36.24 34.01 36.24 61.31 45.72 61.31 45.72 24.11 36.24 34.01"/><polygon class="cls-1" points="55.84 28.64 55.95 61.31 64.44 61.31 64.32 18.38 55.84 28.64"/><polygon class="cls-1" points="52.17 31.5 45.72 24.11 45.72 61.31 52.17 61.31 52.17 31.5"/></svg>
