<svg id="Слой_1" data-name="Слой 1" xmlns="http://www.w3.org/2000/svg" viewBox="0 0 90.57 69.42"><defs><style>.cls-1{fill:#fc4c02;}.cls-2{fill:none;stroke:#fc4c02;stroke-miterlimit:10;stroke-width:2px;}</style></defs><path class="cls-1" d="M674.63,2466.31c0.14-.48.26-1,0.44-1.45a3.17,3.17,0,0,1,1.93-2c1.21-.43,2.46-0.8,3.64-1.31s2.26-1.16,3.43-1.77l3.06,9.6h0.11c0.36-1,.74-2.08,1.08-3.12a0.86,0.86,0,0,0-.16-0.48,15.2,15.2,0,0,1-.84-1.76,1.37,1.37,0,0,1,1.17-2,4.63,4.63,0,0,1,1.77.09,1.22,1.22,0,0,1,.93,1.6,8.11,8.11,0,0,1-.82,1.88,1.09,1.09,0,0,0-.11,1.09c0.35,0.87.63,1.76,1.07,2.65l3.06-9.65,0.48,0.28a22.52,22.52,0,0,0,6.12,2.7c1.77,0.46,2.47,1.77,2.76,3.43,0,0.16.08,0.31,0.11,0.46v1.75c-0.1.81-.18,1.62-0.32,2.42a1,1,0,0,1-.44.65,27.26,27.26,0,0,1-2.82,1.3,31.81,31.81,0,0,1-16.44,1.51,26.92,26.92,0,0,1-8.36-2.72,1,1,0,0,1-.59-0.88c-0.05-.61-0.15-1.22-0.23-1.83v-2.52Z" transform="translate(-644.26 -2408.44)"/><path class="cls-1" d="M690,2438.46c0.42,0.1.84,0.19,1.26,0.31a5.57,5.57,0,0,1,2.93,2,0.67,0.67,0,0,0,.27.24c1.39,0.46,1.8,1.59,2,2.87a11.5,11.5,0,0,1-.32,4.32,1,1,0,0,1,.84,1.26,5.76,5.76,0,0,1-1,3.19,9,9,0,0,0-1,2,6.76,6.76,0,0,1-4.71,4.27,5.38,5.38,0,0,1-5.33-1.93,7.39,7.39,0,0,1-1.8-3.39,1.61,1.61,0,0,0-.33-0.51,3.66,3.66,0,0,1-.38-0.46,7.4,7.4,0,0,1-.91-3.34,0.87,0.87,0,0,1,.8-1c-0.11-.71-0.27-1.4-0.33-2.1a7.77,7.77,0,0,1,6.69-7.63,0.2,0.2,0,0,0,.07-0.07H690Z" transform="translate(-644.26 -2408.44)"/><path class="cls-1" d="M658.84,2456a1.61,1.61,0,0,1,.33.51,7.39,7.39,0,0,0,1.8,3.39,5.38,5.38,0,0,0,5.33,1.93,6.76,6.76,0,0,0,4.71-4.27,9,9,0,0,1,1-2,5.76,5.76,0,0,0,1-3.19,1,1,0,0,0-.84-1.26,11.5,11.5,0,0,0,.32-4.32c-0.19-1.28-.61-2.41-2-2.87a0.67,0.67,0,0,1-.27-0.24,5.57,5.57,0,0,0-2.93-2c-0.41-.12-0.84-0.21-1.26-0.31h-1.2a0.2,0.2,0,0,1-.07.07,7.77,7.77,0,0,0-6.69,7.63c0.05,0.7.21,1.39,0.33,2.1a0.87,0.87,0,0,0-.8,1,7.4,7.4,0,0,0,.91,3.34A3.64,3.64,0,0,0,658.84,2456Z" transform="translate(-644.26 -2408.44)"/><path class="cls-1" d="M673.16,2472.82a1,1,0,0,1-.59-0.88c-0.05-.61-0.15-1.22-0.23-1.83v-2.52c0.14-.48.26-1,0.44-1.45a3.38,3.38,0,0,1,1-1.45,26.68,26.68,0,0,1-2.78-1.49l-0.48-.28-3.06,9.65c-0.44-.89-0.72-1.78-1.07-2.65a1.09,1.09,0,0,1,.11-1.09,8.11,8.11,0,0,0,.82-1.88,1.22,1.22,0,0,0-.93-1.6,4.63,4.63,0,0,0-1.77-.09,1.37,1.37,0,0,0-1.17,2,15.19,15.19,0,0,0,.84,1.76,0.86,0.86,0,0,1,.16.48c-0.34,1-.71,2.08-1.08,3.12h-0.11l-3.06-9.6c-1.17.61-2.27,1.27-3.43,1.77s-2.43.87-3.64,1.31a3.17,3.17,0,0,0-1.93,2c-0.18.47-.29,1-0.44,1.45V2472c0.08,0.61.18,1.21,0.23,1.83a1,1,0,0,0,.59.88,26.92,26.92,0,0,0,8.36,2.72,31.81,31.81,0,0,0,16.44-1.51,22.52,22.52,0,0,0,2.19-1A25.73,25.73,0,0,1,673.16,2472.82Z" transform="translate(-644.26 -2408.44)"/><path class="cls-1" d="M719.62,2456.24a1.61,1.61,0,0,0-.33.51,7.39,7.39,0,0,1-1.8,3.39,5.38,5.38,0,0,1-5.33,1.93,6.76,6.76,0,0,1-4.71-4.27,9,9,0,0,0-1-2,5.76,5.76,0,0,1-1-3.19,1,1,0,0,1,.84-1.26A11.5,11.5,0,0,1,706,2447c0.19-1.28.61-2.41,2-2.87a0.67,0.67,0,0,0,.27-0.24,5.57,5.57,0,0,1,2.93-2c0.41-.12.84-0.21,1.26-0.31h1.2a0.2,0.2,0,0,0,.07.07,7.77,7.77,0,0,1,6.69,7.63c-0.05.7-.21,1.39-0.33,2.1a0.87,0.87,0,0,1,.8,1,7.4,7.4,0,0,1-.91,3.34A3.64,3.64,0,0,1,719.62,2456.24Z" transform="translate(-644.26 -2408.44)"/><path class="cls-1" d="M705.92,2472.57a1,1,0,0,0,.59-0.88c0.05-.61.15-1.22,0.23-1.83v-2.52c-0.14-.48-0.26-1-0.44-1.45a3.38,3.38,0,0,0-1-1.45,26.68,26.68,0,0,0,2.78-1.49l0.48-.28,3.06,9.65c0.44-.89.72-1.78,1.07-2.65a1.09,1.09,0,0,0-.11-1.09,8.11,8.11,0,0,1-.82-1.88,1.22,1.22,0,0,1,.93-1.6,4.63,4.63,0,0,1,1.77-.09,1.37,1.37,0,0,1,1.17,2,15.19,15.19,0,0,1-.84,1.76,0.86,0.86,0,0,0-.16.48c0.34,1,.71,2.08,1.08,3.12h0.11l3.06-9.6c1.17,0.61,2.27,1.27,3.43,1.77s2.43,0.87,3.64,1.31a3.17,3.17,0,0,1,1.93,2c0.18,0.47.29,1,.44,1.45v2.52c-0.08.61-.18,1.21-0.23,1.83a1,1,0,0,1-.59.88,26.92,26.92,0,0,1-8.36,2.72,31.81,31.81,0,0,1-16.44-1.51,22.52,22.52,0,0,1-2.19-1A25.73,25.73,0,0,0,705.92,2472.57Z" transform="translate(-644.26 -2408.44)"/><path class="cls-2" d="M727.63,2458.17c4.93-2.06,6.83-7,6-12.64a11.32,11.32,0,0,0-5-8,33.94,33.94,0,0,0-6.69-3,1.26,1.26,0,0,1-1-1.36c-0.13-2.79.4-5.59-.21-8.39a18.43,18.43,0,0,0-7.45-11.59,18,18,0,0,0-15.89-3,17.42,17.42,0,0,0-8.64,5.19,51.11,51.11,0,0,0-4.58,7,1.28,1.28,0,0,1-1.59.77,38.69,38.69,0,0,0-6.66-.74,10.79,10.79,0,0,0-9.21,5.33c-1.32,2-2,4.47-3,6.71a1.31,1.31,0,0,1-.72.76,9.93,9.93,0,0,1-2.72,0,12,12,0,0,0-9.89,2.25c-4,3.1-5.84,7.21-4.94,12.16a12.41,12.41,0,0,0,6.58,9" transform="translate(-644.26 -2408.44)"/></svg>
