<svg id="Слой_1" data-name="Слой 1" xmlns="http://www.w3.org/2000/svg" viewBox="0 0 96.81 70.59"><defs><style>.cls-1,.cls-3{fill:#fc4c02;}.cls-2{fill:none;}.cls-2,.cls-3{stroke:#fc4c02;stroke-miterlimit:10;}.cls-3{stroke-width:2px;}</style></defs><path class="cls-1" d="M649,3688.49c0.06-.21.11-0.42,0.19-0.62A1.36,1.36,0,0,1,650,3687c0.52-.19,1.05-0.34,1.56-0.56s1-.5,1.46-0.76l1.31,4.1h0c0.16-.44.32-0.89,0.46-1.33a0.37,0.37,0,0,0-.07-0.21,6.49,6.49,0,0,1-.36-0.75,0.58,0.58,0,0,1,.5-0.84,2,2,0,0,1,.76,0,0.52,0.52,0,0,1,.4.68,3.46,3.46,0,0,1-.35.8,0.47,0.47,0,0,0,0,.47c0.15,0.37.27,0.75,0.46,1.13l1.31-4.12,0.2,0.12a9.62,9.62,0,0,0,2.61,1.15,1.6,1.6,0,0,1,1.18,1.46c0,0.07,0,.13,0,0.2v0.75c0,0.34-.08.69-0.14,1a0.43,0.43,0,0,1-.19.28,11.64,11.64,0,0,1-1.2.56,13.59,13.59,0,0,1-7,.64,11.5,11.5,0,0,1-3.57-1.16,0.43,0.43,0,0,1-.25-0.38c0-.26-0.07-0.52-0.1-0.78v-1.07Z" transform="translate(-638.36 -3627.54)"/><path class="cls-1" d="M655.5,3676.66l0.54,0.13a2.38,2.38,0,0,1,1.25.85,0.29,0.29,0,0,0,.12.1,1.32,1.32,0,0,1,.85,1.23,4.91,4.91,0,0,1-.14,1.85,0.43,0.43,0,0,1,.36.54,2.46,2.46,0,0,1-.42,1.36,3.86,3.86,0,0,0-.42.85,2.89,2.89,0,0,1-2,1.83,2.3,2.3,0,0,1-2.28-.82,3.16,3.16,0,0,1-.77-1.45,0.69,0.69,0,0,0-.14-0.22,1.56,1.56,0,0,1-.16-0.2,3.16,3.16,0,0,1-.39-1.43,0.37,0.37,0,0,1,.34-0.44c0-.3-0.12-0.6-0.14-0.9a3.32,3.32,0,0,1,2.86-3.26,0.09,0.09,0,0,0,0,0h0.51Z" transform="translate(-638.36 -3627.54)"/><path class="cls-2" d="M12.81,45.3H38.19a4.93,4.93,0,0,1,4.93,4.93V65.16a4.93,4.93,0,0,1-4.93,4.93H12.81A5.41,5.41,0,0,1,7.4,64.68v-14A5.41,5.41,0,0,1,12.81,45.3Z"/><line class="cls-2" x1="28.5" y1="50.94" x2="37.83" y2="50.94"/><line class="cls-2" x1="26.35" y1="54.64" x2="39.98" y2="54.64"/><line class="cls-2" x1="26.35" y1="58.52" x2="39.98" y2="58.52"/><line class="cls-2" x1="26.35" y1="62.11" x2="39.98" y2="62.28"/><path class="cls-1" d="M640.79,3668.17c-0.2.23-.45,0.51-0.68,0.81a8.56,8.56,0,0,0-1.32,2.5,8.41,8.41,0,0,0-.43,2.57,0.74,0.74,0,0,0,.28.63,0.71,0.71,0,0,0,.79.08,0.74,0.74,0,0,0,.41-0.7c0-.31,0-0.61.06-0.92a6.57,6.57,0,0,1,1.57-3.51,7.38,7.38,0,0,1,1.75-1.52,6.76,6.76,0,0,1,3.56-1,0.74,0.74,0,0,0,.77-0.74,0.73,0.73,0,0,0-.77-0.74A8.65,8.65,0,0,0,640.79,3668.17Zm1.57,1.62c-0.15.19-.38,0.45-0.57,0.73a5.66,5.66,0,0,0-1,3.29,0.74,0.74,0,1,0,1.47,0,4.14,4.14,0,0,1,2.1-3.69,4,4,0,0,1,2.21-.59,0.74,0.74,0,1,0,0-1.47A6,6,0,0,0,642.37,3669.79Zm1.66,1.6c-0.11.14-.27,0.33-0.41,0.54a3.93,3.93,0,0,0-.65,2,0.73,0.73,0,0,0,1.12.66,0.76,0.76,0,0,0,.35-0.66,2.26,2.26,0,0,1,1.15-1.89,2.34,2.34,0,0,1,1.12-.3,0.73,0.73,0,0,0,.69-0.77,0.73,0.73,0,0,0-.76-0.7A4,4,0,0,0,644,3671.39Z" transform="translate(-638.36 -3627.54)"/><path class="cls-1" d="M640.79,3668.17a8.65,8.65,0,0,1,6-2.51,0.73,0.73,0,0,1,.77.74,0.74,0.74,0,0,1-.77.74,6.76,6.76,0,0,0-3.56,1,7.38,7.38,0,0,0-1.75,1.52,6.57,6.57,0,0,0-1.57,3.51c0,0.3-.05.61-0.06,0.92a0.74,0.74,0,0,1-.41.7,0.71,0.71,0,0,1-.79-0.08,0.74,0.74,0,0,1-.28-0.63,8.41,8.41,0,0,1,.43-2.57,8.56,8.56,0,0,1,1.32-2.5C640.34,3668.68,640.6,3668.41,640.79,3668.17Z" transform="translate(-638.36 -3627.54)"/><path class="cls-1" d="M642.37,3669.79a6,6,0,0,1,4.18-1.75,0.74,0.74,0,1,1,0,1.47,4,4,0,0,0-2.21.59,4.14,4.14,0,0,0-2.1,3.69,0.74,0.74,0,1,1-1.47,0,5.66,5.66,0,0,1,1-3.29C642,3670.24,642.22,3670,642.37,3669.79Z" transform="translate(-638.36 -3627.54)"/><path class="cls-1" d="M644,3671.39a4,4,0,0,1,2.61-1.13,0.73,0.73,0,0,1,.76.7,0.73,0.73,0,0,1-.69.77,2.34,2.34,0,0,0-1.12.3,2.26,2.26,0,0,0-1.15,1.89,0.76,0.76,0,0,1-.35.66,0.73,0.73,0,0,1-1.12-.66,3.93,3.93,0,0,1,.65-2C643.75,3671.72,643.91,3671.53,644,3671.39Z" transform="translate(-638.36 -3627.54)"/><path class="cls-1" d="M679.83,3646.94a1.38,1.38,0,0,0-1.38,1.38V3653a1.38,1.38,0,0,0,1.38,1.38h23.78A1.38,1.38,0,0,0,705,3653v-4.69a1.38,1.38,0,0,0-1.38-1.38H679.83Zm22.67,3.27a0.85,0.85,0,1,1,.85-0.85,0.85,0.85,0,0,1-.85.85h0Zm-20.42.46h6v2h-6v-2Z" transform="translate(-638.36 -3627.54)"/><path class="cls-1" d="M679.83,3655.14a1.38,1.38,0,0,0-1.38,1.38v4.69a1.38,1.38,0,0,0,1.38,1.38h23.78a1.38,1.38,0,0,0,1.38-1.38v-4.69a1.38,1.38,0,0,0-1.38-1.38H679.83Zm22.67,3.27a0.85,0.85,0,1,1,.85-0.85,0.85,0.85,0,0,1-.85.85h0Zm-20.42.45h6v2h-6v-2Z" transform="translate(-638.36 -3627.54)"/><path class="cls-2" d="M709.5,3650.77a5.69,5.69,0,0,0,2.8-5.9,5.28,5.28,0,0,0-2.33-3.75,15.83,15.83,0,0,0-3.12-1.4,0.59,0.59,0,0,1-.47-0.63,23.27,23.27,0,0,0-.1-3.91,8.6,8.6,0,0,0-3.47-5.41,8.41,8.41,0,0,0-7.41-1.4,8.12,8.12,0,0,0-4,2.42,23.85,23.85,0,0,0-2.14,3.25,0.6,0.6,0,0,1-.74.36,18.05,18.05,0,0,0-3.11-.35,5,5,0,0,0-4.3,2.49,22.2,22.2,0,0,0-1.4,3.13,0.61,0.61,0,0,1-.34.35,4.63,4.63,0,0,1-1.27,0,5.89,5.89,0,0,0-6.92,6.73,5.79,5.79,0,0,0,3.07,4.18" transform="translate(-638.36 -3627.54)"/><path class="cls-2" d="M712.62,3675.65a12.85,12.85,0,0,0-5,8.11" transform="translate(-638.36 -3627.54)"/><path class="cls-2" d="M733,3684.19a12.84,12.84,0,0,0-5.09-8.54" transform="translate(-638.36 -3627.54)"/><path class="cls-2" d="M714,3696a12.79,12.79,0,0,0,11.73.37" transform="translate(-638.36 -3627.54)"/><circle class="cls-1" cx="70.98" cy="63.18" r="4.74"/><circle class="cls-1" cx="81.53" cy="47.55" r="4.74"/><circle class="cls-1" cx="92.07" cy="63.18" r="4.74"/><line class="cls-3" x1="47.72" y1="64.26" x2="62.06" y2="64.26"/><line class="cls-3" x1="25.92" y1="39.29" x2="32.94" y2="26.79"/><line class="cls-3" x1="81.78" y1="39.29" x2="74.75" y2="26.79"/></svg>
