<svg id="Слой_1" data-name="Слой 1" xmlns="http://www.w3.org/2000/svg" viewBox="0 0 55.97 69.84"><defs><style>.cls-1{fill:#fc4c02;}.cls-2{fill:#fc4c02;}</style></defs><path class="cls-1" d="M794.32,2500.32v-5.81a1.44,1.44,0,0,0-1.5-1.83,8.42,8.42,0,0,1-7.21-7.77V2472s0.11-7.63,9-7.84l30.32,0.18s6.91,0.23,7.45,8v11.54s0.3,8.13-7.93,8.81l-20.08,0a2.08,2.08,0,0,0-1,.21Z" transform="translate(-776.39 -2448.07)"/><path class="cls-1" d="M810.3,2492.85v16a0.66,0.66,0,0,1-.67.64h-30a0.66,0.66,0,0,1-.67-0.64v-51.79a0.66,0.66,0,0,1,.67-0.64h30a0.66,0.66,0,0,1,.67.64v7.45h2.54c0-4.73,0-7.46,0-12.19,0-.13,0-0.26,0-0.39a3.91,3.91,0,0,0-4.23-3.88H780.54a4.76,4.76,0,0,0-.95.07,3.83,3.83,0,0,0-3.21,3.93q0,15.42,0,30.85t0,31a3.88,3.88,0,0,0,4,4q14.24,0,28.48,0a3.66,3.66,0,0,0,3.41-1.9,5.16,5.16,0,0,0,.57-2.34q0-10.4,0-20.8H810.3Zm-15.64,24a2.44,2.44,0,1,1-.07-4.86A2.43,2.43,0,1,1,794.66,2516.89Z" transform="translate(-776.39 -2448.07)"/><path class="cls-2" d="M800.79,2472.64h2.87l0.07,1c2.37-1.91,4.63-1.59,6.08.27a4.17,4.17,0,0,1,4.18-1.43,3.29,3.29,0,0,1,2.67,3.35c0.15,2.41,0,4.84,0,7.34h-3.3c0-1.82,0-3.65,0-5.48a6.9,6.9,0,0,0-.19-1.31,1.19,1.19,0,0,0-1.5-1.09,1.39,1.39,0,0,0-1.2,1.5c0,1.87,0,3.75,0,5.63,0,0.23,0,.45,0,0.75H807c0-1.71,0-3.44,0-5.18,0-.32,0-0.65,0-1a1.77,1.77,0,0,0-1.27-1.88,2,2,0,0,0-1.64,1.92c0,1.71,0,3.43,0,5.14,0,0.31,0,.63,0,1h-3.3v-10.59Z" transform="translate(-776.39 -2448.07)"/><path class="cls-2" d="M791.41,2480.49c1.27,0.17,2.35.35,3.44,0.43a0.88,0.88,0,0,0,.65-0.55,1.22,1.22,0,0,0-.53-0.85c-0.8-.44-1.67-0.73-2.48-1.16a2.64,2.64,0,0,1-1.39-2.8,3.2,3.2,0,0,1,2-2.7,6.17,6.17,0,0,1,4.74-.06,1,1,0,0,1,.54.77,10,10,0,0,1-.45,1.71c-0.94-.13-1.83-0.29-2.72-0.34a1,1,0,0,0-.71.57,0.94,0.94,0,0,0,.45.65c0.69,0.38,1.44.66,2.15,1a3.21,3.21,0,0,1,1.91,3,3.27,3.27,0,0,1-2.58,3,9.09,9.09,0,0,1-4.91-.17c-0.55-.18-0.81-0.39-0.55-1A10.07,10.07,0,0,0,791.41,2480.49Z" transform="translate(-776.39 -2448.07)"/><path class="cls-2" d="M819.1,2480.47c1.22,0.17,2.32.37,3.43,0.45a1.85,1.85,0,0,0,.76-0.59,2.92,2.92,0,0,0-.64-0.74c-0.6-.34-1.26-0.58-1.88-0.89a2.92,2.92,0,0,1-1.93-3.36,3.7,3.7,0,0,1,2.5-2.72,7.76,7.76,0,0,1,4.32.15c0.48,0.15.63,0.31,0.45,0.81s-0.34,1.25-.45,1.67a25.47,25.47,0,0,0-2.63-.3,2.17,2.17,0,0,0-.88.56,2.61,2.61,0,0,0,.61.76c0.88,0.48,1.84.82,2.7,1.32,1.33,0.78,1.3,2.14,1.08,3.39a2.72,2.72,0,0,1-2.26,2.21,21.5,21.5,0,0,1-4.74,0,0.87,0.87,0,0,1-.75-1.43A4.65,4.65,0,0,0,819.1,2480.47Z" transform="translate(-776.39 -2448.07)"/></svg>
