<svg id="Слой_1" data-name="Слой 1" xmlns="http://www.w3.org/2000/svg" viewBox="0 0 49.07 70.27"><defs><style>.cls-1{fill:#fc4c02;}.cls-2,.cls-3,.cls-4{fill:none;stroke-miterlimit:10;}.cls-2,.cls-3{stroke:#fc4c02;}.cls-3,.cls-4{stroke-width:2px;}.cls-4{stroke:#fc4c02;}</style></defs><path class="cls-1" d="M790.13,3627.79c0.14-.48.26-1,0.44-1.44a3.16,3.16,0,0,1,1.92-2c1.21-.43,2.45-0.79,3.63-1.3s2.25-1.16,3.41-1.77l3,9.56h0.11c0.36-1,.74-2.07,1.07-3.11a0.86,0.86,0,0,0-.16-0.48,15.14,15.14,0,0,1-.84-1.76,1.36,1.36,0,0,1,1.17-2,4.62,4.62,0,0,1,1.76.09,1.21,1.21,0,0,1,.92,1.59,8.08,8.08,0,0,1-.82,1.88,1.09,1.09,0,0,0-.11,1.09c0.34,0.87.63,1.75,1.06,2.64l3.05-9.61,0.47,0.28a22.43,22.43,0,0,0,6.09,2.69c1.76,0.46,2.46,1.77,2.74,3.41,0,0.16.08,0.31,0.11,0.46v1.74c-0.1.8-.18,1.61-0.32,2.4a1,1,0,0,1-.44.64,27.14,27.14,0,0,1-2.81,1.3,31.68,31.68,0,0,1-16.37,1.5,26.8,26.8,0,0,1-8.33-2.71,1,1,0,0,1-.59-0.88c-0.05-.61-0.15-1.21-0.23-1.82v-2.51Z" transform="translate(-780.14 -3594.05)"/><path class="cls-1" d="M805.38,3600.21c0.42,0.1.84,0.18,1.25,0.31a5.55,5.55,0,0,1,2.92,2,0.67,0.67,0,0,0,.27.24c1.38,0.46,1.8,1.58,2,2.86a11.45,11.45,0,0,1-.32,4.31,1,1,0,0,1,.83,1.25,5.74,5.74,0,0,1-1,3.18,9,9,0,0,0-1,2,6.73,6.73,0,0,1-4.69,4.26,5.35,5.35,0,0,1-5.31-1.92,7.36,7.36,0,0,1-1.8-3.37,1.6,1.6,0,0,0-.33-0.51,3.64,3.64,0,0,1-.38-0.46,7.37,7.37,0,0,1-.9-3.32,0.86,0.86,0,0,1,.8-1c-0.11-.71-0.27-1.4-0.32-2.09a7.74,7.74,0,0,1,6.66-7.6,0.2,0.2,0,0,0,.07-0.07h1.2Z" transform="translate(-780.14 -3594.05)"/><path class="cls-2" d="M775.45,3605.14h58.93a4.93,4.93,0,0,1,4.93,4.93v38.21a4.93,4.93,0,0,1-4.93,4.93H775.45a5.41,5.41,0,0,1-5.41-5.41v-37.26A5.41,5.41,0,0,1,775.45,3605.14Z" transform="translate(3653.72 -769.54) rotate(90)"/><line class="cls-3" x1="16.86" y1="51.53" x2="32.22" y2="51.53"/><line class="cls-3" x1="13.67" y1="57.62" x2="35.41" y2="57.62"/><line class="cls-4" x1="4.66" y1="19.95" x2="44.42" y2="59.71"/><line class="cls-4" x1="4.66" y1="59.71" x2="44.42" y2="19.95"/></svg>
