<svg id="Слой_1" data-name="Слой 1" xmlns="http://www.w3.org/2000/svg" viewBox="0 0 185 286.08"><defs><style>.cls-1{fill:#fff;}.cls-2{fill:#fc4c02;}</style></defs><rect class="cls-1" y="109.08" width="105" height="177" rx="16.17" ry="16.17"/><path class="cls-1" d="M1641.52,750.05V728.13c0-1.35,4.2-2.45,9.39-2.45h42.22c5.19,0,9.39,1.1,9.39,2.45v21.92c0,1.35-4.2,2.45-9.39,2.45h-42.22C1645.73,752.5,1641.52,751.4,1641.52,750.05Z" transform="translate(-1619.52 -651.67)"/><path class="cls-1" d="M1657.93,716.92v-15c0-.92,1.94-1.67,4.34-1.67h19.51c2.4,0,4.34.75,4.34,1.67v15c0,0.92-1.94,1.67-4.34,1.67h-19.51C1659.87,718.59,1657.93,717.84,1657.93,716.92Z" transform="translate(-1619.52 -651.67)"/><circle class="cls-1" cx="83" cy="46.42" r="9.17"/><circle class="cls-1" cx="111.33" cy="35.08" r="2.17"/><circle class="cls-1" cx="135" cy="27.92" r="3.33"/><circle class="cls-1" cx="134.33" cy="48.08" r="6"/><circle class="cls-1" cx="111.33" cy="54.08" r="3.67"/><circle class="cls-1" cx="119" cy="75.75" r="11.67"/><circle class="cls-1" cx="145" cy="75.75" r="2.83"/><circle class="cls-1" cx="160" cy="60.75" r="5"/><ellipse class="cls-1" cx="156.67" cy="35.08" rx="3.33"/><circle class="cls-1" cx="150" cy="37.25" r="3.33"/><circle class="cls-1" cx="170.33" cy="20.08" r="4.5"/><circle class="cls-1" cx="102.13" cy="17.79" r="9.96"/><circle class="cls-1" cx="139.5" cy="7.83" r="7.83"/><circle class="cls-1" cx="176.33" cy="42.08" r="8.67"/><circle class="cls-2" cx="52.5" cy="193.99" r="24.92"/></svg>
