<?xml version="1.0" encoding="utf-8"?>
<!-- Generator: Adobe Illustrator 23.0.2, SVG Export Plug-In . SVG Version: 6.00 Build 0)  -->
<svg version="1.1" id="Layer_1" xmlns="http://www.w3.org/2000/svg" xmlns:xlink="http://www.w3.org/1999/xlink" x="0px" y="0px"
	 viewBox="0 0 512.1 512.1" style="enable-background:new 0 0 512.1 512.1;" xml:space="preserve">
<style type="text/css">
	.st0{fill:#FFFFFF;}
</style>
<g transform="translate(0 -1)">
	<g>
		<g>
			<polygon class="st0" points="443,166.6 346.5,70.1 322.4,94.2 418.9,190.8 			"/>
			<path class="st0" d="M500.8,108.8c7.1-7.1,11.1-16.6,11.1-26.7c0-10.1-3.9-19.5-11.1-26.7l-43.2-43.2C450.5,5.1,441,1.2,431,1.2
				c-10.1,0-19.5,3.9-26.7,11.1L358.6,58l96.5,96.5L500.8,108.8z"/>
			<path class="st0" d="M18.3,400.5L0.2,503c-0.5,2.7,0.4,5.6,2.4,7.5c1.6,1.6,3.8,2.5,6,2.5c0.5,0,1,0,1.5-0.1l98.9-17.5
				l-90.6-95.3C18.4,400.2,18.3,400.3,18.3,400.5z"/>
			<path class="st0" d="M70.7,430.4c0.1-0.1,0.1-0.1,0.1-0.2l281.6-281.6c0,0,0.1-0.1,0.1-0.1l-42.3-42.3L29.5,387.1L70.7,430.4z"/>
			<path class="st0" d="M364.6,160.6c0,0-0.1,0.1-0.1,0.1L82.9,442.3c-0.2,0.2-0.4,0.2-0.6,0.4l41.3,43.4l283.3-283.3L364.6,160.6z"
				/>
			<path class="st0" d="M238.6,155.1l-84.5,84.5c-1.7,1.7-3.9,2.5-6,2.5c-2.2,0-4.4-0.8-6-2.5l-13.9-13.8l-12.1-12.1l-8.8-8.8
				l19.5-19.5l-3.7-3.7l-19.6,19.5L92,189.5l-4.7-4.7l19.6-19.6l-3.7-3.8l-19.6,19.6l-3.7-3.7L68.4,166l41.2-41.2l-6-6l-41.2,41.1
				l-6.6-6.6l-8.6-8.6l19.6-19.6l-3.7-3.7l-19.6,19.5l-11.8-11.8l-4.5-4.5l19.6-19.6l-3.7-3.7l-19.6,19.6L7.5,105
				c-10-10-10-26.2,0-36.2L67.8,8.5c10-10,26.2-10,36.2,0L238.6,143C241.9,146.3,241.9,151.8,238.6,155.1z"/>
			<polygon class="st0" points="116.1,213.7 107.3,204.9 107.3,204.9 			"/>
			<path class="st0" d="M423.8,407.8c-4.3,0-8.7,1.6-12,4.9c-6.6,6.6-6.6,17.4,0,24c6.6,6.6,17.4,6.6,24,0c6.6-6.6,6.6-17.4,0-24
				C432.4,409.5,428.1,407.8,423.8,407.8z"/>
			<path class="st0" d="M506.2,410.6L365.8,270.3c-3.3-3.3-8.7-3.3-12.1,0l-84.5,84.5c-3.3,3.3-3.3,8.7,0,12.1l15.8,15.8l30.2-30.2
				c3.3-3.3,8.7-3.3,12.1,0c3.3,3.3,3.3,8.7,0,12.1l-30.2,30.2l12.1,12.1l42.2-42.2c3.3-3.3,8.7-3.3,12.1,0c3.3,3.3,3.3,8.7,0,12.1
				l-42.2,42.2l88.4,88.4c3.9,3.9,9.1,5.9,14.2,5.9c5.1,0,10.3-1.9,14.2-5.9l68.1-68.1C514,431.2,514,418.5,506.2,410.6z
				 M447.8,448.8c-6.6,6.6-15.3,9.9-24,9.9c-8.7,0-17.4-3.3-24.1-9.9c-13.3-13.3-13.3-34.8,0-48.1c13.3-13.3,34.9-13.3,48.1,0
				C461.1,414,461.1,435.5,447.8,448.8z"/>
		</g>
	</g>
</g>
<polygon class="st0" points="276.2,372.4 332.6,428.9 393.2,369.2 322.2,300.9 "/>
</svg>
