<svg id="Слой_1" data-name="Слой 1" xmlns="http://www.w3.org/2000/svg" viewBox="0 0 271.5 235.46"><defs><style>.cls-1{fill:#fff;}</style></defs><path class="cls-1" d="M3200.92,883.36l-9.62-16.87H2996.69c-4.24,7.48,1,16.87,9.45,16.87h194.78Z" transform="translate(-2995.19 -649)"/><path class="cls-1" d="M3189.07,862.57l-9.6-16.84h-171c-4.24,7.47,1,16.84,9.43,16.84h171.17Z" transform="translate(-2995.19 -649)"/><path class="cls-1" d="M3177.24,841.81l-9.6-16.84h-147.4c-4.24,7.47,1,16.84,9.43,16.84h147.56Z" transform="translate(-2995.19 -649)"/><path class="cls-1" d="M3120.69,654.46l-99.76,166h19.54l99.76-166h0A11.47,11.47,0,0,0,3120.69,654.46Z" transform="translate(-2995.19 -649)"/><path class="cls-1" d="M3144.74,694.56L3069.06,820.5h19.51l75.66-125.9h0A11.43,11.43,0,0,0,3144.74,694.56Z" transform="translate(-2995.19 -649)"/><path class="cls-1" d="M3132.74,674.49l-87.73,146h19.51l87.73-146h0A11.46,11.46,0,0,0,3132.74,674.49Z" transform="translate(-2995.19 -649)"/><path class="cls-1" d="M3143.84,737.8L3133.76,754l73.39,129.47h0a11,11,0,0,0,10-16.42Z" transform="translate(-2995.19 -649)"/><path class="cls-1" d="M3156.28,717.79L3146.19,734l85,150h0a11,11,0,0,0,10-16.42Z" transform="translate(-2995.19 -649)"/><path class="cls-1" d="M3168.73,697.75L3158.62,714l96.62,170.44h0a11.05,11.05,0,0,0,10-16.44Z" transform="translate(-2995.19 -649)"/></svg>
