<svg id="Слой_1" data-name="Слой 1" xmlns="http://www.w3.org/2000/svg" viewBox="0 0 283 200.54"><defs><style>.cls-1{fill:#fff;}</style></defs><path class="cls-1" d="M1353.15,218.68l6,16H1338l5.68-16c1.56-4.36,3-10.07,4.4-14.55h0.28C1349.73,208.61,1351.45,214.2,1353.15,218.68Z" transform="translate(-1244.75 -166.46)"/><path class="cls-1" d="M1522.9,166.46H1249.6a4.85,4.85,0,0,0-4.85,4.85V288.1a4.86,4.86,0,0,0,4.85,4.86h273.3a4.86,4.86,0,0,0,4.85-4.86V171.31A4.85,4.85,0,0,0,1522.9,166.46ZM1369.63,266.82l-7.39-19.37h-27.41L1328,266.82h-22.45l29.28-75.45h28.4l29.7,75.45h-23.3Zm59.54,1.22c-11.94,0-22-2.45-27.42-5.14l4.39-12.76c3.84,1.57,12.65,4.48,21.46,4.48,11.22,0,16.9-4.26,16.9-9.74,0-7.17-9.09-10.41-18.61-10.41h-8.81V222.26h8.39c7.25-.1,16.48-2.24,16.48-8.4,0-4.36-4.55-7.61-13.64-7.61a50.83,50.83,0,0,0-19.32,4.37l-4.41-12.32c5.54-2.79,16.63-5.48,28.57-5.48,19.74,0,30.68,8.17,30.68,18.14,0,7.72-5.54,13.77-16.91,16.9v0.22c11.08,1.57,20,8.17,20,17.69C1467,258.64,1452.6,268,1429.17,268Z" transform="translate(-1244.75 -166.46)"/><path class="cls-1" d="M1333.58,334.87c0,6-2.69,10.46-7.4,10.46s-7.49-4.25-7.49-10.28,2.74-10.46,7.45-10.46S1333.58,329.34,1333.58,334.87Z" transform="translate(-1244.75 -166.46)"/><path class="cls-1" d="M1418.06,324.59c-4.71,0-7.45,4.48-7.45,10.46s2.84,10.28,7.5,10.28,7.4-4.48,7.4-10.46C1425.51,329.34,1422.86,324.59,1418.06,324.59Zm0,0c-4.71,0-7.45,4.48-7.45,10.46s2.84,10.28,7.5,10.28,7.4-4.48,7.4-10.46C1425.51,329.34,1422.86,324.59,1418.06,324.59Zm0,0c-4.71,0-7.45,4.48-7.45,10.46s2.84,10.28,7.5,10.28,7.4-4.48,7.4-10.46C1425.51,329.34,1422.86,324.59,1418.06,324.59Zm0,0c-4.71,0-7.45,4.48-7.45,10.46s2.84,10.28,7.5,10.28,7.4-4.48,7.4-10.46C1425.51,329.34,1422.86,324.59,1418.06,324.59Zm104.84-21.13H1249.6a4.85,4.85,0,0,0-4.85,4.85v53.84a4.85,4.85,0,0,0,4.85,4.85h273.3a4.85,4.85,0,0,0,4.85-4.85V308.31A4.85,4.85,0,0,0,1522.9,303.46Zm-197.08,47.4c-9.14,0-14.48-6.9-14.48-15.67,0-9.23,5.89-16.13,15-16.13,9.46,0,14.62,7.08,14.62,15.58C1340.94,344.73,1334.82,350.86,1325.82,350.86Zm40.45-10.19a83.18,83.18,0,0,0,3.56,9.68h-7.49a47,47,0,0,1-2.38-6.76c-1.05-3.47-2.46-6.12-6.21-6.12h-1.33v12.88h-6.89V319.56h6.89v12.79h0.6l8.5-12.79H1370l-10.74,13.66C1363.21,334.23,1365,337,1366.27,340.67Zm32.31,9.68h-6.94V337.47h-11.47v12.88h-7V319.56h7v11.83h11.47V319.56h6.94v30.79Zm19.16,0.51c-9.14,0-14.48-6.9-14.48-15.67,0-9.23,5.89-16.13,15-16.13,9.46,0,14.62,7.08,14.62,15.58C1432.86,344.73,1426.74,350.86,1417.74,350.86Zm43.42-.51h-6.71V326.83h-0.09l-5.67,2.69-1.14-5.2,7.86-3.66h5.75v29.69Zm-43.1-25.76c-4.71,0-7.45,4.48-7.45,10.46s2.84,10.28,7.5,10.28,7.4-4.48,7.4-10.46C1425.51,329.34,1422.86,324.59,1418.06,324.59Zm0,0c-4.71,0-7.45,4.48-7.45,10.46s2.84,10.28,7.5,10.28,7.4-4.48,7.4-10.46C1425.51,329.34,1422.86,324.59,1418.06,324.59Zm0,0c-4.71,0-7.45,4.48-7.45,10.46s2.84,10.28,7.5,10.28,7.4-4.48,7.4-10.46C1425.51,329.34,1422.86,324.59,1418.06,324.59Z" transform="translate(-1244.75 -166.46)"/></svg>
