<svg id="Слой_1" data-name="Слой 1" xmlns="http://www.w3.org/2000/svg" viewBox="0 0 243.76 237.38"><defs><style>.cls-1{fill:#fff;}.cls-2{fill:#f4c944;}</style></defs><path class="cls-1" d="M3536.57,265.72l-104.07.21a109.2,109.2,0,0,1,104.07-104.1V265.72Z" transform="translate(-3432.5 -142.72)"/><path class="cls-1" d="M3540.2,276.71l67.61,81a109.18,109.18,0,0,1-175.26-80.78Z" transform="translate(-3432.5 -142.72)"/><path class="cls-1" d="M3554.49,276.68l96.13-.2a108.87,108.87,0,0,1-34.42,74.13Z" transform="translate(-3432.5 -142.72)"/><path class="cls-1" d="M3669.92,234.9a109.25,109.25,0,0,0-88.9-90.63,105.74,105.74,0,0,0-14-1.55V246.58l104.07-.21A108.14,108.14,0,0,0,3669.92,234.9Zm-65.52-10.3a34.67,34.67,0,0,1-12.61-2.08l1.88-6.44a31.19,31.19,0,0,0,10.24,1.81c4.39,0,9.06-1.7,9.06-5.59s-3.69-6.11-12.75-6.11a49.12,49.12,0,0,0-6.13.34l3-19.25h25v7.06h-17.56l-1,5.64a25,25,0,0,1,2.93-.11c4.32,0,8.71.79,11.92,2.66a10,10,0,0,1,5.5,9.2C3623.84,218.56,3616.59,224.6,3604.4,224.6Z" transform="translate(-3432.5 -142.72)"/><path class="cls-2" d="M3671.88,241.41h-0.79a5.18,5.18,0,0,1,5.17,5.17v-0.8A4.38,4.38,0,0,0,3671.88,241.41Z" transform="translate(-3432.5 -142.72)"/></svg>
