<svg id="Слой_1" data-name="Слой 1" xmlns="http://www.w3.org/2000/svg" viewBox="0 0 197.92 241.02"><defs><style>.cls-1{fill:#fff;}</style></defs><path class="cls-1" d="M2185.12,674.2c3.49,1.63,7,3.33,10.47,4.89q42.13,18.74,84.28,37.42a4,4,0,0,1,2.67,4.19c-0.09,21.23-.07,42.45-0.2,63.68-0.19,32.71-10.78,61.75-31.23,87.22-16.35,20.37-36.76,34.87-61.8,42.7a18.39,18.39,0,0,1-11.4,0c-30.33-9.55-53.46-28.38-70.71-54.78a137.16,137.16,0,0,1-21.6-59.39,130.92,130.92,0,0,1-.91-15c-0.1-21.56,0-43.12-.08-64.68,0-2.26,1.17-3.33,3.06-4.17q36.92-16.38,73.82-32.82,9.43-4.2,18.85-8.43c0.54-.24,1-0.57,1.55-0.85h3.21Zm-1.32,226.36c1.39-.29,2.64-0.46,3.83-0.81a95.67,95.67,0,0,0,23.48-10.19c37.92-23.53,57.2-58.06,59.06-102.26,0.81-19.18.14-38.42,0.17-57.64a3.34,3.34,0,0,0-2.2-3.42Q2227,708,2185.88,689.72c-0.63-.28-1.32-0.45-2.08-0.71V900.56Z" transform="translate(-2084.63 -674.2)"/></svg>
