<svg id="Слой_1" data-name="Слой 1" xmlns="http://www.w3.org/2000/svg" viewBox="0 0 321 262"><defs><style>.cls-1{fill:#fff;}</style></defs><title>tablo and chel</title><path class="cls-1" d="M1993.65,348.55l3.52,32.22h-91.86l3.52-32.22A5.15,5.15,0,0,1,1913,344l22.76-4.48a5.17,5.17,0,0,0,4.17-4.88l0.28-7.45a5.2,5.2,0,0,0-.6-2.62c-1.22-2.34-3.84-8.34-5.34-18.84-1.84-12.87,8.16-19,16-19.88v-0.12l0.75,0h0.5l0.75,0v0.12c7.84,0.9,17.84,7,16,19.88-1.5,10.5-4.12,16.5-5.34,18.84a5.2,5.2,0,0,0-.6,2.62l0.28,7.45a5.17,5.17,0,0,0,4.17,4.88l22.76,4.48A5.15,5.15,0,0,1,1993.65,348.55Z" transform="translate(-1790.24 -146.77)"/><path class="cls-1" d="M2101.41,146.77H1800.07a9.83,9.83,0,0,0-9.83,9.83V342.27a10.5,10.5,0,0,0,10.5,10.5h98.57l0.57-5.2a14.11,14.11,0,0,1,11.35-12.36l19.79-3.9,0.13-3.43c-1.68-3.48-4.3-10.23-5.82-20.84-1.06-7.42.6-14.22,4.8-19.66a25.72,25.72,0,0,1,4.94-4.83,29,29,0,0,1,6.17-3.51,33.39,33.39,0,0,1,10.72-2,21.14,21.14,0,0,1,9.28,2,27.36,27.36,0,0,1,11.11,8.34c4.2,5.44,5.86,12.24,4.8,19.66-1.52,10.61-4.14,17.36-5.82,20.84l0.13,3.43,19.79,3.9a14.11,14.11,0,0,1,11.35,12.36l0.57,5.2h97.57a10.5,10.5,0,0,0,10.5-10.5V156.6A9.83,9.83,0,0,0,2101.41,146.77ZM1935.24,248.1h-125.5V189.44h125.5V248.1Zm0-68.66h-125.5V166.77h125.5v12.67Zm158,68.66h-125.5V189.44h125.5V248.1Zm0-68.66h-125.5V166.77h125.5v12.67Z" transform="translate(-1790.24 -146.77)"/><path class="cls-1" d="M1994.47,408.77H1908a5.16,5.16,0,0,1-5.14-5.73l2.44-22.27,3.52-32.22A5.15,5.15,0,0,1,1913,344l22.76-4.48a5.17,5.17,0,0,0,4.17-4.88l0.28-7.45a5.2,5.2,0,0,0-.6-2.62c-1.22-2.34-3.84-8.34-5.34-18.84-1.84-12.87,8.16-19,16-19.88v-0.12l0.75,0h0.5l0.75,0v0.12c7.84,0.9,17.84,7,16,19.88-1.5,10.5-4.12,16.5-5.34,18.84a5.2,5.2,0,0,0-.6,2.62l0.28,7.45a5.17,5.17,0,0,0,4.17,4.88l22.76,4.48a5.15,5.15,0,0,1,4.14,4.51l3.52,32.22,2.44,22.27A5.16,5.16,0,0,1,1994.47,408.77Z" transform="translate(-1790.24 -146.77)"/><path class="cls-1" d="M1857.25,225.13l-2.4,8.64H1847l10.28-33.65h10l10.43,33.65h-8.19l-2.6-8.64h-9.64Zm8.54-5.69-2.1-7.14c-0.6-2-1.2-4.49-1.7-6.49h-0.1c-0.5,2-1,4.54-1.55,6.49l-2,7.14h7.44Z" transform="translate(-1790.24 -146.77)"/><path class="cls-1" d="M1890.67,208.06h-0.1l-6.19,2.95-1.25-5.69,8.59-4H1898v32.45h-7.34V208.06Z" transform="translate(-1790.24 -146.77)"/><path class="cls-1" d="M2012.17,225.17l-2.41,8.68h-7.92L2012.17,200h10l10.49,33.81h-8.23l-2.61-8.68h-9.68Zm8.58-5.72-2.11-7.18c-0.6-2-1.21-4.51-1.71-6.52h-0.1c-0.5,2-1,4.57-1.56,6.52l-2,7.18h7.48Z" transform="translate(-1790.24 -146.77)"/><path class="cls-1" d="M2036,233.85v-4.62l4.21-3.81c7.12-6.37,10.59-10,10.69-13.85,0-2.66-1.61-4.77-5.37-4.77a11.84,11.84,0,0,0-7,2.71l-2.16-5.47a18.05,18.05,0,0,1,10.69-3.36c7.37,0,11.44,4.32,11.44,10.24,0,5.47-4,9.83-8.68,14l-3,2.51v0.1h12.29v6.27H2036Z" transform="translate(-1790.24 -146.77)"/></svg>