<svg id="Слой_1" data-name="Слой 1" xmlns="http://www.w3.org/2000/svg" viewBox="0 0 283 226.47"><defs><style>.cls-1{fill:#fff;}.cls-2{fill:#f4c944;}</style></defs><path class="cls-1" d="M2613.34,238H2340a4.85,4.85,0,0,0-4.85,4.85V359.63a4.86,4.86,0,0,0,4.85,4.86h273.3a4.86,4.86,0,0,0,4.85-4.86V242.84A4.85,4.85,0,0,0,2613.34,238Zm-3.15,113.7a5.17,5.17,0,0,1-5.17,5.16H2348.36a5.17,5.17,0,0,1-5.17-5.16v-101a5.18,5.18,0,0,1,5.17-5.17H2605a5.18,5.18,0,0,1,5.17,5.17v101Z" transform="translate(-2335.19 -138.02)"/><rect class="cls-1" x="126.31" width="28" height="57.5"/><rect class="cls-1" x="117.83" y="66.33" width="47.33" height="33.64"/><path class="cls-1" d="M2443.59,290.16l6,16h-21.16l5.68-16c1.56-4.36,3-10.07,4.4-14.55h0.28C2440.17,280.09,2441.89,285.68,2443.59,290.16Z" transform="translate(-2335.19 -138.02)"/><path class="cls-1" d="M2597,253H2356.36a0.35,0.35,0,0,0-.35.34V349a0.35,0.35,0,0,0,.35.35H2597a0.35,0.35,0,0,0,.35-0.35V253.39A0.35,0.35,0,0,0,2597,253ZM2461.2,335.77l-6.89-18.05h-25.54l-6.36,18.05h-20.92l27.29-70.31h26.47l27.68,70.31H2461.2Zm55.49,1.14c-11.13,0-20.53-2.28-25.55-4.79l4.09-11.89a57.54,57.54,0,0,0,20,4.17c10.46,0,15.75-4,15.75-9.08,0-6.68-8.47-9.7-17.34-9.7h-8.21V294.25h7.82c6.76-.09,15.36-2.09,15.36-7.83,0-4.06-4.24-7.09-12.71-7.09a47.37,47.37,0,0,0-18,4.07l-4.11-11.48c5.16-2.6,15.5-5.11,26.62-5.11,18.4,0,28.59,7.61,28.59,16.9,0,7.19-5.16,12.83-15.76,15.75v0.2c10.33,1.46,18.67,7.61,18.67,16.49C2551.89,328.15,2538.52,336.91,2516.68,336.91Z" transform="translate(-2335.19 -138.02)"/><path class="cls-2" d="M2605,356.85h0.79a4.38,4.38,0,0,0,4.38-4.38v-0.78A5.17,5.17,0,0,1,2605,356.85Zm0.79-111.33H2605a5.18,5.18,0,0,1,5.17,5.17v-0.8A4.38,4.38,0,0,0,2605.81,245.52Zm-262.62,4.37v0.8a5.18,5.18,0,0,1,5.17-5.17h-0.79A4.38,4.38,0,0,0,2343.19,249.89Zm0,101.8v0.78a4.38,4.38,0,0,0,4.38,4.38h0.79A5.17,5.17,0,0,1,2343.19,351.69Z" transform="translate(-2335.19 -138.02)"/></svg>
