<svg xmlns="http://www.w3.org/2000/svg" viewBox="0 0 101.15 72.81"><defs><style>.cls-1{fill:#fc4c02;}.cls-2{fill:none;stroke:#fc4c02;stroke-miterlimit:10;}</style></defs><g id="Layer_2" data-name="Layer 2"><g id="Слой_1" data-name="Слой 1"><path class="cls-1" d="M11.8,41.57c.17-.55.29-1.1.5-1.63a3.57,3.57,0,0,1,2.16-2.2c1.36-.48,2.76-.89,4.08-1.46s2.53-1.3,3.84-2l3.43,10.76.13,0c.41-1.17.83-2.33,1.21-3.51.05-.14-.1-.37-.18-.54A17.1,17.1,0,0,1,26,39a1.53,1.53,0,0,1,1.32-2.2,5.08,5.08,0,0,1,2,.1,1.36,1.36,0,0,1,1,1.79,9.08,9.08,0,0,1-.92,2.12,1.2,1.2,0,0,0-.12,1.22c.38,1,.71,2,1.2,3L34,34.23l.53.31a25.06,25.06,0,0,0,6.86,3c2,.52,2.77,2,3.09,3.85,0,.17.09.34.13.51v2c-.12.9-.2,1.81-.36,2.71a1.17,1.17,0,0,1-.5.72,32.15,32.15,0,0,1-3.16,1.46,35.6,35.6,0,0,1-18.43,1.69,30.45,30.45,0,0,1-9.38-3,1.14,1.14,0,0,1-.67-1c-.06-.68-.17-1.36-.26-2Z"/><path class="cls-1" d="M29,10.51c.47.12.95.21,1.41.35a6.22,6.22,0,0,1,3.28,2.23.75.75,0,0,0,.31.28c1.56.51,2,1.78,2.24,3.21a12.81,12.81,0,0,1-.36,4.85c.81.32,1,.54.94,1.41a6.46,6.46,0,0,1-1.09,3.58,9.87,9.87,0,0,0-1.11,2.23,7.58,7.58,0,0,1-5.28,4.79c-2.41.55-4.36-.43-6-2.16a8.21,8.21,0,0,1-2-3.8,1.73,1.73,0,0,0-.38-.57,4.15,4.15,0,0,1-.42-.52,8.27,8.27,0,0,1-1-3.74c0-.62.22-1.08.9-1.15-.12-.8-.3-1.57-.36-2.35a7.51,7.51,0,0,1,3-6.52,7.52,7.52,0,0,1,4.49-2s.05-.05.08-.08Z"/><line class="cls-2" x1="58.8" y1="15.31" x2="83.3" y2="15.31"/><line class="cls-2" x1="53.16" y1="25.03" x2="88.94" y2="25.03"/><line class="cls-2" x1="53.16" y1="35.21" x2="72.96" y2="35.21"/><line class="cls-2" x1="53.16" y1="44.61" x2="63.74" y2="45.07"/><path class="cls-1" d="M75.17,50.76V47.61a6.1,6.1,0,0,1,12.11-1.1,9.08,9.08,0,0,1,.1,1.17c0,.94,0,1.89,0,2.84v.24c.26,0,.5,0,.75,0a1.38,1.38,0,0,1,1.47,1.46c0,3.41,0,6.82,0,10.23a1.33,1.33,0,0,1-1.42,1.43H74.39A1.34,1.34,0,0,1,73,62.46V52.18a1.33,1.33,0,0,1,1.42-1.42Zm10,0c0-.06,0-.11,0-.15,0-1,0-2.05,0-3.07a4.13,4.13,0,0,0-.08-.78,3.92,3.92,0,0,0-7.75.86c0,1,0,2,0,2.94a1.41,1.41,0,0,0,0,.2ZM82.63,60s0,0,0-.06c-.15-.69-.3-1.38-.46-2.07a.28.28,0,0,1,.11-.34A1.57,1.57,0,0,0,82.86,56a1.61,1.61,0,0,0-1.37-1.35,1.68,1.68,0,0,0-1.69.82A1.56,1.56,0,0,0,80,57.34a.76.76,0,0,1,.22.94c0,.08,0,.15,0,.23-.1.49-.2,1-.31,1.5Z"/><path class="cls-2" d="M94.26,38.34V7.17A6.68,6.68,0,0,0,87.58.5H7.82A7.32,7.32,0,0,0,.5,7.82V58.25a7.32,7.32,0,0,0,7.32,7.32H66.7"/><path class="cls-2" d="M100.65,53A19.37,19.37,0,1,1,81.28,33.58,19.36,19.36,0,0,1,100.65,53"/></g></g></svg>
