<svg xmlns="http://www.w3.org/2000/svg" viewBox="0 0 97.62 67.45"><defs><style>.cls-1{fill:#fc4c02;}</style></defs><g id="Layer_2" data-name="Layer 2"><g id="Слой_1" data-name="Слой 1"><path class="cls-1" d="M5.15,53.76c.09-.3.16-.6.27-.89a2,2,0,0,1,1.18-1.2c.75-.27,1.51-.49,2.23-.8s1.39-.71,2.1-1.09l1.88,5.88h.07c.22-.64.45-1.27.66-1.92,0-.08-.06-.2-.1-.29a8.21,8.21,0,0,1-.52-1.08.84.84,0,0,1,.72-1.21,2.81,2.81,0,0,1,1.08.06.74.74,0,0,1,.57,1,4.89,4.89,0,0,1-.5,1.15.68.68,0,0,0-.07.67c.21.54.39,1.08.66,1.63l1.87-5.91.29.17a13.65,13.65,0,0,0,3.75,1.65A2.32,2.32,0,0,1,23,53.68a1.64,1.64,0,0,0,.07.28V55c-.06.49-.11,1-.2,1.48a.63.63,0,0,1-.27.4c-.57.28-1.14.57-1.73.79a19.41,19.41,0,0,1-10.07.93A16.55,16.55,0,0,1,5.66,57a.64.64,0,0,1-.37-.54c0-.38-.09-.75-.14-1.12Z"/><path class="cls-1" d="M14.54,36.79c.25.06.51.11.77.19A3.43,3.43,0,0,1,17.1,38.2a.4.4,0,0,0,.17.15,1.88,1.88,0,0,1,1.22,1.76,6.92,6.92,0,0,1-.19,2.64c.44.18.54.3.51.78a3.51,3.51,0,0,1-.6,1.95,5.52,5.52,0,0,0-.6,1.22,4.16,4.16,0,0,1-2.89,2.62,3.3,3.3,0,0,1-3.26-1.18,4.58,4.58,0,0,1-1.11-2.08.82.82,0,0,0-.2-.31,2.83,2.83,0,0,1-.23-.28,4.63,4.63,0,0,1-.56-2c0-.34.12-.59.5-.63-.07-.43-.17-.86-.2-1.28A4.09,4.09,0,0,1,11.3,38a4.12,4.12,0,0,1,2.45-1.12s0,0,.05,0Z"/><path class="cls-1" d="M49,67.45H3.69A3.69,3.69,0,0,1,0,63.76V34.43a3.69,3.69,0,0,1,3.69-3.69H49a3.41,3.41,0,0,1,3.41,3.41V64A3.41,3.41,0,0,1,49,67.45ZM3.69,31.89a2.54,2.54,0,0,0-2.54,2.54V63.76A2.54,2.54,0,0,0,3.69,66.3H49A2.27,2.27,0,0,0,51.23,64V34.15A2.27,2.27,0,0,0,49,31.89Z"/><rect class="cls-1" x="30.83" y="38.84" width="13.38" height="1.15"/><rect class="cls-1" x="27.75" y="44.15" width="19.55" height="1.15"/><rect class="cls-1" x="27.75" y="49.71" width="19.55" height="1.15"/><rect class="cls-1" x="36.95" y="45.77" width="1.15" height="19.55" transform="translate(-18.49 92.36) rotate(-89.28)"/><path class="cls-1" d="M32.83,31a.93.93,0,0,0-.21-.32,2.15,2.15,0,0,1-.23-.28,4.54,4.54,0,0,1-.55-2c0-.35.12-.59.49-.63-.07-.44-.17-.86-.2-1.29a4.12,4.12,0,0,1,1.64-3.56,4.11,4.11,0,0,1,2.46-1.11s0,0,0,0H37l.77.19a3.43,3.43,0,0,1,1.79,1.22.47.47,0,0,0,.17.15A1.9,1.9,0,0,1,41,25.08a7.17,7.17,0,0,1-.2,2.65c.44.17.54.3.51.77a3.59,3.59,0,0,1-.59,2,5.09,5.09,0,0,0-.61,1.21"/><path class="cls-1" d="M70.63,52.42H51.55V51.27H70.63A3.08,3.08,0,0,0,73.7,48.2V19.94a3.08,3.08,0,0,0-3.07-3.07H27.05a3.43,3.43,0,0,0-3.43,3.42V31.67H22.47V20.29a4.58,4.58,0,0,1,4.58-4.57H70.63a4.22,4.22,0,0,1,4.22,4.22V48.2A4.22,4.22,0,0,1,70.63,52.42Z"/><rect class="cls-1" x="53.3" y="23.81" width="13.38" height="1.15"/><rect class="cls-1" x="50.22" y="29.12" width="19.55" height="1.15"/><rect class="cls-1" x="51.55" y="34.68" width="18.22" height="1.15"/><rect class="cls-1" x="51.55" y="40.07" width="18.22" height="1.15"/><path class="cls-1" d="M93.4,36.7H74.32V35.55H93.4a3.08,3.08,0,0,0,3.07-3.07V4.22A3.08,3.08,0,0,0,93.4,1.15H49.82a3.43,3.43,0,0,0-3.43,3.42V16H45.24V4.57A4.58,4.58,0,0,1,49.82,0H93.4a4.23,4.23,0,0,1,4.22,4.22V32.48A4.23,4.23,0,0,1,93.4,36.7Z"/><rect class="cls-1" x="76.07" y="8.09" width="13.38" height="1.15"/><rect class="cls-1" x="72.99" y="13.4" width="19.55" height="1.15"/><rect class="cls-1" x="74.32" y="18.96" width="18.22" height="1.15"/><rect class="cls-1" x="74.32" y="24.35" width="18.22" height="1.15"/><path class="cls-1" d="M56.92,15.66a.78.78,0,0,0-.2-.32c-.07-.1-.18-.17-.23-.28a4.55,4.55,0,0,1-.56-2c0-.35.12-.59.5-.63-.07-.44-.17-.86-.2-1.29a4.09,4.09,0,0,1,1.64-3.56,4.1,4.1,0,0,1,2.45-1.11s0,0,0,0h.74l.77.19a3.43,3.43,0,0,1,1.79,1.22.35.35,0,0,0,.17.15A1.89,1.89,0,0,1,65.06,9.7a7,7,0,0,1-.19,2.65c.44.17.54.29.51.77a3.54,3.54,0,0,1-.6,2,5.46,5.46,0,0,0-.6,1.21"/></g></g></svg>
