<svg xmlns="http://www.w3.org/2000/svg" viewBox="0 0 119.35 104.15"><defs><style>.cls-1{fill:#fc4c02;}.cls-2{fill:none;stroke:#fc4c02;stroke-miterlimit:10;}</style></defs><g id="Layer_2" data-name="Layer 2"><g id="Слой_1" data-name="Слой 1"><path class="cls-1" d="M4.15,76c.07-.24.13-.5.22-.74a1.65,1.65,0,0,1,1-1c.63-.22,1.27-.41,1.87-.67S8.39,73,9,72.64l1.57,4.93h.06c.18-.54.37-1.07.55-1.61,0-.06,0-.17-.08-.25a8.3,8.3,0,0,1-.44-.9.7.7,0,0,1,.61-1,2.34,2.34,0,0,1,.91,0,.63.63,0,0,1,.47.83,3.89,3.89,0,0,1-.42,1,.58.58,0,0,0-.06.57c.18.44.33.9.55,1.36l1.57-5a2.75,2.75,0,0,1,.25.15,11.59,11.59,0,0,0,3.14,1.38,1.94,1.94,0,0,1,1.42,1.77,2,2,0,0,0,.06.23V77c-.06.42-.1.83-.17,1.24a.51.51,0,0,1-.23.34,12.63,12.63,0,0,1-1.45.66,16.28,16.28,0,0,1-8.44.78,13.91,13.91,0,0,1-4.3-1.4.52.52,0,0,1-.3-.46c0-.31-.08-.62-.12-.93Z"/><path class="cls-1" d="M12,61.75c.21,0,.43.09.64.16a2.87,2.87,0,0,1,1.51,1s.08.11.14.12a1.58,1.58,0,0,1,1,1.48,5.74,5.74,0,0,1-.16,2.22c.37.15.45.25.43.64A3,3,0,0,1,15.1,69a4.63,4.63,0,0,0-.51,1,3.48,3.48,0,0,1-2.42,2.19,2.76,2.76,0,0,1-2.73-1,3.83,3.83,0,0,1-.93-1.74.83.83,0,0,0-.17-.26A1.43,1.43,0,0,1,8.15,69a3.69,3.69,0,0,1-.47-1.71c0-.29.1-.5.41-.53C8,66.41,8,66.06,7.93,65.7a3.44,3.44,0,0,1,1.37-3,3.47,3.47,0,0,1,2.06-.94l0,0Z"/><path class="cls-1" d="M40.21,87.28H3.66A3.66,3.66,0,0,1,0,83.62V60.51a3.66,3.66,0,0,1,3.66-3.66H40.21a3.37,3.37,0,0,1,3.37,3.37V83.91A3.37,3.37,0,0,1,40.21,87.28ZM3.66,57.47a3,3,0,0,0-3,3V83.62a3,3,0,0,0,3,3H40.21A2.75,2.75,0,0,0,43,83.91V60.22a2.75,2.75,0,0,0-2.75-2.75Z"/><rect class="cls-1" x="25.68" y="63.64" width="11.22" height="0.62"/><rect class="cls-1" x="23.1" y="68.09" width="16.39" height="0.62"/><rect class="cls-1" x="23.1" y="72.75" width="16.39" height="0.62"/><rect class="cls-1" x="30.98" y="69.28" width="0.62" height="16.39" transform="translate(-46.57 107.78) rotate(-89.28)"/><path class="cls-1" d="M68.61,22.21a15,15,0,0,0-.4-2.1l-.69-2.88-.66-2.62-1-4c-.34-1.37-.67-2.74-1-4.11-.22-.89-.43-1.78-.66-2.67a3.85,3.85,0,0,0-.31-1s0,0,0-.07L64,3h0c-.14-.47-.28-.95-.43-1.42a1.88,1.88,0,0,0-.22-.45.9.9,0,0,0-.75-.38L58.79.43,56.53.29,52.17,0,51.12,0a3.44,3.44,0,0,0-.45.05v0h.08v0h0c-.27,0-.27,0-.26.31l.06,1.75.12,3,.15,3.58c0,.67,0,1.34.08,2s.07,1.42.1,2.12L51,14.53l.12,3.1.09,2.65c0,.36,0,.72,0,1.07,0,.89,0,1.77,0,2.66,0,.64,0,1.28-.09,1.91s-.07,1.18-.11,1.77c-.06.9-.13,1.8-.19,2.7s-.11,1.65-.17,2.48l-.21,3c-.05.65-.09,1.29-.14,1.94s-.07,1-.1,1.54-.05.85-.05,1.27c0,.87,0,1.73,0,2.59s0,1.84.08,2.75a1.37,1.37,0,0,0,0,.29.13.13,0,0,0,.08.1l.25.14.25.19.69.44a4.64,4.64,0,0,1,.44.26.42.42,0,0,0,.35.08l.5-.07,1.26-.14L56,47l1.9-.21,1.57-.19,1.09-.12,2.27-.26,2-.21a.37.37,0,0,0,.23-.12.89.89,0,0,0,.11-.31c.1-.56.19-1.13.29-1.69.27-1.58.55-3.16.83-4.74.18-1,.36-2,.53-3.06.11-.58.21-1.15.31-1.73s.23-1.35.35-2c.06-.35.13-.69.19-1s.13-.81.2-1.22.1-.55.15-.82c.12-.65.23-1.29.34-1.93s.22-1.16.3-1.75c.06-.4.07-.81.1-1.22A12.42,12.42,0,0,0,68.61,22.21ZM53.87,15.52l-.06-.7c-.06-.68-.12-1.36-.17-2.05l-.15-1.63c-.05-.62-.11-1.23-.17-1.85s-.1-1.16-.16-1.73S53,6.34,53,5.73s-.15-1.4-.21-2.11-.1-1.24-.15-1.86V1.62h2.16l1.54.08,2.4.13c.74,0,1.49.08,2.23.14.49,0,1,.11,1.46.16.1,0,.14.05.17.15.13.61.29,1.22.42,1.83.23,1.09.45,2.18.68,3.26s.41,1.93.62,2.89c.16.76.33,1.53.5,2.29l.66,2.91a.34.34,0,0,0,0,.09Zm2.32,2.87c-.56,0-1.12,0-1.68,0-.06,0-.13,0-.13-.08s0-.12.13-.12h2A.35.35,0,0,1,56.19,18.39Zm1.86,2-.53-3.64h5.55l.7,3.64Zm8-1.22h-.52c-.17,0-.33,0-.5,0a.32.32,0,0,1-.35-.27c0-.21-.08-.43-.11-.65a.24.24,0,0,1,.27-.28h1.1a.34.34,0,0,1,.33.32l.09.52A.29.29,0,0,1,66,19.21Z"/><path class="cls-1" d="M80.09,75.15c.08-.24.13-.49.22-.72a1.58,1.58,0,0,1,1-1c.6-.22,1.21-.39,1.79-.65s1.11-.57,1.69-.87l1.5,4.73h.06c.17-.51.36-1,.53-1.54,0-.06,0-.16-.08-.23a7.71,7.71,0,0,1-.42-.87.67.67,0,0,1,.58-1,2.33,2.33,0,0,1,.87.05.6.6,0,0,1,.46.78,4.54,4.54,0,0,1-.41.93.55.55,0,0,0,0,.54c.17.42.31.86.52,1.3l1.51-4.75.23.14a11.24,11.24,0,0,0,3,1.33,1.86,1.86,0,0,1,1.36,1.69c0,.08,0,.15,0,.23v.86c0,.39-.08.79-.16,1.19a.49.49,0,0,1-.21.31,10.86,10.86,0,0,1-1.39.64,15.59,15.59,0,0,1-8.09.75,13.49,13.49,0,0,1-4.11-1.34.5.5,0,0,1-.29-.44c0-.3-.08-.6-.12-.9Z"/><path class="cls-1" d="M87.63,61.52l.62.15a2.77,2.77,0,0,1,1.44,1,.25.25,0,0,0,.13.12,1.53,1.53,0,0,1,1,1.41,5.88,5.88,0,0,1-.16,2.13c.35.14.43.24.41.62a2.77,2.77,0,0,1-.48,1.57,5,5,0,0,0-.49,1,3.3,3.3,0,0,1-2.31,2.1,2.64,2.64,0,0,1-2.62-1A3.63,3.63,0,0,1,84.27,69a.92.92,0,0,0-.16-.26,2,2,0,0,1-.19-.22,3.65,3.65,0,0,1-.44-1.64c0-.28.09-.48.39-.51-.05-.35-.13-.69-.16-1A3.81,3.81,0,0,1,87,61.56s0,0,0,0Z"/><rect class="cls-1" x="100.71" y="63.35" width="10.75" height="0.56"/><rect class="cls-1" x="98.24" y="67.61" width="15.69" height="0.56"/><rect class="cls-1" x="98.24" y="72.08" width="8.69" height="0.56"/><rect class="cls-1" x="100.28" y="74.26" width="0.56" height="4.64" transform="translate(19.75 173.78) rotate(-87.55)"/><path class="cls-1" d="M107.89,79.18V77.79a2.68,2.68,0,0,1,5.32-.48,4.38,4.38,0,0,1,0,.52c0,.41,0,.83,0,1.25v.1h.33a.6.6,0,0,1,.64.64v4.49a.58.58,0,0,1-.62.62h-6a.58.58,0,0,1-.62-.62V79.8a.58.58,0,0,1,.62-.62Zm4.4,0v-.06c0-.45,0-.9,0-1.35a2,2,0,0,0,0-.34,1.72,1.72,0,0,0-3.41.38v1.29s0,0,0,.08Zm-1.12,4.07a0,0,0,0,0,0,0c-.06-.3-.13-.61-.2-.91a.11.11,0,0,1,.05-.14.72.72,0,1,0-1.08-.92.69.69,0,0,0,.09.83.33.33,0,0,1,.1.41.36.36,0,0,0,0,.1c0,.22-.09.43-.14.66Z"/><path class="cls-1" d="M104.18,86H78.35a3.5,3.5,0,0,1-3.5-3.5V60.34a3.5,3.5,0,0,1,3.5-3.49h35a3.21,3.21,0,0,1,3.21,3.21V73.73H116V60.06a2.65,2.65,0,0,0-2.65-2.65h-35a2.94,2.94,0,0,0-2.94,2.93V82.46a2.94,2.94,0,0,0,2.94,2.94h25.83Z"/><path class="cls-1" d="M110.58,88.91a8.78,8.78,0,1,1,8.77-8.77A8.78,8.78,0,0,1,110.58,88.91Zm0-17a8.22,8.22,0,1,0,8.21,8.22A8.23,8.23,0,0,0,110.58,71.92Z"/><path class="cls-2" d="M92.08,52.55a37.11,37.11,0,0,0-15-18.12"/><path class="cls-2" d="M25.52,52.55a37.11,37.11,0,0,1,15-18.12"/><path class="cls-2" d="M29.85,91.26A37,37,0,0,0,86.17,90"/></g></g></svg>
