<svg xmlns="http://www.w3.org/2000/svg" xmlns:xlink="http://www.w3.org/1999/xlink" viewBox="0 0 586.43 250.91"><defs><style>.cls-1{fill:url(#Безымянный_градиент_2);}.cls-2{fill:url(#Безымянный_градиент_4);}.cls-3{fill:url(#Безымянный_градиент_4-2);}.cls-4{fill:url(#Безымянный_градиент_4-3);}.cls-5{fill:url(#Безымянный_градиент_4-4);}.cls-6{fill:url(#Безымянный_градиент_4-5);}.cls-7{fill:url(#Безымянный_градиент_4-6);}.cls-8{fill:url(#Безымянный_градиент_4-7);}.cls-9{fill:url(#Безымянный_градиент_4-8);}.cls-10{fill:url(#Безымянный_градиент_4-9);}.cls-11{fill:url(#Безымянный_градиент_2-2);}.cls-12{fill:url(#Безымянный_градиент_2-3);}.cls-13{fill:url(#Безымянный_градиент_2-4);}.cls-14{fill:url(#Безымянный_градиент_2-5);}.cls-15{fill:url(#Безымянный_градиент_2-6);}.cls-16{fill:#4a403e;}</style><linearGradient id="Безымянный_градиент_2" x1="188.19" y1="16.79" x2="62.72" y2="234.12" gradientUnits="userSpaceOnUse"><stop offset="0" stop-color="#fc9f1a"/><stop offset="1" stop-color="#ff3419"/></linearGradient><linearGradient id="Безымянный_градиент_4" x1="28.17" y1="181.6" x2="180.04" y2="181.6" gradientUnits="userSpaceOnUse"><stop offset="0.73" stop-color="#fff"/><stop offset="1" stop-color="#d5d3ca"/></linearGradient><linearGradient id="Безымянный_градиент_4-2" x1="36.87" y1="166.66" x2="171.3" y2="166.66" xlink:href="#Безымянный_градиент_4"/><linearGradient id="Безымянный_градиент_4-3" x1="45.56" y1="151.73" x2="162.56" y2="151.73" xlink:href="#Безымянный_градиент_4"/><linearGradient id="Безымянный_градиент_4-4" x1="127.39" y1="18.95" x2="52.34" y2="148.93" xlink:href="#Безымянный_градиент_4"/><linearGradient id="Безымянный_градиент_4-5" x1="144.75" y1="48.62" x2="86.86" y2="148.88" xlink:href="#Безымянный_градиент_4"/><linearGradient id="Безымянный_градиент_4-6" x1="136.08" y1="33.76" x2="69.61" y2="148.91" xlink:href="#Безымянный_градиент_4"/><linearGradient id="Безымянный_градиент_4-7" x1="185.53" y1="185.76" x2="127.48" y2="85.21" xlink:href="#Безымянный_градиент_4"/><linearGradient id="Безымянный_градиент_4-8" x1="202.79" y1="185.78" x2="136.18" y2="70.41" xlink:href="#Безымянный_градиент_4"/><linearGradient id="Безымянный_градиент_4-9" x1="220.05" y1="185.8" x2="144.88" y2="55.6" xlink:href="#Безымянный_градиент_4"/><linearGradient id="Безымянный_градиент_2-2" x1="520.18" y1="-22.99" x2="328.17" y2="100.44" xlink:href="#Безымянный_градиент_2"/><linearGradient id="Безымянный_градиент_2-3" x1="535.06" y1="0.17" x2="343.06" y2="123.6" xlink:href="#Безымянный_градиент_2"/><linearGradient id="Безымянный_градиент_2-4" x1="549.87" y1="23.21" x2="357.87" y2="146.64" xlink:href="#Безымянный_градиент_2"/><linearGradient id="Безымянный_градиент_2-5" x1="571.17" y1="56.33" x2="379.17" y2="179.76" xlink:href="#Безымянный_градиент_2"/><linearGradient id="Безымянный_градиент_2-6" x1="590.66" y1="86.65" x2="398.66" y2="210.08" xlink:href="#Безымянный_градиент_2"/></defs><title>Ресурс 26</title><g id="Слой_2" data-name="Слой 2"><g id="Слой_1-2" data-name="Слой 1"><circle class="cls-1" cx="125.46" cy="125.46" r="125.46"/><path class="cls-2" d="M180,187.67,173,175.54H29.28a8.07,8.07,0,0,0,7,12.13Z"/><path class="cls-3" d="M171.3,172.72l-7.09-12.11H38a8.05,8.05,0,0,0,7,12.11Z"/><path class="cls-4" d="M162.56,157.79l-7.08-12.11H46.67a8.06,8.06,0,0,0,7,12.11Z"/><path class="cls-5" d="M118.44,23.14,46.69,145.67H60.75L132.5,23.14h0A8.15,8.15,0,0,0,118.44,23.14Z"/><path class="cls-6" d="M135.74,52.74,81.31,145.68h14l54.42-92.91h0A8.11,8.11,0,0,0,135.74,52.74Z"/><path class="cls-7" d="M127.11,37.92,64,145.67H78l63.1-107.75h0A8.13,8.13,0,0,0,127.11,37.92Z"/><path class="cls-8" d="M132.43,82.36l-7,12,54.64,93.33h0A8,8,0,0,0,187,175.56Z"/><path class="cls-9" d="M141.08,67.58l-7,12,63.28,108.09h0a8,8,0,0,0,6.95-12.11Z"/><path class="cls-10" d="M149.74,52.79l-7,12,71.93,122.86h0a8.07,8.07,0,0,0,7-12.14Z"/><path class="cls-11" d="M305,125.55l-3.69,18.94H285.72L301.85,70a10.66,10.66,0,0,1,10.42-8.4H323l16.11,82.87H323.47l-3.57-18.94ZM318.42,113l-2.7-17.33c-.86-5.05-2-13.41-2.7-18.82h-.37c-.86,5.53-2.09,14-2.95,18.82L306.62,113Z"/><path class="cls-12" d="M396.6,61.62v82.87H380.5V75.64H368.33V97.52c0,19.06-1.23,36.15-11.69,44.26a18,18,0,0,1-11.18,4.06L342,132.19a13.12,13.12,0,0,0,5.54-2.83c4.92-5,5.9-14.26,5.9-30.37V61.62Z"/><path class="cls-13" d="M426.83,61.62v31a35.16,35.16,0,0,1,6.52-.49c15.74,0,25.82,9.59,25.82,25.33,0,8.23-2.58,14.26-6.88,18.69-5.66,5.9-14.63,9-26.44,9a96.76,96.76,0,0,1-15-1V61.62Zm.13,70.32a13.24,13.24,0,0,0,3.07.25c8.24,0,12.42-6.27,12.42-13.77s-4.06-13.28-11.8-13.28a16.53,16.53,0,0,0-3.69.37Z"/><path class="cls-14" d="M505.63,58.67v6.27c14.87,2,26.19,13.64,26.19,37.5,0,25.33-11.44,36-26.19,38.24v6.76H491.37v-6.76c-15-2.22-26.19-12.91-26.19-38,0-24.22,13.4-35.78,26.19-37.74V58.67Zm-14.14,18c-4.92,1.47-10.21,8-10.21,26.31,0,17.21,5.17,24.84,10.21,25.94Zm14,52.25c5.29-1.23,10.21-7.74,10.21-26.43S510.05,77.6,505.5,76.62Z"/><path class="cls-15" d="M553.2,125.55l-3.69,18.94H533.89l18-82.87h19.31L585,133.06a9.6,9.6,0,0,1-9.43,11.43h-4l-3.56-18.94ZM566.6,113l-2.71-17.33c-.86-5.05-2-13.41-2.7-18.82h-.37c-.86,5.53-2.09,14-3,18.82L554.8,113Z"/><path class="cls-16" d="M299.85,168.37V173h-8.77v5.81a12.38,12.38,0,0,1,2.18-.21,8.77,8.77,0,0,1,6,2.1,8.15,8.15,0,0,1,2.68,6.39,8.83,8.83,0,0,1-2.31,6.3c-1.89,2-4.9,3-8.85,3a31.77,31.77,0,0,1-5-.33V168.37Zm-8.73,23.51a3.48,3.48,0,0,0,1.19.13,3.75,3.75,0,0,0,3-1.32,5.22,5.22,0,0,0,1-3.21,4.91,4.91,0,0,0-1.08-3.22,3.81,3.81,0,0,0-2.88-1.31,5.83,5.83,0,0,0-1.23.12Z"/><path class="cls-16" d="M310,168.37v6.13c0,5.11-.33,9.89-.54,12.77h.09c.78-2.39,2.18-6.05,3-8.15l4.08-10.75h4.9v27.76h-4.73v-6.26c0-5.56.2-9.68.36-12.48H317c-.66,2.47-1.89,5.8-2.8,8.15l-4.08,10.59h-5V168.37Z"/><path class="cls-16" d="M325,169.64a11.57,11.57,0,0,1,6.14-1.6c5.27,0,7.74,3.21,7.74,6.83a6.5,6.5,0,0,1-4.7,6.31v.08c3.26.62,5.48,3.13,5.48,7,0,5.31-4.53,8.24-9.47,8.24a12.35,12.35,0,0,1-5.65-1.24l.83-4.41a8.71,8.71,0,0,0,4.28,1.12c2.89,0,4.41-1.65,4.41-3.88,0-3.13-2.55-4.32-5.44-4.32h-.82v-4.12h.58c2.43,0,4.9-1.19,4.9-3.71,0-1.93-1.2-3.25-3.5-3.25a8.7,8.7,0,0,0-3.87,1.15Z"/><path class="cls-16" d="M348.35,168.37v11.12H354V168.37h5.39v27.76H354V184.51h-5.65v11.62H343V168.37Z"/><path class="cls-16" d="M375.87,183.94h-6.3v7.49h7.13v4.7H364.17V168.37h12.07v4.69h-6.67v6.39h6.3Z"/><path class="cls-16" d="M393.71,195.72a10.85,10.85,0,0,1-4.16.65c-7.12,0-10.5-5.8-10.5-13.71,0-10.46,5.81-14.54,11.2-14.54a7.43,7.43,0,0,1,3.75.74l-.91,4.53a5.36,5.36,0,0,0-2.51-.53c-3.05,0-5.8,2.63-5.8,9.51,0,6.63,2.51,9.23,5.8,9.23a9.37,9.37,0,0,0,2.6-.42Z"/><path class="cls-16" d="M406.24,173.35h-4.9v-5h15.24v5h-4.94v22.78h-5.4Z"/><path class="cls-16" d="M431.13,183.94h-6.3v7.49H432v4.7H419.43V168.37H431.5v4.69h-6.67v6.39h6.3Z"/><path class="cls-16" d="M444.6,196.13,442.87,191c-.53-1.61-1-3.17-1.48-4.94h-.12c-.46,1.77-.87,3.46-1.28,5l-1.48,5h-5.36l5.19-14.21-5-13.55H439l1.65,5.14c.41,1.45.82,2.89,1.23,4.45h.09c.45-1.69.82-3,1.19-4.53l1.4-5.06h5.4l-5.19,13.79,5.48,14Z"/><path class="cls-16" d="M457.83,168.37v11.12h5.65V168.37h5.39v27.76h-5.39V184.51h-5.65v11.62h-5.39V168.37Z"/><path class="cls-16" d="M490.05,181.75c0,10.46-3.71,14.71-9,14.71-6.3,0-8.77-6.68-8.77-14.3s3-14.12,9.18-14.12C488.16,168,490.05,175.41,490.05,181.75Zm-12.15.5c0,6.3,1.19,9.51,3.38,9.51s3.17-4.12,3.17-9.76c0-4.86-.74-9.27-3.22-9.27C479.09,172.73,477.9,176.27,477.9,182.25Z"/><path class="cls-16" d="M508.71,168.37v27.76h-5.39V173.06h-4.08v7.33c0,6.39-.41,12.11-3.91,14.83a6.08,6.08,0,0,1-3.75,1.36L490.43,192a4.47,4.47,0,0,0,1.85-.95c1.65-1.69,2-4.78,2-10.17V168.37Z"/><path class="cls-16" d="M529.89,181.75c0,10.46-3.7,14.71-9,14.71-6.3,0-8.77-6.68-8.77-14.3s3-14.12,9.19-14.12C528,168,529.89,175.41,529.89,181.75Zm-12.15.5c0,6.3,1.2,9.51,3.38,9.51s3.17-4.12,3.17-9.76c0-4.86-.74-9.27-3.21-9.27C518.94,172.73,517.74,176.27,517.74,182.25Z"/><path class="cls-16" d="M546.09,168.37v4.69h-7.37v23.07h-5.4V168.37Z"/><path class="cls-16" d="M553.76,168.37v6.13c0,5.11-.33,9.89-.54,12.77h.08c.79-2.39,2.19-6.05,3-8.15l4.08-10.75h4.9v27.76h-4.74v-6.26c0-5.56.21-9.68.37-12.48h-.08c-.66,2.47-1.89,5.8-2.8,8.15L554,196.13h-5V168.37Z"/><path class="cls-16" d="M574.89,168.37v6.13c0,5.11-.33,9.89-.53,12.77h.08c.78-2.39,2.18-6.05,3-8.15l4.07-10.75h4.91v27.76h-4.74v-6.26c0-5.56.2-9.68.37-12.48H582c-.66,2.47-1.9,5.8-2.8,8.15l-4.08,10.59h-5V168.37Z"/></g></g></svg>