<svg xmlns="http://www.w3.org/2000/svg" xmlns:xlink="http://www.w3.org/1999/xlink" viewBox="0 0 189.48 189.48"><defs><style>.cls-1{fill:url(#Безымянный_градиент_2);}.cls-2{fill:url(#Безымянный_градиент_3);}.cls-3{fill:url(#Безымянный_градиент_3-2);}.cls-4{fill:url(#Безымянный_градиент_3-3);}.cls-5{fill:url(#Безымянный_градиент_3-4);}.cls-6{fill:url(#Безымянный_градиент_3-5);}.cls-7{fill:url(#Безымянный_градиент_3-6);}.cls-8{fill:url(#Безымянный_градиент_3-7);}.cls-9{fill:url(#Безымянный_градиент_3-8);}.cls-10{fill:url(#Безымянный_градиент_3-9);}</style><linearGradient id="Безымянный_градиент_2" x1="142.12" y1="12.68" x2="47.36" y2="176.8" gradientUnits="userSpaceOnUse"><stop offset="0" stop-color="#f88d3d"/><stop offset="1" stop-color="#f3584c"/></linearGradient><linearGradient id="Безымянный_градиент_3" x1="21.28" y1="137.14" x2="135.96" y2="137.14" gradientUnits="userSpaceOnUse"><stop offset="0.73" stop-color="#fff"/><stop offset="1" stop-color="#bdbcbc"/></linearGradient><linearGradient id="Безымянный_градиент_3-2" x1="27.84" y1="125.86" x2="129.36" y2="125.86" xlink:href="#Безымянный_градиент_3"/><linearGradient id="Безымянный_градиент_3-3" x1="34.41" y1="114.58" x2="122.76" y2="114.58" xlink:href="#Безымянный_градиент_3"/><linearGradient id="Безымянный_градиент_3-4" x1="96.2" y1="14.31" x2="39.53" y2="112.47" xlink:href="#Безымянный_градиент_3"/><linearGradient id="Безымянный_градиент_3-5" x1="109.31" y1="36.71" x2="65.59" y2="112.43" xlink:href="#Безымянный_градиент_3"/><linearGradient id="Безымянный_градиент_3-6" x1="102.77" y1="25.5" x2="52.57" y2="112.45" xlink:href="#Безымянный_градиент_3"/><linearGradient id="Безымянный_градиент_3-7" x1="140.11" y1="140.28" x2="96.27" y2="64.35" xlink:href="#Безымянный_градиент_3"/><linearGradient id="Безымянный_градиент_3-8" x1="153.14" y1="140.29" x2="102.84" y2="53.17" xlink:href="#Безымянный_градиент_3"/><linearGradient id="Безымянный_градиент_3-9" x1="166.17" y1="140.31" x2="109.41" y2="41.99" xlink:href="#Безымянный_градиент_3"/></defs><g id="Слой_2" data-name="Слой 2"><g id="Слой_1-2" data-name="Слой 1"><circle class="cls-1" cx="94.74" cy="94.74" r="94.74"/><path class="cls-2" d="M136,141.72l-5.36-9.16H22.11a6.1,6.1,0,0,0,5.27,9.16Z"/><path class="cls-3" d="M129.36,130.43,124,121.28H28.68a6.09,6.09,0,0,0,5.26,9.15Z"/><path class="cls-4" d="M122.76,119.16,117.41,110H35.24a6.09,6.09,0,0,0,5.26,9.15Z"/><path class="cls-5" d="M89.44,17.47,35.26,110H45.87l54.19-92.53h0A6.16,6.16,0,0,0,89.44,17.47Z"/><path class="cls-6" d="M102.5,39.82,61.4,110H72l41.09-70.17h0A6.13,6.13,0,0,0,102.5,39.82Z"/><path class="cls-7" d="M96,28.64,48.34,110h10.6l47.65-81.37h0A6.14,6.14,0,0,0,96,28.64Z"/><path class="cls-8" d="M100,62.19l-5.3,9L136,141.72h0a6.08,6.08,0,0,0,5.25-9.15Z"/><path class="cls-9" d="M106.54,51l-5.3,9.05L149,141.72h0a6.08,6.08,0,0,0,5.24-9.15Z"/><path class="cls-10" d="M113.08,39.87l-5.31,9.06,54.32,92.78h0a6.08,6.08,0,0,0,5.25-9.16Z"/></g></g></svg>
