<svg xmlns="http://www.w3.org/2000/svg" xmlns:xlink="http://www.w3.org/1999/xlink" viewBox="0 0 115.18 44.27"><defs><style>.cls-1{fill:url(#Безымянный_градиент_9);}.cls-2{fill:url(#Безымянный_градиент_9-2);}.cls-3{fill:none;}.cls-4{isolation:isolate;}.cls-5{opacity:0.6;mix-blend-mode:multiply;}.cls-6{clip-path:url(#clip-path);}.cls-7{clip-path:url(#clip-path-2);}.cls-8{mask:url(#mask);}.cls-9{fill:url(#Безымянный_градиент_12);}.cls-10{clip-path:url(#clip-path-3);}.cls-11{clip-path:url(#clip-path-4);}.cls-12{mask:url(#mask-2);}.cls-13{fill:url(#Безымянный_градиент_12-2);}.cls-14{fill:#1a2d5d;}.cls-15{fill:#385ba0;}.cls-16{fill:#63b0d3;}</style><radialGradient id="Безымянный_градиент_9" cx="-750.95" cy="-2389.11" r="0.62" gradientTransform="matrix(0, 40.35, 40.35, 0, 96498.62, 30305.89)" gradientUnits="userSpaceOnUse"><stop offset="0"/><stop offset="0.37" stop-color="#020202"/><stop offset="0.5" stop-color="#090909"/><stop offset="0.6" stop-color="#151515"/><stop offset="0.68" stop-color="#262626"/><stop offset="0.74" stop-color="#3c3c3c"/><stop offset="0.8" stop-color="#575757"/><stop offset="0.86" stop-color="#787878"/><stop offset="0.91" stop-color="#9d9d9d"/><stop offset="0.95" stop-color="#c9c9c9"/><stop offset="0.99" stop-color="#f7f7f7"/><stop offset="1" stop-color="#fff"/></radialGradient><radialGradient id="Безымянный_градиент_9-2" cx="-867.08" cy="-2393.23" r="0.62" gradientTransform="matrix(0, -57.32, -57.32, 0, -137072.23, -49665.74)" xlink:href="#Безымянный_градиент_9"/><clipPath id="clip-path"><rect class="cls-3" x="89.7" y="4.68" width="17.36" height="23.69"/></clipPath><clipPath id="clip-path-2"><path class="cls-3" d="M107.06,20.32c0-7.55-6.84-15-10.78-15.64a10.65,10.65,0,0,1,.42,3.11c0,4.1-7,6.73-7,13.36,0,2,.66,5.5,2.74,7.21a6.13,6.13,0,0,1,11.87,0c.7-.58,2.75-3,2.75-8"/></clipPath><mask id="mask" x="89.28" y="4.37" width="18.19" height="24.29" maskUnits="userSpaceOnUse"><rect class="cls-1" x="89.49" y="4.53" width="17.77" height="23.99" transform="translate(-0.27 1.72) rotate(-1)"/></mask><radialGradient id="Безымянный_градиент_12" cx="-750.95" cy="-2389.11" r="0.62" gradientTransform="matrix(0, 40.35, 40.35, 0, 96498.63, 30305.9)" gradientUnits="userSpaceOnUse"><stop offset="0" stop-color="#1b1315"/><stop offset="1" stop-color="#1b1315"/></radialGradient><clipPath id="clip-path-3"><rect class="cls-3" x="89.7" y="4.68" width="17.36" height="23.69"/></clipPath><clipPath id="clip-path-4"><path class="cls-3" d="M107.06,20.32c0-7.55-6.84-15-10.79-15.64a10.32,10.32,0,0,1,.42,3.11c0,4.1-7,6.73-7,13.36,0,2,.67,5.5,2.74,7.21a6.13,6.13,0,0,1,11.87,0c.71-.58,2.76-3,2.76-8"/></clipPath><mask id="mask-2" x="83.31" y="0" width="30.12" height="33.04" maskUnits="userSpaceOnUse"><rect class="cls-2" x="86.72" y="2.72" width="23.31" height="27.61" transform="translate(-0.68 28.26) rotate(-16.29)"/></mask><radialGradient id="Безымянный_градиент_12-2" cx="-867.08" cy="-2393.23" r="0.62" gradientTransform="matrix(0, -57.32, -57.32, 0, -137072.24, -49665.74)" xlink:href="#Безымянный_градиент_12"/></defs><title>Ресурс 13</title><g class="cls-4"><g id="Слой_2" data-name="Слой 2"><g id="Слой_1-2" data-name="Слой 1"><g class="cls-5"><g class="cls-6"><g class="cls-7"><g class="cls-8"><rect class="cls-9" x="89.49" y="4.53" width="17.77" height="23.99" transform="translate(-0.27 1.72) rotate(-1)"/></g></g></g></g><g class="cls-5"><g class="cls-10"><g class="cls-11"><g class="cls-12"><rect class="cls-13" x="86.72" y="2.72" width="23.31" height="27.61" transform="translate(-0.68 28.26) rotate(-16.29)"/></g></g></g></g><polygon class="cls-14" points="4.05 30.6 6.46 41.09 6.5 41.09 8.86 30.6 12.88 30.6 12.88 43.92 10.29 43.92 10.29 32.78 10.28 32.78 7.78 43.92 5.05 43.92 2.62 32.78 2.59 32.78 2.59 43.92 0 43.92 0 30.6 4.05 30.6"/><path class="cls-14" d="M21.3,30.25c1.76,0,6.39.77,6.39,7s-4.63,7-6.39,7-6.39-.77-6.39-7,4.63-7,6.39-7m0,11.67c1.51,0,3.62-.94,3.62-4.66S22.81,32.6,21.3,32.6s-3.61.93-3.61,4.66,2.11,4.66,3.61,4.66"/><path class="cls-14" d="M38.31,35a2.75,2.75,0,0,0-3-2.36C34,32.6,32,33.55,32,37.31c0,2.39,1,4.61,3.36,4.61a2.9,2.9,0,0,0,3-2.57h2.77c-.55,2.9-2.44,4.92-5.78,4.92-3.54,0-6.07-2.41-6.07-7s2.68-7,6.11-7c4,0,5.6,2.75,5.74,4.71Z"/><path class="cls-14" d="M48.88,30.25c1.76,0,6.39.77,6.39,7s-4.63,7-6.39,7-6.39-.77-6.39-7,4.63-7,6.39-7m0,11.67c1.51,0,3.62-.94,3.62-4.66s-2.11-4.66-3.62-4.66-3.62.93-3.62,4.66,2.12,4.66,3.62,4.66"/><path class="cls-14" d="M67.07,30.6v2.29H60v2.75h3.47c2.56,0,4.55,1.56,4.55,4.2s-1.93,4.08-4.59,4.08h-6.2V30.6Zm-7,11h3.14a1.9,1.9,0,0,0,2.11-1.92c0-1.18-.87-1.77-2.11-1.77H60Z"/><polygon class="cls-14" points="91.45 30.6 91.45 32.89 85.64 32.89 85.64 43.92 82.87 43.92 82.87 30.6 91.45 30.6"/><path class="cls-14" d="M96.8,43.92,92.07,30.6H95l.94,2.75h4.9l.86-2.75h3L100,43.92Zm1.56-3h0l1.81-5.27H96.65Z"/><polygon class="cls-14" points="76.58 30.6 73.37 30.6 68.64 43.92 71.55 43.92 74.93 33.61 74.97 33.61 78.25 43.92 81.26 43.92 76.58 30.6"/><path class="cls-14" d="M104.41,34.56c.15-2.2,1.78-4.31,5.19-4.31,3.69,0,5.09,2,5.09,3.52a3,3,0,0,1-2.3,3.08,3.36,3.36,0,0,1,2.79,3.51c0,2-1.65,3.91-5.39,3.91-4.55,0-5.58-2.3-5.58-4.46h2.6c0,1.17.52,2.16,2.88,2.16,1.67,0,2.72-.73,2.72-1.91,0-1.34-1.1-2-2.44-2h-1.28V35.81h1.21c1.32,0,2.13-.64,2.13-1.73s-.9-1.54-2.37-1.54c-1.85,0-2.53.75-2.65,2Z"/><path class="cls-15" d="M107.06,20.32c0-7.55-6.84-15-10.78-15.64a10.32,10.32,0,0,1,.42,3.11c0,4.1-7,6.73-7,13.36,0,2,.66,5.5,2.74,7.21a6.13,6.13,0,0,1,11.87,0c.71-.58,2.75-3,2.75-8"/><path class="cls-16" d="M98.37,23.72a7.21,7.21,0,0,1,4.76,2.22,6.36,6.36,0,0,0-.3-8.75,6.89,6.89,0,0,0-1.55-1.12,11,11,0,0,1-2.93-2.36,6.18,6.18,0,0,1-2.71,2.23,13.61,13.61,0,0,0-1.76,1.29A6.35,6.35,0,0,0,93.65,26a7.23,7.23,0,0,1,4.72-2.25"/></g></g></g></svg>