<svg xmlns="http://www.w3.org/2000/svg" xmlns:xlink="http://www.w3.org/1999/xlink" viewBox="0 0 194.43 34.6"><defs><style>.cls-1{fill:none;}.cls-2,.cls-5{fill:#006469;}.cls-2,.cls-3{fill-rule:evenodd;}.cls-3{fill:#77787b;}.cls-4{clip-path:url(#clip-path);}</style><clipPath id="clip-path"><rect class="cls-1" width="194.43" height="34.6"/></clipPath></defs><title>Ресурс 4</title><g id="Слой_2" data-name="Слой 2"><g id="Слой_1-2" data-name="Слой 1"><path class="cls-2" d="M0,17.32A17.27,17.27,0,1,0,17.25,0,17.3,17.3,0,0,0,0,17.32m.35,0a16.92,16.92,0,1,1,16.9,16.93A17,17,0,0,1,.35,17.32Z"/><polyline class="cls-2" points="12.47 16.15 10.77 18.56 20.94 18.52 19.94 16.18 12.47 16.15"/><polyline class="cls-2" points="17.68 9.1 15.98 11.51 19.48 11.58 19.8 9.14 17.68 9.1"/><polyline class="cls-2" points="15.09 12.54 13.11 15.16 19.7 15.19 19.38 12.57 15.09 12.54"/><polyline class="cls-2" points="21.32 4.04 18.42 8.14 20.02 8.18 21.32 4.04"/><polyline class="cls-2" points="10.06 19.69 8.36 22.13 23.41 22.13 21.36 19.62 10.06 19.69"/><polyline class="cls-2" points="7.62 23.13 5.95 25.53 27.74 25.57 24.37 23.16 7.62 23.13"/><path class="cls-3" d="M105.56,19.09c-.88,3.29-3.12,6.3-6.45,6.3-3.68,0-3.68-4-2.9-7,.85-3.25,3.08-6.26,6.41-6.26,3.72,0,3.72,4,2.94,6.94m2.55-.64c1.06-4-.18-7.33-5-7.33s-8.29,3.61-9.42,7.93c-1.1,4.08.18,7.33,5,7.33S107,22.81,108.11,18.45Z"/><path class="cls-3" d="M113.57,13.42c.07-.35.21-.71.28-1.06a12.37,12.37,0,0,1,2.27-.18c4.11,0,5.63,2.48,4.6,6.41-1,3.76-3.19,6.62-7.3,6.62-2.51,0-2.94-.1-2.51-1.73l2.66-10.06m-4.64,9.63a6.82,6.82,0,0,1-1.28,3c1.63,0,3.19.1,5.53.1a10.3,10.3,0,0,0,10-7.93c1.1-4.07-.78-6.94-4.64-6.94-2.37,0-4.75.25-7.08.25a5.28,5.28,0,0,1-.29,3Z"/><path class="cls-3" d="M126.39,25.11h2.66a7.3,7.3,0,0,0,4.32-1.28l-1,2.09c-.64,0-1.42.11-2.23.11h-6.7a7.5,7.5,0,0,0,1.39-3l2.23-8.57a5.27,5.27,0,0,0,.28-3h8.08l-.39,1.73c-.6-.67-1.84-.85-3.19-.85h-2.16l-1.42,5.46c1.77,0,3.65,0,5.46-.14C132.62,19,130,19,128.59,19H128l-1.59,6.13"/><path class="cls-3" d="M140.49,13.42c.1-.35.21-.71.32-1.06a12.22,12.22,0,0,1,2.23-.18c4.14,0,5.63,2.48,4.6,6.41-1,3.76-3.18,6.62-7.29,6.62-2.52,0-2.95-.1-2.52-1.73l2.66-10.06m-4.61,9.63a7.24,7.24,0,0,1-1.31,3c1.63,0,3.23.1,5.56.1a10.37,10.37,0,0,0,10-7.93c1.06-4.07-.82-6.94-4.68-6.94-2.34,0-4.74.25-7.08.25a5.19,5.19,0,0,1-.29,3Z"/><path class="cls-3" d="M164.11,19.09c-.85,3.29-3.08,6.3-6.41,6.3-3.72,0-3.72-4-2.94-7,.89-3.25,3.12-6.26,6.45-6.26,3.72,0,3.68,4,2.9,6.94m2.59-.64c1.06-4-.21-7.33-5.07-7.33s-8.28,3.61-9.42,7.93c-1.06,4.08.18,7.33,5,7.33S165.53,22.81,166.7,18.45Z"/><g class="cls-4"><path class="cls-3" d="M169.43,26.13l0-1.16c-.14-3.65-.28-9.25-1-12.72l-.18-.74h2.06c.46,0,.42.5.46.85.28,3.54.67,7.05.71,10.62,0,.46.07.68.21.68s.35-.36.57-.71c1.2-2,5.73-8.5,6.3-10.63a2.12,2.12,0,0,0,.07-.81h2.87l-.6.71A128.34,128.34,0,0,0,172,24.9l-.78,1.23h-1.77"/><path class="cls-3" d="M191.5,19.09c-.85,3.29-3.09,6.3-6.42,6.3-3.71,0-3.71-4-2.9-7,.85-3.25,3.08-6.26,6.41-6.26,3.72,0,3.72,4,2.91,6.94m2.58-.64c1.06-4-.21-7.33-5-7.33s-8.32,3.61-9.46,7.93c-1.06,4.08.22,7.33,5.07,7.33S193,22.81,194.08,18.45Z"/></g><path class="cls-3" d="M46.65,10.8c.11-.46.25-.89.36-1.31a17.17,17.17,0,0,1,2.72-.21c5,0,6.84,3,5.57,7.75-1.17,4.54-3.87,8-8.82,8-3,0-3.58-.11-3-2.09L46.65,10.8M41.06,22.42A8.52,8.52,0,0,1,39.5,26c1.94,0,3.89.1,6.69.1a12.5,12.5,0,0,0,12.15-9.56c1.28-4.92-1-8.39-5.63-8.39-2.87,0-5.77.25-8.57.25.35,1,0,2.37-.36,3.61Z"/><path class="cls-3" d="M72.19,19.09c-.85,3.29-3.08,6.3-6.41,6.3-3.72,0-3.72-4-2.9-7,.85-3.25,3.08-6.26,6.41-6.26,3.72,0,3.68,4,2.9,6.94m2.59-.64c1.06-4-.21-7.33-5.07-7.33s-8.29,3.61-9.42,7.93c-1.06,4.08.18,7.33,5,7.33S73.61,22.81,74.78,18.45Z"/><path class="cls-3" d="M93.8,11.51a7.73,7.73,0,0,0-1.35,3.22c-.7,2.73-1.55,5.6-2,8.32a6.56,6.56,0,0,0-.07,3H87a15.33,15.33,0,0,0,1.49-4.11l2-7.54c0-.25.1-.53,0-.53s-.28.17-.39.35l-8.36,12L80.27,15.09c-.07-.68-.07-1.24-.29-1.24s-.31.42-.42.78l-2,7.4c-.46,1.77-.85,3.26-.54,4H74.28l.29-.28c1.2-1.21,2.23-4.82,2.87-7.3L79,12.78c.14-.63.21-.95-.25-1.27h2.87c.25,0,.6,0,.6.32l.82,10c0,.32,0,.71.17.71s.32-.21.57-.53l6.48-9.49c.36-.5.64-1,1.21-1H93.8"/><path class="cls-2" d="M2.06,17.32A15.21,15.21,0,1,1,17.25,32.55,15.25,15.25,0,0,1,2.06,17.32m-1.28,0A16.49,16.49,0,1,0,17.25.81,16.51,16.51,0,0,0,.78,17.32Z"/><path class="cls-5" d="M40.85,30.28a.81.81,0,0,0,0-.2.22.22,0,0,0-.11-.2h.81c.09,0,.18,0,.19.11l.34,3.06c0,.1,0,.23.06.23s.11-.08.17-.18l1.94-2.92c.1-.15.19-.3.37-.3h.76a2.71,2.71,0,0,0-.4,1c-.21.86-.47,1.74-.59,2.6a3.77,3.77,0,0,0-.05.57,1.08,1.08,0,0,0,.05.36H43.37a5.24,5.24,0,0,0,.44-1.28l.59-2.36a.26.26,0,0,0,0-.11s0-.05,0-.05-.08.05-.12.11l-2.53,3.76L41.26,31c0-.21-.06-.38-.11-.38s-.08.13-.11.24l-.58,2.31a4.12,4.12,0,0,0-.16,1,.75.75,0,0,0,0,.28H39.5a3,3,0,0,0,.65-1.37l.7-2.77"/><path class="cls-5" d="M52.5,32.86a3,3,0,0,1,2.91-3.09,1.61,1.61,0,0,1,1.75,1.67,3,3,0,0,1-2.91,3.09,1.61,1.61,0,0,1-1.75-1.67m4-1.44c0-.68-.32-1.34-1.11-1.34-1.32,0-2.15,1.51-2.15,2.8,0,.68.32,1.34,1.11,1.34C55.63,34.22,56.46,32.71,56.46,31.42Z"/><path class="cls-5" d="M64.24,33.53a1,1,0,0,0,1.08.72,1.16,1.16,0,0,0,1.2-1.12c0-.75-1.48-1.09-1.48-2s1-1.32,1.74-1.32c.37,0,.72,0,1.08,0l-.16.66a.85.85,0,0,0-.88-.42,1,1,0,0,0-1.09,1c0,.72,1.48,1,1.48,2s-1.14,1.52-1.9,1.52a3.16,3.16,0,0,1-1.26-.25l.19-.75"/><path class="cls-5" d="M79,30.72h0c-.09-.3-.25-.64-1-.64-1.32,0-2.13,1.39-2.13,2.6A1.21,1.21,0,0,0,77.2,34a2.13,2.13,0,0,0,1.36-.51l0,0a1.78,1.78,0,0,1-3.37-.83,2.92,2.92,0,0,1,2.92-2.94c.41,0,.69.06,1.17.06l-.26.89"/><path class="cls-5" d="M86.28,32.86a3,3,0,0,1,2.9-3.09,1.61,1.61,0,0,1,1.75,1.67A3,3,0,0,1,88,34.53a1.6,1.6,0,0,1-1.74-1.67m4-1.44c0-.68-.32-1.34-1.11-1.34-1.32,0-2.15,1.51-2.15,2.8,0,.68.32,1.34,1.11,1.34C89.4,34.22,90.23,32.71,90.23,31.42Z"/><path class="cls-5" d="M98.63,34.45l.07-.78c0-.57.14-1.82.14-2.73a5.87,5.87,0,0,0,0-.84,1.09,1.09,0,0,0,0-.22h.58c.15,0,.16.15.16.28a23.54,23.54,0,0,1-.2,3.29c0,.14,0,.2,0,.2s.12-.07.18-.18l1.26-2.26a3.86,3.86,0,0,0,.35-.88.81.81,0,0,0,0-.19.43.43,0,0,0-.1-.26h1.22a.85.85,0,0,0-.26.42,3.42,3.42,0,0,0,0,.78l0,2.4c0,.1,0,.17,0,.17s.08-.07.12-.17l.94-1.88a4.48,4.48,0,0,0,.57-1.56.2.2,0,0,0-.06-.16h.93a3.65,3.65,0,0,0-.83,1.18L102,34.45h-.6c0-.58,0-1.15,0-1.74l-.07-1.45c0-.2,0-.35,0-.35s-.15.15-.25.35l-1.23,2.18c-.2.34-.38.67-.56,1h-.6"/><path class="cls-5" d="M123.1,34.42l-.29-2h-1.63a7.06,7.06,0,0,0-1.05,1.72,2.51,2.51,0,0,0,0,.27h-.89l.21-.2a26.57,26.57,0,0,0,2.9-4.14l0-.2h.84a20.72,20.72,0,0,0,.56,4.28l.07.26h-.73m-.46-3.87c0-.05,0-.17-.06-.17s-.15.14-.17.17l-1,1.59h1.38Z"/><path class="cls-5" d="M132.38,30.82a2.94,2.94,0,0,0,.12-.7.61.61,0,0,0,0-.24h1a2.2,2.2,0,0,0-.4.94l-.66,2.67a2.79,2.79,0,0,0-.12.67.75.75,0,0,0,0,.26h-1a2.15,2.15,0,0,0,.39-.93l.66-2.67"/><path class="cls-5" d="M143.34,33.76a2.57,2.57,0,0,0,.43.66h-.49c-.31,0-.41-.17-.51-.39l-.55-1.24c-.2-.42-.22-.58-.65-.58l-.32,1.28a2.75,2.75,0,0,0-.11.67.75.75,0,0,0,0,.26h-1a2,2,0,0,0,.43-1l.66-2.62a2.91,2.91,0,0,0,.11-.7.61.61,0,0,0,0-.24c.59,0,1.26-.07,1.66-.07.6,0,.94.3.94.84,0,.78-.81,1.27-1.42,1.42l.8,1.69m-1.7-1.83a1.62,1.62,0,0,0,.31,0,1.27,1.27,0,0,0,1.38-1.28c0-.43-.36-.57-.88-.57h-.34l-.1.34Z"/><path class="cls-5" d="M152.19,30.82a2.94,2.94,0,0,0,.12-.7.64.64,0,0,0,0-.24c.57,0,1.06-.07,1.61-.07a1,1,0,0,1,1.08,1,1.62,1.62,0,0,1-1.69,1.64.75.75,0,0,1-.58-.16,1.43,1.43,0,0,0,1.59-1.46.65.65,0,0,0-.7-.71H153l-.85,3.39a3,3,0,0,0-.09.62.75.75,0,0,0,.05.31h-1a2.27,2.27,0,0,0,.38-.93l.67-2.67"/><path class="cls-5" d="M162.15,32.86a3,3,0,0,1,2.91-3.09,1.61,1.61,0,0,1,1.75,1.67,3,3,0,0,1-2.91,3.09,1.61,1.61,0,0,1-1.75-1.67m3.95-1.44c0-.68-.32-1.34-1.11-1.34-1.31,0-2.14,1.51-2.14,2.8,0,.68.32,1.34,1.11,1.34C165.28,34.22,166.1,32.71,166.1,31.42Z"/><path class="cls-5" d="M177,33.76a2.57,2.57,0,0,0,.43.66h-.49c-.31,0-.41-.17-.51-.39l-.55-1.24c-.2-.42-.22-.58-.65-.58l-.32,1.28a2.75,2.75,0,0,0-.11.67.75.75,0,0,0,0,.26h-1a2.12,2.12,0,0,0,.44-1l.65-2.62a2.91,2.91,0,0,0,.11-.7.61.61,0,0,0,0-.24c.59,0,1.26-.07,1.66-.07.6,0,.94.3.94.84,0,.78-.8,1.27-1.42,1.42l.8,1.69m-1.7-1.83a1.62,1.62,0,0,0,.31,0A1.26,1.26,0,0,0,177,30.67c0-.43-.35-.57-.88-.57h-.33a3.37,3.37,0,0,0-.1.34Z"/><path class="cls-5" d="M185.57,34.42a2.13,2.13,0,0,0,.38-.93l.81-3.25h-1a.86.86,0,0,0-.54.16l.27-.52h3.57a1.1,1.1,0,0,1-.94.36h-.71l-.81,3.25a3.34,3.34,0,0,0-.11.67.75.75,0,0,0,0,.26h-1"/></g></g></svg>