<svg xmlns="http://www.w3.org/2000/svg" viewBox="0 0 146.51 24.34"><defs><style>.cls-1{fill:#f52724;}.cls-1,.cls-2{fill-rule:evenodd;}.cls-2{fill:#382b9a;}</style></defs><title>Ресурс 10</title><g id="Слой_2" data-name="Слой 2"><g id="Слой_1-2" data-name="Слой 1"><polygon class="cls-1" points="16.8 17.52 19.11 18.33 21.33 11.11 16.8 17.52"/><polygon class="cls-1" points="13.38 16.33 13.69 16.43 24.33 1.37 24.63 0.39 13.38 16.33"/><polygon class="cls-1" points="14.38 16.68 15.11 16.93 22.96 5.8 23.67 3.52 14.38 16.68"/><polygon class="cls-1" points="15.57 17.09 16.48 17.42 21.63 10.13 22.51 7.26 15.57 17.09"/><polygon class="cls-2" points="12.11 16.35 12.55 16.28 24.05 0 23.21 0.64 12.11 16.35"/><polygon class="cls-2" points="10.12 16.68 11.15 16.51 21.36 2.06 19.38 3.56 10.12 16.68"/><polygon class="cls-2" points="8.17 17 9.46 16.79 18.13 4.51 15.65 6.4 8.17 17"/><polygon class="cls-2" points="0 18.33 7.73 17.07 14.81 7.04 0 18.33"/><path class="cls-2" d="M132,7.49a4,4,0,0,1-.1,3.36h-3.79c.36-.73.48-1.63-.23-1.63H126l-.51,1.63H120l1.58-5h8.08A2.71,2.71,0,0,1,132,7.49"/><path class="cls-2" d="M131.4,11.92a4.23,4.23,0,0,1-3.49,1.68h-3.29l-1.18,3.74h-5.52l1.71-5.42Z"/><polygon class="cls-2" points="103.83 5.83 104.38 10.85 95.18 10.85 98.75 5.83 103.83 5.83"/><polygon class="cls-2" points="104.5 11.93 105.1 17.34 100.39 17.34 100.17 15.45 96.29 15.45 94.94 17.34 90.56 17.34 94.41 11.93 98.79 11.93 98.19 12.77 99.87 12.77 99.78 11.93 104.5 11.93"/><path class="cls-2" d="M34,11.92h0l-1.7,5.42H26.73l1.7-5.42ZM27.52,5.83H38.69L37.62,9.25H34.79l-.5,1.6H28.77l.5-1.6H26.45Z"/><path class="cls-2" d="M118.36,10.85h-9.82l.19-.59h3.76c-.21-.5-2.66-1-4.15-.49l1.26-4c4-1.24,10.83-1.15,8.76,5.08"/><path class="cls-2" d="M117.93,11.92c-2.17,6.3-8,6.69-11.79,4.85l1.21-3.85c1.16.5,4.34.52,4.5-.43H108l.18-.57Z"/><path class="cls-2" d="M93,6,91.85,9.76c-1.95-.42-4.89-.28-5.94,1.09H80.75a9,9,0,0,1,3-3.91C85.83,5.24,90.66,4.62,93,6"/><path class="cls-2" d="M85.49,11.92a1,1,0,0,0,.78,1.2,9.19,9.19,0,0,0,4.59-.19l-1.22,3.86c-1.56.56-5.85,2.06-8.18-.42a4.45,4.45,0,0,1-1.06-4.45Z"/><polygon class="cls-2" points="80.94 5.83 79.36 10.85 66.12 10.85 67.7 5.83 73.22 5.83 71.84 10.23 74.03 10.23 75.42 5.83 80.94 5.83"/><polygon class="cls-2" points="79.02 11.93 77.32 17.34 71.81 17.32 73.31 12.53 71.11 12.53 69.6 17.34 64.08 17.34 65.78 11.93 79.02 11.93"/><polygon class="cls-2" points="62.15 5.83 62.7 10.85 53.5 10.85 57.07 5.83 62.15 5.83"/><polygon class="cls-2" points="62.82 11.93 63.42 17.34 58.71 17.34 58.49 15.45 54.61 15.45 53.26 17.34 48.88 17.34 52.74 11.93 57.12 11.93 56.51 12.77 58.2 12.77 58.1 11.93 62.82 11.93"/><path class="cls-2" d="M51,7.49a4,4,0,0,1-.11,3.36H47.05c.36-.73.48-1.63-.23-1.63H45l-.51,1.63H38.94l1.57-5h8.08A2.74,2.74,0,0,1,51,7.49"/><path class="cls-2" d="M50.37,11.92a4.23,4.23,0,0,1-3.49,1.68H43.59l-1.17,3.74H36.89l1.71-5.42Z"/><path class="cls-2" d="M133.22,10.85h0a9.7,9.7,0,0,1,8.37-5.68c3.41,0,5.45,2.5,4.8,5.68h-4.63a1.42,1.42,0,0,0-1.54-1.32,3.05,3.05,0,0,0-2.38,1.32Zm4.37,7c-3.52,0-5.57-2.64-4.74-6h4.57a1.41,1.41,0,0,0,1.54,1.6,3,3,0,0,0,2.54-1.6h4.57a9.67,9.67,0,0,1-8.48,6"/><path class="cls-2" d="M89.67,23.69h0c0,.16-.06.39.17.42a2.66,2.66,0,0,0,.89,0,1.44,1.44,0,0,0,.91-.92.65.65,0,0,0-.46-.89,2,2,0,0,0-.54-.08h-.38a.32.32,0,0,0-.24.21Zm.86-2.78h0l-.3,1c0,.14,0,.24.12.24h.53a1,1,0,0,0,.47-.12A1.21,1.21,0,0,0,92,21.3a.87.87,0,0,0,0-.48c-.09-.3-.58-.38-.83-.38s-.45,0-.53.18a1.36,1.36,0,0,0-.11.29m.88,1.24c.6.1,1,.51.79,1.11a1.78,1.78,0,0,1-1.64,1h-.51c-.41,0-.82,0-1.23,0-.11,0-.22,0-.34,0s-.12,0-.11-.08.35-.07.44-.09a.25.25,0,0,0,.12-.07.8.8,0,0,0,.18-.29L90,20.83c.07-.19,0-.31-.16-.31h-.18c-.1,0-.2,0-.19,0s.18-.1.43-.14a6.85,6.85,0,0,1,.94,0h.51c.39,0,1,.08,1.2.46a.74.74,0,0,1-.17.85,1.81,1.81,0,0,1-1,.52"/><path class="cls-2" d="M118.31,21c.09-.29.06-.28-.23-.31-.1,0-.13-.06-.09-.13s.1-.08.18-.08.2,0,.31,0H122c.11,0,.15,0,.14.1a.17.17,0,0,1-.14.1.74.74,0,0,0-.39.08.43.43,0,0,0-.15.24l-.87,2.77c0,.15-.06.32.14.34l.2,0s.09,0,.09.08-.09.07-.2.07-.37,0-.63,0-.43,0-.64,0-.2,0-.18-.07.06-.07.14-.08l.22,0c.21,0,.3-.21.35-.39l.94-3h-2.09l-.93,3c-.06.19-.08.35,0,.37s.21,0,.3,0,.11,0,.09.1a.18.18,0,0,1-.17.07c-.21,0-.43,0-.65,0s-.43,0-.71,0c-.07,0-.13,0-.13-.07s0-.09.14-.1h.26c.15,0,.27-.2.31-.32Z"/><path class="cls-2" d="M138.66,20.92h0l-.39,1.29c0,.07-.1.1-.21.1a1.35,1.35,0,0,1-.69-.12.45.45,0,0,1-.23-.33,1,1,0,0,1,0-.44,1,1,0,0,1,.41-.61,1.3,1.3,0,0,1,.76-.27.78.78,0,0,1,.3,0c.13.06.06.23,0,.34m-1.34,1.42a.67.67,0,0,0-.35.25l-1.12,1.28a.56.56,0,0,1-.47.26c-.1,0-.18,0-.19.09s0,.06.11.06H136c.14,0,.28-.25.35-.33l1.15-1.38a.56.56,0,0,1,.47-.18h.15c.12,0,.1.09.08.18l-.41,1.29a.41.41,0,0,1-.17.22c-.1.06-.24,0-.36,0s-.13,0-.14.1,0,.06.12.06.45-.05.67-.05.46.05.68.05.14,0,.15-.05,0-.09-.09-.09h-.11c-.2,0-.29-.13-.22-.33l.9-2.89c.1-.31.18-.32.46-.32h.16s.08,0,.09-.06,0-.05-.09-.06h-1.48a2.65,2.65,0,0,0-.89.11,1.43,1.43,0,0,0-.82.83.63.63,0,0,0,.11.6.82.82,0,0,0,.59.33"/><path class="cls-2" d="M127.1,20.88c.06-.2,0-.25-.23-.26s-.25,0-.23-.08.2-.06.26-.06h1.23c.13,0,.19,0,.17.06s-.13.06-.21.06a.75.75,0,0,0-.29.06.53.53,0,0,0-.19.26l-.32,1c0,.14-.07.23.09.23h1.84c.16,0,.15-.1.19-.23l.36-1c0-.1,0-.18,0-.2a.62.62,0,0,0-.27-.05c-.12,0-.17,0-.16-.07s.09-.06.22-.06h1.29c.12,0,.12,0,.12.06s0,.06-.11.06l-.23,0a.3.3,0,0,0-.31.25l-.94,2.92c-.07.21,0,.28.2.3l.19,0c.06,0,.09,0,.08.06s-.09.08-.23.08-.41-.06-.62-.06-.46.06-.68.06-.18,0-.16-.07.07-.06.15-.07a1.17,1.17,0,0,0,.22,0c.21,0,.29-.16.35-.34l.42-1.32c0-.12,0-.15-.15-.15h-1.74c-.17,0-.21,0-.25.18l-.43,1.3c0,.16,0,.29,0,.32a.63.63,0,0,0,.2,0s.21,0,.18.07,0,.08-.15.08-.47-.06-.7-.06-.46.06-.68.06-.15,0-.14-.08.08-.07.18-.07a1.27,1.27,0,0,0,.28,0,.57.57,0,0,0,.24-.27Z"/><path class="cls-2" d="M94.16,20.91c.06-.19,0-.26-.13-.3s-.28,0-.23-.13.09-.06.24-.06l.5,0h.7c.13,0,.2,0,.19.07s-.14.1-.24.1a.51.51,0,0,0-.51.3l-.92,2.86L97,20.7c-.06-.06-.26-.07-.33-.08s-.19-.05-.17-.12.09-.06.21-.06h1.37c.11,0,.16,0,.16.06s-.07.1-.14.11h-.22a.38.38,0,0,0-.37.29l-.92,2.92a.28.28,0,0,0,0,.24c.09.1.26.07.38.09s.1,0,.09.07-.09.08-.21.08-.45-.06-.68-.06-.47.06-.7.06-.19,0-.18-.08a.18.18,0,0,1,.15-.07A.65.65,0,0,0,95.9,24a.83.83,0,0,0,.14-.26L97,20.91,93.76,24c-.07.06-.07.13,0,.15a1.05,1.05,0,0,0,.2,0c.06,0,.27-.05.22.07s-.06.08-.16.08-.47-.06-.7-.06-.42.06-.62.06-.15,0-.13-.08.07-.09.18-.09c.28,0,.35-.06.43-.31Z"/><path class="cls-2" d="M99.52,22.71h.83s.07,0,.07,0,0-.1,0-.25l-.08-.95q0-.21-.06-.21s-.08.06-.16.18l-.7,1a1.16,1.16,0,0,0-.12.2s0,0,.06,0h.17m-.26.18c-.06,0-.1,0-.12,0s-.07.1-.16.21l-.42.57a1,1,0,0,0-.12.2c0,.12,0,.19.17.23s.2,0,.3,0a0,0,0,0,1,0,.06s-.07.07-.19.07-.33,0-.49,0-.42,0-.64,0-.13,0-.12-.06a.21.21,0,0,1,.21-.09.55.55,0,0,0,.28-.06.9.9,0,0,0,.3-.3l2.31-3.33c.07-.09.1-.13.12-.13s.07,0,.07,0,0,.06,0,.12l.33,3.33c0,.15,0,.25.11.28a.44.44,0,0,0,.23.06c.09,0,.13.05.12.09s-.06.05-.14.05H100c-.07,0-.08,0-.07-.08a.07.07,0,0,1,.07-.06,1.27,1.27,0,0,0,.44,0,.21.21,0,0,0,.11-.13.67.67,0,0,0,0-.28l-.06-.65a.34.34,0,0,0,0-.13s-.06,0-.13,0Z"/><path class="cls-2" d="M103.52,20.91c0-.12,0-.21,0-.25s-.24,0-.36-.05-.09-.05-.08-.1.06-.06.16-.06h1.4c.07,0,.13,0,.11.09a.09.09,0,0,1-.08.07c-.15,0-.28,0-.44.05a.38.38,0,0,0-.16.23l-.41,1.35a.49.49,0,0,0,0,.12l.15-.09L105.4,21a.79.79,0,0,0,.27-.29s0-.08,0-.09-.07,0-.15,0-.14,0-.13-.09.06-.09.13-.09h1.24c.09,0,.11,0,.11.08a.09.09,0,0,1-.08.08,3,3,0,0,0-.43,0,1.74,1.74,0,0,0-.64.34l-1.07.8a.46.46,0,0,0-.16.16.59.59,0,0,0,0,.14l.88,1.74a.52.52,0,0,0,.47.33s.1,0,.09.06-.09.08-.2.08-.47-.05-.71-.05-.49.05-.73.05c-.06,0-.09,0-.07-.06s0-.06.06-.06a2.65,2.65,0,0,0,.38-.05c.15-.05.15-.19.09-.31l-.62-1.28a1.65,1.65,0,0,0-.11-.19s0-.06-.09,0l-.38.29,0,0,0,.07-.36,1.16c0,.13,0,.2.08.25s.22,0,.33,0,.05,0,0,.06-.09.08-.21.08-.44-.05-.66-.05-.42.05-.62.05-.16,0-.15-.08.15-.07.21-.07a.54.54,0,0,0,.31-.06.42.42,0,0,0,.14-.24Z"/><path class="cls-2" d="M107.27,23.11h0a1.1,1.1,0,0,0,1.17,1.05,2.27,2.27,0,0,0,1.78-1.06,2.51,2.51,0,0,0,.46-1.81,1.07,1.07,0,0,0-1.12-.82,2.25,2.25,0,0,0-1.8,1,2.9,2.9,0,0,0-.49,1.61m0-1.66a3.3,3.3,0,0,1,2.36-1.18,1.51,1.51,0,0,1,1.63,1.18,2.44,2.44,0,0,1-.53,1.72,3,3,0,0,1-2.34,1.17,1.61,1.61,0,0,1-1.64-1.15,2.23,2.23,0,0,1,.52-1.74"/><path class="cls-2" d="M113.81,23.43l2-2.69a1.5,1.5,0,0,1,.2-.24.22.22,0,0,1,.16-.05h.68c.06,0,.19,0,.17.08s-.15.07-.21.07a.35.35,0,0,0-.38.25l-.91,2.92a.39.39,0,0,0,0,.24c.06.13.14.12.28.12s.13,0,.12.07-.08.08-.17.08-.46-.05-.69-.05-.41.05-.61.05-.16,0-.15-.08.07-.07.19-.07a.63.63,0,0,0,.32-.08.53.53,0,0,0,.22-.31l.89-2.92h-.06L113.56,24c-.11.17-.22.28-.24,0l-.22-3.1h0l-1,2.68c-.07.18-.13.48.13.53l.21,0s.06,0,0,.09-.06.06-.15.06-.4-.05-.61-.05-.33.05-.5.05-.1,0-.09-.05.08-.08.2-.09a.47.47,0,0,0,.47-.33l1.12-3c.07-.19-.09-.23-.24-.23s-.17,0-.16-.07.14-.08.2-.08h.7c.15,0,.14.18.15.29Z"/><path class="cls-2" d="M86.12,22.7H87s.08,0,.08,0,0-.09,0-.24l-.07-1c0-.13,0-.21-.06-.21s-.09.06-.17.18l-.7,1c-.05.07-.09.15-.12.2a.07.07,0,0,0,.06,0h.17m-.26.18a.17.17,0,0,0-.12,0,1.92,1.92,0,0,1-.15.21l-.42.58a.52.52,0,0,0-.12.19c0,.12,0,.19.16.23s.21,0,.3,0a.05.05,0,0,1,0,.06c0,.05-.08.08-.2.08s-.32-.05-.49-.05-.42.05-.63.05-.14,0-.12-.06.13-.09.21-.09a.6.6,0,0,0,.27-.06,1.09,1.09,0,0,0,.31-.31l2.31-3.32c.06-.09.09-.14.12-.14s.06,0,.06,0a1,1,0,0,0,0,.12l.33,3.33c0,.15,0,.25.1.29a.77.77,0,0,0,.23.06c.09,0,.13,0,.12.09s-.06,0-.13,0h-1.5c-.08,0-.09,0-.08-.08a.08.08,0,0,1,.08-.05,1.6,1.6,0,0,0,.44,0,.21.21,0,0,0,.1-.14.63.63,0,0,0,0-.27l-.06-.65a.39.39,0,0,0,0-.14.25.25,0,0,0-.14,0Z"/><path class="cls-2" d="M123.36,22.71h.83s.08,0,.08,0,0-.1,0-.25l-.07-.95q0-.21-.06-.21s-.09.06-.17.18l-.69,1a1.32,1.32,0,0,0-.13.2.07.07,0,0,0,.06,0h.17m-.26.18c-.06,0-.09,0-.12,0s-.06.1-.15.21l-.42.57a.7.7,0,0,0-.12.2c0,.12,0,.19.16.23s.21,0,.31,0a.06.06,0,0,1,0,.06s-.08.07-.2.07-.32,0-.49,0-.42,0-.63,0-.14,0-.12-.06.13-.09.21-.09a.49.49,0,0,0,.27-.06.83.83,0,0,0,.31-.3l2.31-3.33c.06-.09.09-.13.12-.13s.06,0,.06,0a1,1,0,0,0,0,.12L125,23.8c0,.15,0,.25.1.28a.44.44,0,0,0,.23.06c.09,0,.13.05.12.09s-.06.05-.13.05h-1.5c-.08,0-.08,0-.08-.08a.08.08,0,0,1,.08-.06,1.29,1.29,0,0,0,.44,0,.17.17,0,0,0,.1-.13.67.67,0,0,0,0-.28l-.06-.65a.39.39,0,0,0,0-.13s-.06,0-.14,0Z"/><path class="cls-2" d="M132,20.91c.06-.19,0-.26-.14-.3s-.28,0-.22-.13.09-.06.24-.06l.5,0H133c.14,0,.21,0,.2.07s-.14.1-.24.1a.52.52,0,0,0-.52.3l-.92,2.86,3.24-3.07a.84.84,0,0,0-.34-.08c-.12,0-.18-.05-.16-.12s.09-.06.21-.06h1.36c.12,0,.17,0,.17.06s-.07.1-.14.11h-.23a.36.36,0,0,0-.36.29l-.92,2.92a.25.25,0,0,0,0,.24c.08.1.26.07.37.09s.1,0,.1.07-.1.08-.21.08-.46-.06-.69-.06-.46.06-.69.06-.2,0-.18-.08.09-.07.15-.07a.65.65,0,0,0,.47-.12.86.86,0,0,0,.13-.26c0-.1.92-2.87.92-2.87L131.56,24c-.06.06-.07.13.05.15a.9.9,0,0,0,.19,0c.07,0,.28-.05.23.07s-.06.08-.17.08-.46-.06-.69-.06-.42.06-.62.06-.15,0-.14-.08.08-.09.18-.09c.28,0,.36-.06.44-.31Z"/></g></g></svg>