<svg xmlns="http://www.w3.org/2000/svg" viewBox="0 0 123.44 92.7"><defs><style>.cls-1{fill:#661d03;}.cls-2{fill:#cb965e;}.cls-3{fill:#ff5b38;}</style></defs><title>Ресурс 9</title><g id="Слой_2" data-name="Слой 2"><g id="Слой_1-2" data-name="Слой 1"><path class="cls-1" d="M97.18,58.39V47.57h3.63v5a4.76,4.76,0,0,1-.08.78h.16l4-5.82h3.47V58.39h-3.63V53.31a3.51,3.51,0,0,1,.08-.71h-.16l-3.95,5.79Z"/><path class="cls-1" d="M89.66,47.29a5.7,5.7,0,1,1-6,5.71,5.72,5.72,0,0,1,6-5.71m0,8a2.33,2.33,0,0,0,0-4.66,2.33,2.33,0,0,0,0,4.66"/><path class="cls-1" d="M17.75,60.26a5.7,5.7,0,1,1,0,11.39,5.7,5.7,0,1,1,0-11.39m0,9.4a3.71,3.71,0,0,0,0-7.42,3.71,3.71,0,0,0,0,7.42"/><path class="cls-1" d="M71.64,66.66c0-.22,0-.45,0-.67,0-3.29-1.7-5.73-5.26-5.73-3.05,0-5.25,2.44-5.25,5.73,0,.22,0,.45,0,.67h0c.25,2.82,2,5,5.84,5a7.05,7.05,0,0,0,4.49-1.47l-.85-1.55a6.07,6.07,0,0,1-3.58,1.2,3.33,3.33,0,0,1-3.71-3.17h8.25Zm-5.12-4.6A3,3,0,0,1,69.66,65H63.42a3.23,3.23,0,0,1,3.1-2.92"/><polygon class="cls-1" points="81.11 60.55 81.11 64.98 75.31 64.98 75.31 60.55 73.17 60.55 73.17 71.36 75.31 71.36 75.31 66.65 81.11 66.65 81.11 71.36 83.26 71.36 83.26 60.55 81.11 60.55"/><polygon class="cls-1" points="94.6 60.55 84.74 60.55 84.74 62.47 88.59 62.47 88.59 71.36 90.75 71.36 90.75 62.47 94.6 62.47 94.6 60.55"/><rect class="cls-1" x="106.15" y="60.55" width="2.15" height="10.81"/><path class="cls-1" d="M29.75,65.67v-.09a1,1,0,0,0,.38-.27l4.12-4.76H31.84L28,65h-.86V60.55H25V71.36h2.15V66.65h1l4.09,4.71h2.68L30.14,66a1,1,0,0,0-.39-.29"/><path class="cls-1" d="M99.9,63.85a9.33,9.33,0,0,0-1.66.13V60.55H96.09V71.36s1.76.18,3.59.18c3.39,0,4.5-2.06,4.5-4s-1-3.73-4.28-3.73m-.38,5.88c-.67,0-1.28,0-1.28,0v-3.9a5.79,5.79,0,0,1,1.3-.12c1.8,0,2.6.69,2.6,2s-.72,2.08-2.62,2.08"/><path class="cls-1" d="M8.43,60.55l0,1.36H8.24a4.07,4.07,0,0,0-3.13-1.65C2,60.26.08,62.7,0,66s1.83,5.66,5,5.66a3.75,3.75,0,0,0,3.23-1.46h.14v1a2.77,2.77,0,0,1-3.09,2.92,6.59,6.59,0,0,1-3.4-1l-.7,1.79A8,8,0,0,0,5.26,76a4.87,4.87,0,0,0,5.24-5.27V60.55ZM5.36,69.66C3.19,69.66,2,68.07,2.09,66s1.27-3.75,3.44-3.75a3,3,0,0,1,2.82,3.08v3a3.75,3.75,0,0,1-3,1.36"/><path class="cls-1" d="M43.47,60.55v7.84a3.51,3.51,0,0,1-2.82,1.27c-2,0-2.89-1.59-2.84-3.68V60.55H35.73V66c-.08,3.25,1.22,5.67,4.37,5.67a3.71,3.71,0,0,0,3.23-1.46h.14v1a2.77,2.77,0,0,1-3.09,2.92,6.59,6.59,0,0,1-3.4-1l-.7,1.79A8.07,8.07,0,0,0,40.38,76a4.87,4.87,0,0,0,5.24-5.27V60.55Z"/><path class="cls-1" d="M57.65,60.55,54,65.7a.94.94,0,0,0-.13.29h-.08a1.27,1.27,0,0,0-.16-.29l-3.94-5.15h-2V71.36H49.8V64.47a2.47,2.47,0,0,0-.1-.76h.1l4,5.32h.09l3.67-5.32h.1a2.51,2.51,0,0,0-.1.75v6.9h2.15V60.55Z"/><path class="cls-1" d="M79.31,47.57l-3.15,4.09A.67.67,0,0,0,76,52h-.16a1,1,0,0,0-.17-.29l-3.35-4.09H69.45V58.39H73V53.85a3.37,3.37,0,0,0-.08-.79H73l2.81,3.23H76l2.61-3.23h.16a3.27,3.27,0,0,0-.08.79v4.54h3.5V47.57Z"/><path class="cls-2" d="M101.82,26.11v-11H93.17v11a10.81,10.81,0,0,0,5.41,9.37l9.73,5.62v-10L102.9,28a2.15,2.15,0,0,1-1.08-1.87"/><path class="cls-3" d="M108.31,36.76,118,31.14a10.81,10.81,0,0,0,5.4-9.36V0H108.31V8.65h6.48V21.79a2.16,2.16,0,0,1-1.08,1.87l-5.4,3.12Z"/><polygon class="cls-1" points="108.31 0 93.17 15.14 108.31 15.14 108.31 0"/><polygon class="cls-3" points="27.88 88.19 27.94 87.5 27.9 87.5 27.58 88.26 26.03 90.83 25.6 90.83 25.6 86.25 26.26 86.25 26.26 88.97 26.21 89.64 26.25 89.64 26.55 88.89 28.11 86.25 28.54 86.25 28.54 90.83 27.88 90.83 27.88 88.19"/><polygon class="cls-3" points="34.97 88.11 35.03 87.24 34.99 87.24 34.72 88.02 33.87 89.77 33.63 89.77 32.74 88.02 32.5 87.24 32.45 87.24 32.52 88.1 32.52 90.83 31.93 90.83 31.93 86.25 32.59 86.25 33.58 88.23 33.79 88.83 33.8 88.83 34.02 88.22 34.95 86.25 35.63 86.25 35.63 90.83 34.97 90.83 34.97 88.11"/><path class="cls-3" d="M38,89.2l.2.89h0l.14-.89.7-3h.66l-1.09,4.11c-.08.33-.17.64-.25.92a5.7,5.7,0,0,1-.28.75,1.62,1.62,0,0,1-.34.49.63.63,0,0,1-.45.18,1.33,1.33,0,0,1-.45-.08L37,92a.43.43,0,0,0,.25,0,.4.4,0,0,0,.25-.15,1.61,1.61,0,0,0,.21-.38,6.14,6.14,0,0,0,.17-.66l-1.49-4.57h.75Z"/><polygon class="cls-3" points="42.76 88.78 41.17 88.78 41.17 90.83 40.51 90.83 40.51 86.25 41.17 86.25 41.17 88.19 42.76 88.19 42.76 86.25 43.41 86.25 43.41 90.83 42.76 90.83 42.76 88.78"/><polygon class="cls-3" points="46.95 88.19 47 87.5 46.96 87.5 46.65 88.26 45.1 90.83 44.67 90.83 44.67 86.25 45.33 86.25 45.33 88.97 45.27 89.64 45.31 89.64 45.61 88.89 47.18 86.25 47.61 86.25 47.61 90.83 46.95 90.83 46.95 88.19"/><polygon class="cls-3" points="52.23 91.99 51.77 91.99 51.66 90.83 48.87 90.83 48.87 86.25 49.53 86.25 49.53 90.23 51.04 90.23 51.04 86.25 51.7 86.25 51.7 90.23 52.23 90.23 52.23 91.99"/><polygon class="cls-3" points="55.38 88.19 55.43 87.5 55.39 87.5 55.08 88.26 53.53 90.83 53.1 90.83 53.1 86.25 53.76 86.25 53.76 88.97 53.7 89.64 53.74 89.64 54.04 88.89 55.6 86.25 56.03 86.25 56.03 90.83 55.38 90.83 55.38 88.19"/><polygon class="cls-3" points="59.49 86.84 57.96 86.84 57.96 90.83 57.3 90.83 57.3 86.25 60.15 86.25 60.15 90.83 59.49 90.83 59.49 86.84"/><path class="cls-3" d="M61.37,86.52a2.19,2.19,0,0,1,.64-.25,3.59,3.59,0,0,1,.81-.09,1.48,1.48,0,0,1,.61.11,1,1,0,0,1,.37.31,1.12,1.12,0,0,1,.18.45,4.45,4.45,0,0,1,0,.53c0,.36,0,.72,0,1.07s0,.68,0,1,0,.44,0,.64a4.37,4.37,0,0,0,.09.56h-.52l-.16-.54h0a1.2,1.2,0,0,1-.4.41,1.24,1.24,0,0,1-.71.18,1,1,0,0,1-.8-.34,1.36,1.36,0,0,1-.32-1,1.62,1.62,0,0,1,.13-.66,1.11,1.11,0,0,1,.37-.43,1.57,1.57,0,0,1,.58-.23,3.29,3.29,0,0,1,.73-.07h.38a4.92,4.92,0,0,0,0-.51A1.31,1.31,0,0,0,63.2,87a.65.65,0,0,0-.56-.21,2.43,2.43,0,0,0-.56.08,1.85,1.85,0,0,0-.49.2Zm2,2.22H63a2,2,0,0,0-.43,0,.91.91,0,0,0-.37.13.75.75,0,0,0-.26.24.82.82,0,0,0-.09.4.85.85,0,0,0,.17.56.57.57,0,0,0,.46.2.89.89,0,0,0,.59-.18,1.08,1.08,0,0,0,.29-.4Z"/><path class="cls-3" d="M67.25,86.84h-1c0,.52,0,1-.08,1.51A9.08,9.08,0,0,1,66,89.64a2.64,2.64,0,0,1-.32.89.64.64,0,0,1-.56.33,1,1,0,0,1-.26,0,.59.59,0,0,1-.2-.06l.09-.57a.46.46,0,0,0,.35,0c.1,0,.19-.21.26-.48a8.14,8.14,0,0,0,.18-1.22c0-.55.08-1.29.09-2.24h2.27v4.58h-.66Z"/><path class="cls-3" d="M69.83,88a2.15,2.15,0,0,1,.34,0l.32,0a1.8,1.8,0,0,1,.65.11,1.06,1.06,0,0,1,.42.29,1,1,0,0,1,.24.43,1.91,1.91,0,0,1,.08.54,1.59,1.59,0,0,1-.41,1.21,1.79,1.79,0,0,1-1.26.37,8.69,8.69,0,0,1-1-.06V86.25h.66Zm0,2.23a2.29,2.29,0,0,0,.5,0c.57,0,.86-.3.86-.9a1,1,0,0,0-.2-.65.83.83,0,0,0-.64-.23h-.26l-.26,0Z"/><polygon class="cls-3" points="75.04 88.78 73.46 88.78 73.46 90.83 72.8 90.83 72.8 86.25 73.46 86.25 73.46 88.19 75.04 88.19 75.04 86.25 75.7 86.25 75.7 90.83 75.04 90.83 75.04 88.78"/><path class="cls-3" d="M77.62,88A2.15,2.15,0,0,1,78,88l.31,0a1.62,1.62,0,0,1,.63.11.9.9,0,0,1,.41.29,1,1,0,0,1,.22.43,2.35,2.35,0,0,1,.06.54,1.67,1.67,0,0,1-.37,1.21,1.69,1.69,0,0,1-1.23.37,8.64,8.64,0,0,1-1-.06V86.25h.66Zm0,2.23a2.29,2.29,0,0,0,.5,0,.69.69,0,0,0,.61-.23,1.07,1.07,0,0,0,.17-.67,1.12,1.12,0,0,0-.16-.65.73.73,0,0,0-.6-.23h-.26l-.26,0Zm2.52-4h.66v4.57h-.66Z"/><path class="cls-3" d="M84.8,90.51a1.38,1.38,0,0,1-.56.31,2.12,2.12,0,0,1-.71.12,1.6,1.6,0,0,1-.75-.17,1.52,1.52,0,0,1-.52-.49,2.11,2.11,0,0,1-.3-.75,5,5,0,0,1-.1-1,3.09,3.09,0,0,1,.43-1.79,1.4,1.4,0,0,1,1.22-.61,2.22,2.22,0,0,1,.51.06,1.08,1.08,0,0,1,.45.26,1.55,1.55,0,0,1,.33.54,2.82,2.82,0,0,1,.12.91c0,.1,0,.21,0,.33l0,.37H82.55a3.84,3.84,0,0,0,.06.71,1.62,1.62,0,0,0,.2.55.93.93,0,0,0,.36.35,1.07,1.07,0,0,0,.53.12,1.37,1.37,0,0,0,.49-.09,1.17,1.17,0,0,0,.37-.22Zm-.51-2.45a1.86,1.86,0,0,0-.19-1,.67.67,0,0,0-.58-.33.8.8,0,0,0-.67.33,1.86,1.86,0,0,0-.29,1Z"/><path class="cls-3" d="M89.24,89.2l.19.89h0l.14-.89.7-3H91l-1.09,4.11c-.09.33-.17.64-.26.92a4.56,4.56,0,0,1-.28.75,1.46,1.46,0,0,1-.34.49.6.6,0,0,1-.44.18,1.25,1.25,0,0,1-.45-.08l.11-.62a.46.46,0,0,0,.26,0,.4.4,0,0,0,.24-.15,1.12,1.12,0,0,0,.21-.38,4.43,4.43,0,0,0,.17-.66l-1.48-4.57h.75Z"/><path class="cls-3" d="M94.21,90.6a1.57,1.57,0,0,1-.52.25,2.11,2.11,0,0,1-.62.09,1.53,1.53,0,0,1-.74-.17,1.44,1.44,0,0,1-.49-.49,2.51,2.51,0,0,1-.27-.76,4.88,4.88,0,0,1-.09-1,3.18,3.18,0,0,1,.42-1.79,1.33,1.33,0,0,1,1.19-.61,2.68,2.68,0,0,1,.61.06,1.84,1.84,0,0,1,.44.17l-.18.57a1.56,1.56,0,0,0-.79-.21.82.82,0,0,0-.75.44,2.83,2.83,0,0,0-.25,1.37,3.91,3.91,0,0,0,0,.7,1.82,1.82,0,0,0,.19.57,1,1,0,0,0,.32.39.93.93,0,0,0,.51.14,1.23,1.23,0,0,0,.44-.08,1,1,0,0,0,.33-.2Z"/><path class="cls-3" d="M96.92,86.84h-1c0,.52,0,1-.07,1.51s-.09.91-.16,1.29a2.86,2.86,0,0,1-.33.89.63.63,0,0,1-.56.33,1,1,0,0,1-.26,0,.66.66,0,0,1-.2-.06l.1-.57a.44.44,0,0,0,.34,0c.1,0,.19-.21.26-.48a8.14,8.14,0,0,0,.18-1.22c0-.55.08-1.29.1-2.24h2.26v4.58h-.66Z"/><path class="cls-3" d="M100,89.2l.2.89h0l.14-.89.69-3h.67l-1.09,4.11c-.08.33-.17.64-.25.92a5.7,5.7,0,0,1-.28.75,1.46,1.46,0,0,1-.34.49.6.6,0,0,1-.44.18,1.21,1.21,0,0,1-.45-.08L99,92a.43.43,0,0,0,.25,0,.4.4,0,0,0,.25-.15,1.61,1.61,0,0,0,.21-.38,3.55,3.55,0,0,0,.16-.66l-1.48-4.57h.75Z"/><polygon class="cls-3" points="104.64 86.84 103.12 86.84 103.12 90.83 102.46 90.83 102.46 86.25 104.64 86.25 104.64 86.84"/><polygon class="cls-3" points="107.63 88.19 107.69 87.5 107.65 87.5 107.33 88.26 105.78 90.83 105.36 90.83 105.36 86.25 106.01 86.25 106.01 88.97 105.96 89.64 105.99 89.64 106.3 88.89 107.86 86.25 108.29 86.25 108.29 90.83 107.63 90.83 107.63 88.19"/><polygon class="cls-3" points="54.09 78.19 52.58 78.19 52.58 82.17 51.92 82.17 51.92 77.6 54.09 77.6 54.09 78.19"/><path class="cls-3" d="M54.5,79.89a3.13,3.13,0,0,1,.42-1.82,1.43,1.43,0,0,1,1.22-.58,1.38,1.38,0,0,1,1.23.59,3.26,3.26,0,0,1,.4,1.81,3,3,0,0,1-.43,1.82,1.57,1.57,0,0,1-2.45,0,3.34,3.34,0,0,1-.39-1.8m.68,0a5.35,5.35,0,0,0,0,.73,2.13,2.13,0,0,0,.17.57.85.85,0,0,0,.3.37.7.7,0,0,0,.44.13.77.77,0,0,0,.71-.42,3,3,0,0,0,.24-1.38,5.35,5.35,0,0,0-.05-.73,2.13,2.13,0,0,0-.17-.57.91.91,0,0,0-.29-.37.74.74,0,0,0-.44-.14.79.79,0,0,0-.72.44,2.91,2.91,0,0,0-.24,1.37"/><path class="cls-3" d="M61.36,82a1.57,1.57,0,0,1-.52.25,2.1,2.1,0,0,1-.61.09,1.46,1.46,0,0,1-.75-.18,1.32,1.32,0,0,1-.49-.48,2.51,2.51,0,0,1-.27-.76,4.88,4.88,0,0,1-.09-1,3.18,3.18,0,0,1,.42-1.79,1.38,1.38,0,0,1,1.19-.61,2.77,2.77,0,0,1,.62.06,2,2,0,0,1,.44.17l-.18.58a1.53,1.53,0,0,0-.8-.22.82.82,0,0,0-.75.44,2.8,2.8,0,0,0-.25,1.37,3.88,3.88,0,0,0,.06.7,1.59,1.59,0,0,0,.18.57,1,1,0,0,0,.33.39.87.87,0,0,0,.5.14,1.23,1.23,0,0,0,.44-.08,1.21,1.21,0,0,0,.34-.19Z"/><path class="cls-3" d="M63.3,80.55l.19.89h0l.14-.89.69-3H65L64,81.71c-.08.33-.17.64-.26.92a4.6,4.6,0,0,1-.27.75,1.75,1.75,0,0,1-.34.49.64.64,0,0,1-.45.18,1.25,1.25,0,0,1-.45-.08l.11-.62a.59.59,0,0,0,.26,0,.41.41,0,0,0,.24-.16,1.19,1.19,0,0,0,.22-.38,4.58,4.58,0,0,0,.16-.66L61.69,77.6h.75Z"/><path class="cls-3" d="M69,83.34h-.45l-.11-1.17H65.72l-.11,1.17h-.45V81.58h.43a3.75,3.75,0,0,0,.15-.37,5.71,5.71,0,0,0,.19-.75c.06-.32.11-.71.16-1.18s.07-1,.08-1.68h2.29v4H69Zm-1.2-1.76V78.19h-1c0,.27,0,.55,0,.87a9.24,9.24,0,0,1-.1.92c0,.31-.09.61-.15.88a4,4,0,0,1-.21.72Z"/><path class="cls-3" d="M69.83,77.88a1.87,1.87,0,0,1,.64-.26,3.44,3.44,0,0,1,.8-.09,1.35,1.35,0,0,1,.62.11,1,1,0,0,1,.37.31,1.28,1.28,0,0,1,.17.45,3,3,0,0,1,0,.53c0,.36,0,.72,0,1.07s0,.67,0,1a6.4,6.4,0,0,0,0,.64,3.12,3.12,0,0,0,.09.56H72l-.16-.54h0a1.22,1.22,0,0,1-.4.42,1.29,1.29,0,0,1-.7.17,1.08,1.08,0,0,1-.81-.34,1.36,1.36,0,0,1-.31-1,1.47,1.47,0,0,1,.13-.66,1.11,1.11,0,0,1,.37-.43,1.63,1.63,0,0,1,.57-.24,4.18,4.18,0,0,1,.74-.06h.38c0-.19,0-.36,0-.51a1.33,1.33,0,0,0-.15-.73.65.65,0,0,0-.56-.21,2.36,2.36,0,0,0-.56.08,1.93,1.93,0,0,0-.5.2Zm2,2.21-.18,0h-.18a2,2,0,0,0-.42,0,.91.91,0,0,0-.37.13.67.67,0,0,0-.26.24.79.79,0,0,0-.1.4.8.8,0,0,0,.18.56.57.57,0,0,0,.46.21.89.89,0,0,0,.59-.19,1,1,0,0,0,.28-.4Z"/><path class="cls-3" d="M73.71,77.6h.47l.1.49h0a1.14,1.14,0,0,1,1.06-.6,1.23,1.23,0,0,1,1.09.54,3.3,3.3,0,0,1,.36,1.77,4.18,4.18,0,0,1-.12,1,2.42,2.42,0,0,1-.34.78,1.45,1.45,0,0,1-.53.49,1.43,1.43,0,0,1-.7.18,2.33,2.33,0,0,1-.43,0,1.22,1.22,0,0,1-.34-.13V84h-.66Zm.66,3.85a.94.94,0,0,0,.72.24.86.86,0,0,0,.77-.49,2.89,2.89,0,0,0,.28-1.41,4.9,4.9,0,0,0,0-.7,1.84,1.84,0,0,0-.16-.53.82.82,0,0,0-.28-.35.7.7,0,0,0-.42-.13c-.44,0-.73.28-.86.82Z"/><path class="cls-3" d="M80.41,82a1.67,1.67,0,0,1-.52.25,2.11,2.11,0,0,1-.62.09,1.42,1.42,0,0,1-.74-.18,1.32,1.32,0,0,1-.49-.48,2.07,2.07,0,0,1-.27-.76,4.88,4.88,0,0,1-.09-1,3.27,3.27,0,0,1,.41-1.79,1.38,1.38,0,0,1,1.2-.61,2.68,2.68,0,0,1,.61.06,2,2,0,0,1,.44.17l-.18.58a1.48,1.48,0,0,0-.8-.22.8.8,0,0,0-.74.44,2.78,2.78,0,0,0-.26,1.37,3.88,3.88,0,0,0,.06.7,2.12,2.12,0,0,0,.18.57,1.16,1.16,0,0,0,.33.39.93.93,0,0,0,.51.14,1.27,1.27,0,0,0,.44-.08,1,1,0,0,0,.33-.19Z"/><polygon class="cls-3" points="83.61 78.19 82.48 78.19 82.48 82.17 81.83 82.17 81.83 78.19 80.7 78.19 80.7 77.6 83.61 77.6 83.61 78.19"/><path class="cls-3" d="M84.34,77.61l.56,0c.2,0,.44,0,.72,0a1.63,1.63,0,0,1,1.06.27,1.06,1.06,0,0,1,.33.85,1.39,1.39,0,0,1-.16.62,1,1,0,0,1-.5.46v0a.94.94,0,0,1,.62.37,1.29,1.29,0,0,1,.18.73,1.22,1.22,0,0,1-.42,1,2.07,2.07,0,0,1-1.25.32l-.6,0-.54,0Zm1.34,1.94a.53.53,0,0,0,.24-.06.69.69,0,0,0,.22-.16.91.91,0,0,0,.15-.23.71.71,0,0,0,.06-.28.69.69,0,0,0-.17-.52.85.85,0,0,0-.59-.17h-.34l-.25,0v1.39ZM85,81.61l.26,0,.31,0a1,1,0,0,0,.68-.2,1,1,0,0,0,0-1.16.82.82,0,0,0-.67-.22H85Z"/><path class="cls-3" d="M91,81.86a1.38,1.38,0,0,1-.56.31,2.12,2.12,0,0,1-.71.12,1.49,1.49,0,0,1-.75-.18,1.4,1.4,0,0,1-.52-.48,2.11,2.11,0,0,1-.3-.75,4.37,4.37,0,0,1-.1-1,3.09,3.09,0,0,1,.43-1.79,1.41,1.41,0,0,1,1.22-.61,2.22,2.22,0,0,1,.51.06,1.08,1.08,0,0,1,.45.26,1.42,1.42,0,0,1,.33.54,2.82,2.82,0,0,1,.12.91c0,.1,0,.21,0,.33s0,.24,0,.37H88.7a3.84,3.84,0,0,0,.06.71,1.86,1.86,0,0,0,.2.55,1,1,0,0,0,.36.35,1.07,1.07,0,0,0,.53.12,1.37,1.37,0,0,0,.49-.09.93.93,0,0,0,.37-.22Zm-.51-2.45a1.83,1.83,0,0,0-.19-1,.67.67,0,0,0-.58-.32.82.82,0,0,0-.67.32,1.93,1.93,0,0,0-.29,1Z"/><polygon class="cls-3" points="94.42 80.13 92.83 80.13 92.83 82.17 92.18 82.17 92.18 77.6 92.83 77.6 92.83 79.54 94.42 79.54 94.42 77.6 95.08 77.6 95.08 82.17 94.42 82.17 94.42 80.13"/><polygon class="cls-3" points="98.57 80.13 96.99 80.13 96.99 82.17 96.33 82.17 96.33 77.6 96.99 77.6 96.99 79.54 98.57 79.54 98.57 77.6 99.23 77.6 99.23 82.17 98.57 82.17 98.57 80.13"/><path class="cls-3" d="M101.15,79.35a2.15,2.15,0,0,1,.34,0l.31,0a1.65,1.65,0,0,1,.63.11.9.9,0,0,1,.41.29,1.25,1.25,0,0,1,.22.43,2.35,2.35,0,0,1,.06.54,1.63,1.63,0,0,1-.37,1.2,1.69,1.69,0,0,1-1.23.38c-.35,0-.7,0-1,0V77.6h.66Zm0,2.23a2.23,2.23,0,0,0,.5,0,.69.69,0,0,0,.61-.23,1.38,1.38,0,0,0,0-1.31.7.7,0,0,0-.6-.24l-.26,0a1.09,1.09,0,0,0-.26,0Zm2.52-4h.66v4.57h-.66Z"/><path class="cls-3" d="M108.33,81.86a1.38,1.38,0,0,1-.56.31,2.08,2.08,0,0,1-.71.12,1.49,1.49,0,0,1-.75-.18,1.4,1.4,0,0,1-.52-.48,2.11,2.11,0,0,1-.3-.75,4.37,4.37,0,0,1-.1-1,3.09,3.09,0,0,1,.43-1.79,1.4,1.4,0,0,1,1.22-.61,2.22,2.22,0,0,1,.51.06,1.08,1.08,0,0,1,.45.26,1.55,1.55,0,0,1,.33.54,2.82,2.82,0,0,1,.12.91c0,.1,0,.21,0,.33a2.4,2.4,0,0,1,0,.37h-2.32a3.84,3.84,0,0,0,.06.71,1.62,1.62,0,0,0,.2.55,1,1,0,0,0,.36.35,1.07,1.07,0,0,0,.53.12,1.37,1.37,0,0,0,.49-.09.93.93,0,0,0,.37-.22Zm-.51-2.45a1.83,1.83,0,0,0-.19-1,.69.69,0,0,0-.58-.32.82.82,0,0,0-.67.32,1.93,1.93,0,0,0-.29,1Z"/></g></g></svg>