<svg xmlns="http://www.w3.org/2000/svg" xmlns:xlink="http://www.w3.org/1999/xlink" viewBox="0 0 120.68 26.95"><defs><style>.cls-1{fill:none;}.cls-2{fill:#233776;}.cls-3{clip-path:url(#clip-path);}.cls-4{fill:#fd8e17;}.cls-5{font-size:6.11px;fill:#fff;font-family:HelveticaNeueCyr-HeavyItalic, HelveticaNeueCyr HeavyItalic;font-style:italic;letter-spacing:-0.05em;}</style><clipPath id="clip-path" transform="translate(0 -6.51)"><rect class="cls-1" width="173.13" height="39.95"/></clipPath></defs><title>Ресурс 20</title><g id="Слой_2" data-name="Слой 2"><g id="Слой_1-2" data-name="Слой 1"><path class="cls-2" d="M34.41,26.76H32.15l-2.7,2.54L30,26.76h-1.7l-1.39,6.53h1.71l.42-2,.87-.74,1.35,2.73h1.94l-1.95-3.84,3.14-2.69Zm5.86,2.65a2.64,2.64,0,0,0-2.9-2.79,3.62,3.62,0,0,0-3.66,3.91,2.66,2.66,0,0,0,2.9,2.93c2.32,0,3.66-1.84,3.66-4.05Zm-3-1.42c.9,0,1.24.65,1.24,1.47,0,1-.55,2.62-1.81,2.62-.83,0-1.3-.55-1.3-1.48,0-1.13.54-2.61,1.87-2.61Zm12-1.23H46.85l-1.11,2a12.68,12.68,0,0,0-1.09,2.6,13.54,13.54,0,0,0,0-2.11l-.21-2.54H42l-1.38,6.53h1.61l.57-2.77c.16-.79.31-1.6.4-2.41,0,.73,0,1.44.11,2.17l.31,3h1.31l1.55-3c.38-.73.71-1.47,1-2.24-.22.78-.41,1.57-.58,2.37l-.63,2.84h1.62l1.38-6.53Zm7,0H50.64l-1.38,6.53H51l1.08-5.1h2.24l-1.08,5.1h1.72l1.38-6.53Zm4.92,0H59.51l-3.84,6.53h1.8l.67-1.19h2.28l.16,1.19h1.71l-1.06-6.53ZM60,28.5c0,.51.09,1,.15,1.52l.11.85h-1.5l.46-.83c.27-.5.56-1,.78-1.54Zm10-1.74H68.33l-.5,2.38H65.55l.51-2.38H64.34L63,33.29h1.71l.58-2.69h2.26l-.57,2.69h1.72l1.39-6.53Zm7.1,0h-2l-3,4.35,1-4.35H71.51l-1.38,6.53h2l3-4.34-1,4.34h1.66l1.38-6.53Zm6.8,0h-3.3a3.56,3.56,0,0,0-1.87.39,2.25,2.25,0,0,0-1,1.92,1.57,1.57,0,0,0,1.2,1.7l-2.54,2.52h2.16l2.16-2.41h.6l-.51,2.41h1.7L84,26.76Zm-2,1.32-.33,1.58H80.46c-.54,0-1-.07-1-.68s.48-.9,1.14-.9Z" transform="translate(0 -6.51)"/><path class="cls-2" d="M33,19.47a2.63,2.63,0,0,0-2.84-2.91A3,3,0,0,0,27,18.86h1.73A1.29,1.29,0,0,1,30,17.93c.71,0,1.16.46,1.24,1.28H29.17l-.29,1.32H31.1A1.76,1.76,0,0,1,29.48,22c-.75,0-1.08-.38-1.1-1.11H26.73v.15c0,1.43,1.05,2.35,2.69,2.35,2.22,0,3.55-1.75,3.55-3.93Zm7.19-2.76H38.44l-.5,2.38H35.66l.51-2.38H34.45l-1.38,6.53h1.71l.58-2.69h2.26l-.56,2.69h1.71l1.39-6.53Zm6.51,0H41.49L40.1,23.24h5.27l.3-1.42H42.1l.28-1.28h3.23l.28-1.32H42.65l.24-1.13h3.49l.29-1.38Zm1.2,0-1.38,6.53h1.7l.46-2.18h1.28a3.77,3.77,0,0,0,1.94-.4,2.4,2.4,0,0,0,1-2c0-1.42-.94-1.93-2.26-1.93Zm1.4,1.39h1c.53,0,1,.07,1,.7s-.51.93-1.17.93H48.93l.34-1.63Zm3.59,5.14h1.71l1.09-5.11h3.1l.31-1.42H54.24l-1.38,6.53ZM65,19.35a2.64,2.64,0,0,0-2.9-2.79,3.63,3.63,0,0,0-3.66,3.92,2.66,2.66,0,0,0,2.9,2.93c2.32,0,3.66-1.85,3.66-4.06Zm-3-1.41c.9,0,1.25.65,1.25,1.47,0,1-.56,2.62-1.81,2.62-.83,0-1.31-.55-1.31-1.48,0-1.13.54-2.61,1.87-2.61Zm9.73,2.89H70A1.37,1.37,0,0,1,68.64,22c-.79,0-1.25-.57-1.25-1.56S67.91,18,69.17,18c.76,0,1.09.38,1.1,1.11h1.66v-.15c0-1.43-1.06-2.35-2.69-2.35-2.23,0-3.55,1.76-3.55,3.93a2.62,2.62,0,0,0,2.83,2.91,3,3,0,0,0,3.19-2.57Zm6.78-4.12H73.42L72,23.24h3.25a3.73,3.73,0,0,0,1.94-.4,2.4,2.4,0,0,0,1-2c0-1.42-.93-1.93-2.25-1.93H74.65l.16-.79H78.2l.29-1.39ZM76.57,21c0,.71-.51.93-1.17.93H74l.35-1.64h1.18c.53,0,1,.08,1,.71Zm7.91-.13c0-1.42-.94-1.93-2.26-1.93h-.86l.46-2.18H80.11l-1.38,6.53h2.78a3.7,3.7,0,0,0,1.93-.4,2.39,2.39,0,0,0,1-2ZM82.8,21c0,.71-.5.93-1.16.93h-.91l.35-1.64h.7c.54,0,1,.08,1,.71ZM86,16.71l-1.38,6.53h1.69l1.39-6.53Zm8.07,0H88.53l-.3,1.42h2l-1.09,5.11h1.72l1.09-5.11h1.89l.3-1.42Zm6.14,2.64a2.64,2.64,0,0,0-2.9-2.79,3.63,3.63,0,0,0-3.66,3.92,2.66,2.66,0,0,0,2.9,2.93c2.32,0,3.66-1.85,3.66-4.06Zm-3-1.41c.89,0,1.24.65,1.24,1.47,0,1-.56,2.62-1.81,2.62-.83,0-1.31-.55-1.31-1.48,0-1.13.55-2.61,1.88-2.61Zm4.62-1.23-1.4,6.53h3.22a3.11,3.11,0,0,0,2.3-.6,2.17,2.17,0,0,0,.67-1.56,1.29,1.29,0,0,0-.92-1.33A1.49,1.49,0,0,0,107,18.22c0-1.33-1.18-1.51-2.24-1.51Zm1.38,1.3h1c.38,0,1,0,1,.54s-.46.74-1,.74H103l.26-1.28Zm-.5,2.39h1c.52,0,1.19,0,1.19.67s-.72.84-1.32.84h-1.23l.32-1.51Zm9.41-3.69h-1.72l-3.84,6.53h1.8l.67-1.19h2.28l.17,1.19h1.7l-1.06-6.53ZM111,18.44c0,.52.09,1,.16,1.53l.11.85h-1.51l.46-.83a17.29,17.29,0,0,0,.78-1.55Zm9.73-1.73h-3.3a3.56,3.56,0,0,0-1.87.39,2.24,2.24,0,0,0-1,1.91,1.57,1.57,0,0,0,1.2,1.71l-2.54,2.52h2.16l2.16-2.41h.6l-.51,2.41h1.7l1.38-6.53Zm-2,1.32-.33,1.58H117.2c-.55,0-1-.07-1-.68s.48-.9,1.14-.9Z" transform="translate(0 -6.51)"/><g class="cls-3"><path class="cls-2" d="M32.18,6.66H26.62l-.3,1.42h1.95l-1.09,5.11H28.9L30,8.08h1.89l.3-1.42Zm3.92,0H34.39l-3.84,6.53h1.79L33,12H35.3l.16,1.19h1.71L36.1,6.66ZM34.89,8.39a15,15,0,0,0,.16,1.52l.11.86H33.65l.46-.84a13.91,13.91,0,0,0,.78-1.54ZM46.54,6.66H44.08L43,8.7a12.54,12.54,0,0,0-1.09,2.61,13.52,13.52,0,0,0,0-2.11l-.22-2.54H39.24l-1.38,6.53h1.61L40,10.42c.16-.8.31-1.61.4-2.41,0,.72,0,1.44.11,2.16l.3,3h1.32l1.55-3c.38-.74.71-1.48,1-2.24-.22.78-.41,1.57-.58,2.37l-.63,2.84h1.62l1.38-6.53Zm6.6,0H48.06l-1.38,6.53h3.25a3.81,3.81,0,0,0,1.94-.4,2.43,2.43,0,0,0,1-2c0-1.42-.94-1.93-2.26-1.93H49.29l.17-.8h3.38l.3-1.38ZM51.21,10.9c0,.7-.51.92-1.17.92H48.66L49,10.19h1.18c.53,0,1,.07,1,.71ZM60.3,9.3a2.64,2.64,0,0,0-2.9-2.79,3.63,3.63,0,0,0-3.66,3.92,2.65,2.65,0,0,0,2.9,2.92c2.32,0,3.66-1.84,3.66-4Zm-3-1.41c.9,0,1.25.65,1.25,1.47,0,1-.56,2.62-1.82,2.62-.83,0-1.3-.55-1.3-1.49,0-1.13.54-2.6,1.87-2.6Zm4.62-1.23-1.4,6.53h3.22a3.11,3.11,0,0,0,2.31-.61A2.18,2.18,0,0,0,66.74,11a1.31,1.31,0,0,0-.93-1.33A1.47,1.47,0,0,0,67,8.17c0-1.34-1.17-1.51-2.24-1.51ZM63.32,8h1c.39,0,1,0,1,.53s-.45.75-1,.75H63.06L63.32,8Zm-.5,2.39h1c.52,0,1.2,0,1.2.67s-.73.84-1.32.84H62.5l.32-1.51Zm10.82.43H71.93A1.36,1.36,0,0,1,70.58,12c-.79,0-1.25-.57-1.25-1.56s.51-2.52,1.78-2.52c.75,0,1.08.38,1.1,1.11h1.65V8.86c0-1.43-1-2.35-2.69-2.35-2.22,0-3.55,1.75-3.55,3.93a2.63,2.63,0,0,0,2.84,2.91,3,3,0,0,0,3.18-2.57Zm7.94-4.12H79.32L76.62,9.2l.57-2.54h-1.7L74.1,13.19h1.71l.42-2,.87-.74,1.35,2.73h1.94l-2-3.84,3.14-2.69Zm4.75,0H84.62l-3.85,6.53h1.8L83.24,12h2.28l.17,1.19H87.4L86.33,6.66ZM85.12,8.39a15,15,0,0,0,.16,1.52l.11.86H83.88l.46-.84a13.91,13.91,0,0,0,.78-1.54Zm9.73-1.73h-3.3A3.56,3.56,0,0,0,89.68,7,2.26,2.26,0,0,0,88.7,9a1.58,1.58,0,0,0,1.2,1.71l-2.54,2.52h2.16l2.16-2.41h.6l-.51,2.41h1.7l1.38-6.53ZM92.86,8l-.33,1.58H91.37c-.54,0-1-.08-1-.68s.47-.9,1.13-.9Z" transform="translate(0 -6.51)"/><path class="cls-4" d="M2.93,12.91a10,10,0,0,0,11.2,16.15l-1.31-2.39,6,2.14L2.93,12.91Z" transform="translate(0 -6.51)"/></g><path class="cls-2" d="M17.05,27.05A10,10,0,0,0,5.85,10.89l1.31,2.39-6-2.14L17.05,27.05Z" transform="translate(0 -6.51)"/><text class="cls-5" transform="translate(1.57 15.6)">ТЭСК</text></g></g></svg>