<svg xmlns="http://www.w3.org/2000/svg" viewBox="0 0 143.94 36.76"><defs><style>.cls-1{fill:#fff;}.cls-1,.cls-2,.cls-4{fill-rule:evenodd;}.cls-2,.cls-5{fill:#2b4c90;}.cls-3,.cls-4{fill:#e9c434;}</style></defs><title>Ресурс 3</title><g id="Слой_2" data-name="Слой 2"><g id="Слой_1-2" data-name="Слой 1"><path class="cls-1" d="M19.69,7.93A9.67,9.67,0,1,1,10,17.6,9.7,9.7,0,0,1,19.69,7.93Z"/><path class="cls-2" d="M19.69,8.58a9,9,0,1,1-9,9A9,9,0,0,1,19.69,8.58Z"/><polygon class="cls-1" points="28.31 16.94 26.34 16.94 27.19 15.07 25.84 15.07 23.6 19.96 24.95 19.96 24.95 19.96 25.89 19.12 26.27 19.96 27.62 19.96 26.84 18.26 28.31 16.94"/><polygon class="cls-2" points="24.87 17.84 26.01 15.33 26.79 15.33 25.93 17.2 27.64 17.2 24.83 19.76 25.72 17.84 24.87 17.84"/><path class="cls-3" d="M11.64,19.7H23.23l-.12.26H11.45l.19-.26Zm.64-.92H23.67l-.13.27H12.09l.19-.27Zm-.32.46H23.45l-.13.27H11.77Z"/><polygon class="cls-1" points="16.25 15.26 14.85 17.19 15.21 15.26 14.44 15.26 12.55 18.41 13.33 18.41 14.36 16.59 14.03 18.41 14.55 18.41 15.88 16.59 15.25 18.41 15.99 18.41 17.06 15.26 16.25 15.26"/><path class="cls-1" d="M19.93,15.56c-.14-.22-.4-.37-.92-.37a2.76,2.76,0,0,0-.74.11,4.74,4.74,0,0,0-.48.26A2.87,2.87,0,0,0,16.68,17a1.32,1.32,0,0,0,0,1.07,1,1,0,0,0,.89.37,1.91,1.91,0,0,0,.74-.15,1.76,1.76,0,0,0,.52-.22,3.1,3.1,0,0,0,1.11-1.48A1.31,1.31,0,0,0,19.93,15.56Zm-.88,1.11a1.91,1.91,0,0,1-.52.81,2,2,0,0,1-.26.15.78.78,0,0,1-.41.11.36.36,0,0,1-.37-.22.79.79,0,0,1,0-.56,1.49,1.49,0,0,1,.52-.77,1.7,1.7,0,0,1,.22-.15.9.9,0,0,1,.41-.11c.26,0,.37.11.4.22A.63.63,0,0,1,19.05,16.67Z"/><path class="cls-1" d="M24.53,15.19a2.14,2.14,0,0,0-1.45.59,2.88,2.88,0,0,0-.85,1.29,1.17,1.17,0,0,0,.08,1.19,1,1,0,0,0,.7.22,2,2,0,0,0,.89-.22l.4-.89a1.67,1.67,0,0,1-.85.33c-.14,0-.29,0-.33-.15s-.07-.44,0-.63a2.22,2.22,0,0,1,.41-.62,1.16,1.16,0,0,1,.78-.34.54.54,0,0,1,.52.37l.44-.88A.84.84,0,0,0,24.53,15.19Z"/><path class="cls-1" d="M22.18,15.41a1,1,0,0,0-.7-.22,1.72,1.72,0,0,0-.89.22l-.37.74a1.63,1.63,0,0,1,.81-.29.6.6,0,0,1,.41.14.5.5,0,0,1,.07.48h-.92l-.3.63h1a1.21,1.21,0,0,1-.48.52,1.09,1.09,0,0,1-.55.18.59.59,0,0,1-.59-.33l-.37.78a.79.79,0,0,0,.66.22,2.18,2.18,0,0,0,1.48-.59,3.23,3.23,0,0,0,.85-1.3C22.36,16.3,22.51,15.74,22.18,15.41Z"/><path class="cls-4" d="M29.61,7.14l-.26.38.26-.06a3.42,3.42,0,0,1,.63-.09l.31,0a1.63,1.63,0,0,0-.31-.11c-.18-.06-.38-.1-.59-.15l0,.06Zm0,3.16-.38.52-.23.34-1,1.46c.09.15.18.3.26.46L29,12l.23-.35.38-.53.63-.89.81-1.12.25-.38.09-.12H31.3l-.25,0h-.22l-.59.83-.63.9ZM23.05,8.54l.46.19,1.14-1.6L26.57,4.4c-.22,0-.44.07-.66.12L24.65,6.29l-1.6,2.25Zm3.71-1.26h0ZM20.07,30.87l2.82-4,.14-.19c-.25.09-.5.17-.76.24l-2.12,3-.08.18a5.76,5.76,0,0,0-.32,1.2l.32-.44Zm7.5-25.58h0l.26-.35.74-1L29,3.68a1.5,1.5,0,0,0,.23-.15,2.63,2.63,0,0,0,.38-.3l0,0,0,.06-.38.53L29,4.12,27.86,5.73s0,0,0,0a2.48,2.48,0,0,1-.26.19c-.6.44-1,.59-.82,1.34L25.11,9.61c-.13-.09-.26-.18-.4-.26l2.86-4.06ZM23.91,8.91h0l.74-1L27.18,4.3a2.23,2.23,0,0,0,.39-.09.91.91,0,0,0,.26-.06h0l0,0-.26.37L24.65,8.69l-.32.44-.42-.22Zm8.24.93h0l.37-.5.38-.53.16-.24h.19a1.88,1.88,0,0,1,.34,0h.08l-.05.06,0,0-.34.49-.35.5-.38.53-.37.51-.27.38-.58.82,0,.06a1.66,1.66,0,0,1-.22,0h-.11a.21.21,0,0,0,.11.07.4.4,0,0,0,.12.1l-.12.16-.81,1.13-.63.89-.38.55-.21.3q-.07-.28-.18-.57l.16-.22.23-.35.38-.53.63-.89.81-1.12L31.3,11l.58-.81.27-.39ZM22.89,31.59h0l-.15.23c.06-.26.11-.51.15-.79,0-.1,0-.21.05-.32l1.71-2.41,2.92-4.13.26-.37L29,22.16l.23-.33.38-.53.63-.91.81-1.11.25-.38.58-.81.27-.38.37-.52.38-.51.35-.52h0c.1.1.23.19.33.3s0,0,0,0l0,0-.34.48-.35.5-.38.52-.37.51-.27.4-.58.8-.25.38-.81,1.12-.63.9-.38.53L29,23l-1.17,1.64-.26.36-2.92,4.14-1.76,2.47Zm0-2.39h0l1.76-2.47,1.16-1.65a9.74,9.74,0,0,0,3-4.16l.24-.33.23-.34.38-.53.63-.89.81-1.12.25-.38.58-.81.27-.39.37-.52.09-.1a3.84,3.84,0,0,0,.29.27l.05.06-.05.08-.38.53-.37.5-.27.39-.58.82-.25.36-.81,1.13-.63.89-.38.55-.23.33-1.17,1.64-.26.35-2.92,4.15L23,29.91a4,4,0,0,0,0-.59h0l-.15.08.15-.21ZM33.59,9.4l-.34.48-.35.5-.38.52-.37.52-.27.39-.09.12h.36l.25,0,.12-.17.38-.53.35-.5.34-.48,0-.05L34,9.6l.74-1.07H34.2L34,8.78l-.41.57,0,.05ZM34,14.25l.23.14a1.88,1.88,0,0,0-.23-.56.43.43,0,0,0-.12-.17l-.29.41,0,0v0h0a1.52,1.52,0,0,1,.41.12Zm-3-4.41h0l.25-.36.58-.82.05-.06h.22a2.3,2.3,0,0,0,.37,0l-.37.52-.27.38-.58.82-.25.37-.81,1.12-.63.9-.38.53-.23.33-.34.48c-.07-.17-.14-.34-.22-.51l.56-.79.23-.33.38-.54.63-.9.81-1.12ZM16.72,2.61,18.1.67l.08-.11A2.58,2.58,0,0,1,18.1.3Q18,.16,18,0L16.72,1.79,14.8,4.49,13,7c0,.23-.09.46-.14.69a3.33,3.33,0,0,1-.12.5l2-2.85,1.92-2.7ZM11.13,9.67l-.73,1-.29.4-1,1.36L8,14l-.63.91-.15.21L7,15.48,7,15.55l-.21.31-.08.1a.34.34,0,0,0,.08.14,3.29,3.29,0,0,1,.16.33l0-.06L7,16.3,7.25,16l.15-.21L8,14.86,9.14,13.3l1-1.37.29-.41.73-1,.28-.39.31-.44c0-.24-.05-.49-.06-.73l-.25.33-.28.41ZM10.4,5.23l.73-1v0s0,0,0,0a2,2,0,0,0-.31-.34l-.42.6-.29.41-.24.35c0,.36-.12.74-.21,1.12l.45-.65.29-.41Zm-.29-1.17h0l-.23.34a9.89,9.89,0,0,0-.21-1.19l.44.17.29.14.08,0-.08.11-.29.39Zm0,3.16h0l-1,1.36-.24.33c.07-.3.17-.6.24-.89s.09-.32.14-.46l.83-1.18L10.4,6l.73-1,.24-.34a1,1,0,0,1,0,.13,3.23,3.23,0,0,1,.11.47l-.11.16-.28.4-.73,1-.29.41Zm0,1.56h0l-1,1.36-.48.7a5.57,5.57,0,0,1,.06-.91l.42-.61,1-1.36.29-.41.73-1,.28-.41.19-.25c0,.24,0,.51,0,.79l-.22.28-.28.41-.73,1-.29.39Zm6.16-7.1h0L14.8,3.74,13.34,5.79A6.89,6.89,0,0,1,14.8,3.12c.46-.53,1-.94,1.47-1.44ZM19,8l.58,0,.46-.65,2.82-4L23,3.09l-.15.05c-.18.06-.38.1-.57.15L20.07,6.46,19,8ZM7.4,13.36h0l.63-.9.53-.74.14,0a1.33,1.33,0,0,1,0-.21l.47-.65,1-1.37.29-.4.73-1,.28-.39.22-.3c0,.27,0,.55,0,.82l-.22.3-.28.41-.73,1-.29.41-1,1.37L8,13.28l-.63.91-.15.2L7,14.72,7,14.81l-.21.3-.32.44a.75.75,0,0,1-.06-.13,2.79,2.79,0,0,1-.18-.34l.18-.25.38-.53L7,14,7,13.9l.23-.33.15-.21ZM22.89,7.2h0L24.45,5l.2-.09a4.62,4.62,0,0,1,.62-.23l-.62.88L22.89,8l-.26.37-.48-.14.74-1Zm-4.79.5h0l2-2.82L21,3.59c.22-.06.47-.12.69-.16L20.07,5.72,18.46,8l-.65.1.29-.41ZM16.72,3.35h0L18.1,1.41l.15-.23a3,3,0,0,1-.12,1l0,.06L16.72,4.18,14.8,6.88l-3.39,4.78-.28.41-.73,1-.29.39-1,1.37L8,16.42l-.63.91,0,0a2.06,2.06,0,0,0-.12-.26,1.2,1.2,0,0,0-.11-.23l.11-.16.15-.2L8,15.6,9.14,14l1-1.37.29-.41.73-1,.28-.41L14.8,6.06l1.92-2.71Zm0,4.71h0L18.1,6.12,19.37,4.3a6,6,0,0,1,.7-.37l.23-.09-.23.3L18.1,7l-.93,1.3c-.25.07-.51.15-.76.24l.31-.44Zm3.42-.12h0l2.75-3.89.92-1.31c.11-.06.72-.81.82-.89-.07.94-1.15,1.92-1.74,2.71a1.37,1.37,0,0,0-.36.84L20.69,8l-.55,0ZM29,9.58h0l.23-.33.38-.53.21-.29.42.08h.09l-.09.12-.63.89-.38.55-.23.33-1.17,1.64-.12.17c-.1-.14-.19-.28-.29-.41l.15-.23.26-.36L29,9.58Zm.23,9.93.38-.53.63-.91L31.05,17l.25-.38.58-.81.27-.38.12-.19-.12-.1a2.54,2.54,0,0,0-.24-.2l0,0-.58.8-.25.38-.81,1.12-.63.9-.31.43c0,.36-.1.73-.17,1.08l.1-.15ZM13.69,10h0a9.74,9.74,0,0,0-3.16,4.46l-.13.18-.29.41-1,1.36L8,18l-.63.9-.15.2L7,19.44,7,19.53l-.21.3-.25.33-.13,0L6,20H6l.34-.46L6.75,19,7,18.69,7,18.62l.23-.34.15-.19.3.19c0-.15-.09-.28-.14-.44L8,17.18l1.11-1.57,1-1.36.29-.41.73-1,.28-.39L14.8,7.63l1.92-2.7.67-1a1.51,1.51,0,0,0-.09,1l-.58.81L14.8,8.46,13.69,10Zm18.69,2.65h0a.42.42,0,0,0,.14.06l.3.14-.3.43-.37.51-.27.39L31.3,15l-.25.38-.81,1.12-.63.89-.27.37a1,1,0,0,0,0-.17c0-.21,0-.42,0-.63l.28-.4.63-.89.81-1.13.25-.36.58-.82.27-.38.23-.32Zm-26.33,5H6a3.62,3.62,0,0,0-.57,0l-.7,1L4.55,19l-.34.45a3.45,3.45,0,0,0,.34.14l.12,0,.09-.12L6,17.68l0,0Zm25.48-5.37h0a1.87,1.87,0,0,0,.35.17l.09,0-.09.12-.58.8-.25.38-.81,1.12-.63.9-.35.48c0-.22-.06-.44-.11-.66l.08-.11.38-.53.63-.9L31.05,13l.25-.38.23-.32Zm.73,2.13a1.74,1.74,0,0,1,.26-.15,1.24,1.24,0,0,1,.38-.14.65.65,0,0,1,.16,0l.19-.26.34-.48,0,0h0a2.54,2.54,0,0,0-.34-.23l0,0-.31.45-.38.53-.26.37Zm6.08-4.61a2,2,0,0,1,.39.12,2.76,2.76,0,0,0-.65-.58l0,0-.23.34.23,0a1.47,1.47,0,0,1,.29.05Zm-1.59-.15a0,0,0,0,0,0,0l.39,0h.14l.38-.53-.46-.2L37.18,9l-.39.57,0,.06Zm-3.13,1.27,0,0-.34.49-.22.3.22-.09a2.21,2.21,0,0,0,.34-.18s0,0,0,0a2.28,2.28,0,0,0,.41-.33l.08-.08.8-1.12.74-1,.2-.27a1.2,1.2,0,0,1-.2,0l-.36,0-.38.55L34,10.34l-.41.59Zm2-1.3h0l.2-.29.47-.65.47.1a0,0,0,0,1,0,0l0,0-.6.85a3,3,0,0,0-.34.06l-.2.06-.19.09.19-.28ZM6,19.25l.34-.45.38-.55L7,18l0-.06,0,0a1.28,1.28,0,0,0-.21-.07l-.23-.06L6.37,18,6,18.42l-.92,1.32a3.82,3.82,0,0,0,.48.15L6,19.25Zm5.38,6.26.17,0,1-1.4-.32-.36L11.41,25l-.28.41,0,0h0l.28.09ZM29,8.17h0a1.09,1.09,0,0,0,.23.09l.13.05-.13.2L29,8.84l-1.17,1.63-.26.37-.43.62-.33-.38L27.57,10l.26-.35,1.08-1.52.09,0Zm-8.93,20.3h0L21,27.2l.66-.11-1.15,1.62a2.82,2.82,0,0,0-.41,0l-.21,0,.21-.3Zm-9.43-3.15h0a1,1,0,0,0-.24,0l-.29-.05.29-.39.73-1,.28-.4.27-.38c.1.14.2.27.29.41l-.56.79-.28.41-.49.67Zm4.16,2,.7-1-.43-.22-.27.39L13.73,28c.23,0,.46-.11.7-.15l.37-.53Zm-.11-1.43h0l-1.61,2.29c-.24.06-.48.12-.72.2l1.93-2.74.4.25Zm-3.56-2.82h0l-.73,1-.29.4-.48.7a4,4,0,0,0-.49,0H9.05L9.14,25l1-1.36.29-.41.73-1,0-.05c.08.15.17.3.26.45h0l-.28.41Zm0,5.46h0l.28-.39,2.15-3,.38.29L11.7,28.53l-.29.08-.28,0a.35.35,0,0,1-.11,0l.11-.15ZM27.57,7.08h0l.26,0h.23l-.23.32-.26.35-1.73,2.46-.38-.29,1.95-2.75.16,0ZM9.14,17.18h0l1-1.37.09-.11c-.07.34-.12.69-.16,1L9.14,18,8,19.57l-.63.9-.08.1-.07,0L7,20.38l-.06,0,0,0,0-.06L7,20.19l.23-.33.15-.21L8,18.74l1.11-1.56ZM28.6,7h0A2.68,2.68,0,0,1,29,7h.18L29,7.26,27.83,8.9l-.26.36-1.06,1.51c-.11-.12-.23-.22-.35-.33l1.41-2,.26-.36L28.6,7Zm-11.88.33h0L15.66,8.81c-.32.15-.63.31-.94.49l.08-.1,1.92-2.7.79-1.12a2,2,0,0,0,.29.29c.09-.11.19-.21.3-.32l.06-.06-.06.09L16.72,7.32Zm6.17-.88h0l-1.2,1.7a4.54,4.54,0,0,0-.51-.09l1.56-2.2a1.06,1.06,0,0,0,.15.15l.15.14c.11-.12.2-.23.31-.33l-.46.63ZM32.49,22s0,0,0,0l.35.27v0l-.23-.5-.13.19,0,0ZM27.8,28.56a.47.47,0,0,1,0,.17.34.34,0,0,1,0,.15,1.92,1.92,0,0,0,.56-1.17l-.58.81,0,0Zm-8.52-1.28h0L18.1,29,16.72,30.9l-.26.36a12,12,0,0,1-.94.76l-.35.24,1.55-2.18,1.38-1.94.63-.9.55,0Zm11.77-2.46.25-.38.58-.81c-.05-.19-.09-.4-.15-.62l-.43.61-.25.38-.81,1.12-.63.9,0,0,0,0c.1.11.19.23.28.35l.35-.5.81-1.12ZM23,35.4h0L24.65,33l1.68-2.38c-.24.67-.53,1.26-.76,1.89l-.92,1.31-1.33,1.89A3,3,0,0,1,23,35.4Zm4.88-8.46-.26.36-.27.41a.67.67,0,0,1,.27.28s.05,0,.06.07l.2-.29.6-.83c0-.23-.05-.47-.07-.73l-.53.73Zm2.41-2.58.81-1.12.25-.36.28-.4c-.06-.18-.12-.36-.2-.54l-.08.1-.25.38-.81,1.12-.63.9-.38.53L29,25.3l-.18.26a.64.64,0,0,1,.18.06,1,1,0,0,1,.23.14h0l.35-.51.63-.9ZM23.66,36c.12.09.26.16.41.25l.58-.82.42-.59a5.13,5.13,0,0,1,.14-1l-.56.79-1,1.38Zm1,.18-.2.27.2.09c.18.08.36.15.53.24A6.34,6.34,0,0,1,25,35.6l-.39.56Zm0-10.17h0l-1.76,2.47-1.18,1.68a7.83,7.83,0,0,0-1.64,1.8l-.32.52c0-.12,0-.24,0-.35l.35-.5,2.82-4,.91-1.28c.32-.15.64-.33.95-.51l-.1.14Zm-4.26,1.27h0l-.32.45-.94,1.35a5.16,5.16,0,0,0-1,.75l-.18.13.18-.22,1.7-2.44.59,0Zm11.76-6.41-.27.39-.17.24.17.08a1.74,1.74,0,0,1,.26.15v-.05l.32-.42a4.3,4.3,0,0,1-.18-.58l-.14.19Zm-7.5,9.85h0l-1.76,2.47-.53.76a3.46,3.46,0,0,1,.11-1l.42-.59,1.76-2.47,2.92-4.15.26-.35L29,23.74l.23-.33.38-.55.63-.89.81-1.12.25-.37.58-.82.27-.39.37-.5.38-.53.35-.5.34-.49,0,0,.32-.44a.28.28,0,0,1,.09.07l.28.22-.28.39-.41.59,0,0-.34.49-.35.51-.38.52-.09.13a1.39,1.39,0,0,1-.28-.12L32,19.54c0,.18.07.38.12.58l-.26.36-.58.82v0l-.23,0c.05.07.07.13.11.19l-.12.2-.81,1.11-.63.91-.38.53-.23.33L27.83,26.2l-.26.36L24.65,30.7Zm-1.76,3.21h0l1.76-2.47L27,28.18a7,7,0,0,1-.21,1.12l-2.09,3-1.76,2.47-.21.29a1.62,1.62,0,0,1-.23-.5l.44-.63Zm14.64-15.1-.35-.21,0,0-.34.47-.94,1.31,0,.08h0l.5,0,.44-.61.39-.58.35-.47Zm-1.88-.5.2-.29.06-.07s0,0-.06,0l-.2-.09-.18-.08-.56.77L34,19.77l-.27.39a1.31,1.31,0,0,0,.27.06l.24.05.64-.91.74-1.05ZM31.3,26l.58-.82.2-.26-.09-.7-.11.14-.58.82-.25.36-.81,1.12-.09.14a.62.62,0,0,1,.09.12c.08.11.14.2.2.3l.61-.85L31.3,26Zm5.43-7.66h0l-.88,1.24-.2.29-.36.5-.38-.05h-.17l.17-.23.74-1,.2-.3.46-.64.42.23Zm2.41,2.08-.35.47L38.7,21a.24.24,0,0,0,.09.06,2.63,2.63,0,0,1,.53.47,1.72,1.72,0,0,0-.18-1.13ZM38.9,20h0l-.11.13-.48.69-.26-.1-.21-.06.21-.3.53-.74a2.65,2.65,0,0,1,.21.26,1.31,1.31,0,0,1,.11.12Zm-.64-.68h0l-.21.3-.67.94a.6.6,0,0,0-.2,0,1.14,1.14,0,0,0-.33,0l.33-.48.7-1,.17.12.21.17Zm-6.38,7.42.27-.39.06-.08a5.51,5.51,0,0,0-.06-.57,1,1,0,0,0,0-.16l-.26.38-.58.81-.25.38-.37.5.28.44.09-.12.25-.37.58-.82ZM32.15,28l.23-.32L32.29,27l-.14.18-.27.38-.58.81-.09.13.09.13c.08.09.14.18.22.28l.36-.52.27-.39Zm.55.81a2.05,2.05,0,0,1-.18-.51.06.06,0,0,0,0-.05l-.35.49-.27.39-.08.12.08.09.27.25v0l.37-.51.18-.25Zm2.21-11,.17-.22-.17-.1a.75.75,0,0,1-.24-.15l-.64.9-.41.57,0,0-.34.48-.35.5-.07.08s0,0,.07,0l.35.12a.08.08,0,0,1,.06,0l.28-.41,0,0L34,19l.88-1.25Zm-2,11.42,0,0-.38.54a1.27,1.27,0,0,0,.38.07.86.86,0,0,0,.35,0l.3-.13a.93.93,0,0,1-.3-.13,1,1,0,0,1-.33-.35Zm-32.28-7-.05,0A4.75,4.75,0,0,1,0,21.82a1.57,1.57,0,0,0,.29.83l.3-.44.05-.06Zm1.85.53-.29-.05-.23,0-.62.88-.17.24a.8.8,0,0,0,.17.15,1.08,1.08,0,0,0,.2.16l.65-.93.29-.41Zm-1-.2h0l-.16.25-.49.68c-.09-.11-.18-.21-.27-.34l0,0,0-.06.46-.65.3.1.16.06Zm1.16-4.62-.18-.05a1.15,1.15,0,0,0,.06.17l.12-.12ZM7,12.33H7L7.25,12l.15-.2.3-.43.33.18.1,0L8,11.7l-.63.91-.15.22L7,13.16,7,13.24l-.21.3-.38.54L6,14.54,6,14.65c-.09-.16-.17-.32-.25-.49L6,13.7l.34-.45.38-.53.21-.3L7,12.33ZM4.76,22.62l.38-.52-.38.17-.21.11-.26.09-.76,1.07-.8,1.13a3.24,3.24,0,0,0,.47.16l.33-.47,1-1.44.21-.3Zm-1.12,0h0l-.11.14L2.32,24.48a.27.27,0,0,1-.12-.06c-.11,0-.2-.11-.31-.16l.31-.41L3,22.71l.53-.05ZM6.37,9.37l.16-.26c0-.26,0-.53,0-.82l-.16.24L6,9l-.66.94a4.8,4.8,0,0,0-.25,1.18L6,9.82l.34-.45Zm-2.84,8.7.11-.15H3.05l-.28.39a2,2,0,0,0,.32.38l.44-.62Zm2.84-6.38h0l.38-.55.21-.3L7,10.76l0,0a1.64,1.64,0,0,0,.2.26l.12.12-.12.15L7,11.58,7,11.66,6.75,12l-.38.54L6,13l-.51.73a4.59,4.59,0,0,1-.18-.56l.69-1,.34-.45ZM6,22.39H6l-1.27,1.8-.21.31L4.17,25l-.52-.1.9-1.26.21-.32L6,21.68l.07,0a1.75,1.75,0,0,1,.34-.15,2.11,2.11,0,0,1,.38-.12s0,0,0,0l0,.05-.38.53L6,22.39Zm0-11H6l-.83,1.2a4.08,4.08,0,0,1-.09-.69L6,10.57l.34-.46.25-.38c0,.12.08.26.13.38s0,.12.06.19l-.06.1-.38.53L6,11.38ZM3.41,19h0l.12-.15.68-1,.34-.06.21,0a.25.25,0,0,1,.12,0l-.12.15-.21.31-.73,1-.29-.18L3.41,19ZM16.35,26.7h0L14.8,28.9l-3.25,4.57a.32.32,0,0,1-.14,0,1.37,1.37,0,0,1-.28,0H11l.15-.22.28-.4,2.84-4a5.84,5.84,0,0,1,.55-.56,4.21,4.21,0,0,1,.78-.59l-.54.06.86-1.22.45.18Zm-7,2,.74-1.06.26-.37-.26.17a4.76,4.76,0,0,1-.68.33l-.29.41-.26.38.26.09.23.05Zm1,.06H9.85l.26-.37.29-.4.73-1,.28-.41.28-.39a3.68,3.68,0,0,0,.39-.4l-.07,0,.87-1.25c.12.12.23.23.35.33l-1.82,2.57-.28.41-.68.95a.06.06,0,0,1,0,0ZM9,33.07l.1,0a2.26,2.26,0,0,0,.37.11l.3-.43a3.61,3.61,0,0,1-.67.11l-.1.17Zm2.37-1,.28-.39a2.09,2.09,0,0,1-.28.24,2.92,2.92,0,0,1-.28.21,3.73,3.73,0,0,1-.6.35l-.13.2-.29.41-.15.23a.37.37,0,0,1,.15,0l.29,0,.08,0,.65-.93.28-.41Zm-5-8.58L6.75,23,7,22.66,7,22.59l.23-.34L7.4,22,8,21.13l1.11-1.56L10,18.31c0-.23,0-.47,0-.71v-.06l-.87,1.21L8,20.31l-.37.55a2,2,0,0,1,.24.35,2.74,2.74,0,0,0-.5,0h0l-.13.18L7,21.76,7,21.84l-.21.31-.38.53L6,23.13,4.76,24.94l-.11.16h.11l.44,0L6,24l.34-.46ZM18.1,27.39h0l-1.38,1.94L14.8,32l-.52.75c-.27.12-.55.24-.84.35l1.36-1.92,1.92-2.71,1-1.41c.18,0,.35.07.53.09l-.15.21Zm-1.38.37h0l-1.92,2.7-2,2.86a6.66,6.66,0,0,1-.67.12l2.69-3.8,1.92-2.7.07-.09.48.13-.55.78ZM7,24.17l.23-.35.15-.2L8,22.71l1.11-1.56,1-1.37.11-.15c-.05-.22-.08-.44-.12-.65l-1,1.35L8,21.89l-.63.9L7.25,23,7,23.33,7,23.42l-.21.31-.38.53L6,24.71l-.32.46h.58l.08-.1.38-.54.21-.3L7,24.17Zm2.12-1.44,1-1.37L10.4,21l.14-.19q-.1-.29-.18-.57l-.25.34-1,1.36L8,23.45l-.63.91-.15.21L7,24.91,7,25l-.14.2h.59L8,24.29l1.11-1.56Zm-.5,10.18.06,0H8.55l.09,0Zm-.15-4.54L8.75,28a5.15,5.15,0,0,1-.59.11,4.19,4.19,0,0,0,.33.26Zm.65-4.07,1-1.38.29-.39.54-.77-.22-.51-.32.44-.29.41-1,1.37L8,25l-.09.14h.59Z"/><path class="cls-5" d="M45.47,26.46,55.35,8.87h4.16L59,18.27l7.3-9.4h4.2L65.86,26.46H61.65l2.9-10.13h0l-8,10.13H54.83l.36-10.13h0L49.69,26.46Z"/><path class="cls-5" d="M72.26,17.33a13.57,13.57,0,0,1,2.19-3.61,16.38,16.38,0,0,1,3.17-2.89,15.53,15.53,0,0,1,3.66-1.89,11.17,11.17,0,0,1,3.66-.66,7,7,0,0,1,3.1.66,5.28,5.28,0,0,1,2.13,1.89A5.67,5.67,0,0,1,91,13.72a8.74,8.74,0,0,1-.73,3.61A15.87,15.87,0,0,1,88,21.22a16.17,16.17,0,0,1-3.13,3.11,14.12,14.12,0,0,1-3.68,2,11.24,11.24,0,0,1-3.88.7,7.19,7.19,0,0,1-3.31-.7,4.63,4.63,0,0,1-2.06-2,6.17,6.17,0,0,1-.63-3.11A11.6,11.6,0,0,1,72.26,17.33Zm4.4,0a5.58,5.58,0,0,0-.47,2.69,2.75,2.75,0,0,0,.91,1.88,3,3,0,0,0,2,.68,5.65,5.65,0,0,0,2.58-.68,9.2,9.2,0,0,0,4.14-4.57,4,4,0,0,0,.3-2.28,2.74,2.74,0,0,0-1-1.72,3.15,3.15,0,0,0-2-.65,5.87,5.87,0,0,0-2.55.65,8.91,8.91,0,0,0-2.39,1.72A7.07,7.07,0,0,0,76.66,17.36Z"/><path class="cls-5" d="M90.23,26.12l2.22-5.49A2.7,2.7,0,0,0,93.55,22a3.29,3.29,0,0,0,1.8.5,5.83,5.83,0,0,0,3-.88,7.57,7.57,0,0,0,2.48-2.37h-5.8l1.45-3.59h5.63a2.68,2.68,0,0,0-.7-2.06,2.82,2.82,0,0,0-2.13-.76,5.78,5.78,0,0,0-2.29.5,7.58,7.58,0,0,0-2.22,1.43L97,9.28a12.13,12.13,0,0,1,4.24-.88,6.57,6.57,0,0,1,2.11.34,5.43,5.43,0,0,1,1.75,1,4.91,4.91,0,0,1,1.18,1.53,5.89,5.89,0,0,1,.54,1.9,7.84,7.84,0,0,1-.08,2.2,11.09,11.09,0,0,1-.67,2.35,14.71,14.71,0,0,1-5.3,6.65,16.46,16.46,0,0,1-2.38,1.4,12.87,12.87,0,0,1-2.44.89,9.61,9.61,0,0,1-2.33.3,5.66,5.66,0,0,1-1.51-.17A19.09,19.09,0,0,1,90.23,26.12Z"/><path class="cls-5" d="M108.94,17.69a14.69,14.69,0,0,1,2-3.48,16.7,16.7,0,0,1,3-3,16.45,16.45,0,0,1,2.43-1.53,13.47,13.47,0,0,1,2.54-1,9.48,9.48,0,0,1,2.38-.34,7.23,7.23,0,0,1,3.51.88l-2.21,5.49a2.36,2.36,0,0,0-1-1.43,3.42,3.42,0,0,0-1.89-.5,5.31,5.31,0,0,0-2.52.65,7.73,7.73,0,0,0-2.25,1.76,8.61,8.61,0,0,0-1.54,2.46,5.17,5.17,0,0,0-.44,2.47,2.45,2.45,0,0,0,.87,1.7,3.13,3.13,0,0,0,2,.62A5.66,5.66,0,0,0,118,22a8.77,8.77,0,0,0,2.2-1.37L118,26.12c-1.06.3-1.86.52-2.4.63a7.63,7.63,0,0,1-1.67.18,6.42,6.42,0,0,1-3-.67,5.1,5.1,0,0,1-2.07-1.92Q107.29,21.79,108.94,17.69Z"/><path class="cls-5" d="M122.2,26.46l7.1-17.59h4.22l-2.93,7.25h0l8.06-7.25h5.25l-9.85,8.33,3.32,9.26h-5.49l-2.38-7.63h0l-3.09,7.63Z"/></g></g></svg>