<svg xmlns="http://www.w3.org/2000/svg" viewBox="0 0 145.59 25.53"><defs><style>.cls-1{fill:#ff2a0c;}.cls-2{fill:#808184;}</style></defs><title>Ресурс 15</title><g id="Слой_2" data-name="Слой 2"><g id="Слой_1-2" data-name="Слой 1"><path class="cls-1" d="M7.62,2C8.44.11,10.68,0,11.9,0s3.45.11,4.27,2l7.62,18H17L12.21,6.94c-.06-.11-.17-.48-.31-.48s-.26.37-.32.48L6.8,20.05H0Z"/><path class="cls-1" d="M38.39,6.23c1.87,1.67,2,4.64,2,6.15s-.12,4.47-2,6.14c-1.64,1.45-4.3,1.53-6.68,1.53s-5-.08-6.69-1.53c-1.87-1.67-2-4.64-2-6.14s.11-4.48,2-6.15c1.65-1.44,4.31-1.53,6.69-1.53s5,.09,6.68,1.53M29.25,15a2.8,2.8,0,0,0,2.46,1,2.76,2.76,0,0,0,2.43-1,4.49,4.49,0,0,0,.57-2.63,4.49,4.49,0,0,0-.54-2.69,2.83,2.83,0,0,0-2.46-1,2.83,2.83,0,0,0-2.46,1,4.5,4.5,0,0,0-.54,2.69A4.39,4.39,0,0,0,29.25,15"/><path class="cls-1" d="M73.07,6.21c1.87,1.67,2,4.64,2,6.14s-.12,4.48-2,6.15C71.43,19.94,68.77,20,66.39,20s-5-.09-6.69-1.53c-1.86-1.67-2-4.64-2-6.15s.12-4.47,2-6.14C61.35,4.76,64,4.68,66.39,4.68s5,.08,6.68,1.53M63.92,15a2.84,2.84,0,0,0,2.47,1,2.79,2.79,0,0,0,2.44-1,4.59,4.59,0,0,0,.56-2.64,4.53,4.53,0,0,0-.54-2.69,2.86,2.86,0,0,0-2.46-1,2.9,2.9,0,0,0-2.47,1,4.68,4.68,0,0,0-.53,2.69A4.52,4.52,0,0,0,63.92,15"/><path class="cls-1" d="M44.5,4.75H41.67V20.07h5.55V7.55a2.8,2.8,0,0,0-2.72-2.8"/><path class="cls-1" d="M53.88,13.51a2.6,2.6,0,0,1-.65-1.33,3,3,0,0,1,.82-1.59l4.44-5.84H52.38l-3.69,5.43a4.13,4.13,0,0,0-.9,2,3.36,3.36,0,0,0,.73,1.7l4.39,6.16h6.23Z"/><polygon class="cls-2" points="95.15 0.03 74.42 0.03 74.42 5 81.56 5 81.56 20.02 88.01 20.02 88.01 5 95.15 5 95.15 0.03"/><path class="cls-2" d="M107.24,14a2.4,2.4,0,0,0,1.49-.42,3.48,3.48,0,0,0,.91-2.78c0-2.51-.55-4.2-1.63-5.08a5,5,0,0,0-2.43-.88,33.54,33.54,0,0,0-3.83-.15,31.26,31.26,0,0,0-4.11.2,5.23,5.23,0,0,0-3,1.26,4.62,4.62,0,0,0-1.16,2.71c0,.54-.09,1.78-.09,3.75,0,2.77.27,4.59.79,5.45a3.71,3.71,0,0,0,2.27,1.69,13.58,13.58,0,0,0,3.09.25h8.65V18a2,2,0,0,0-2-2h-4.41a11.14,11.14,0,0,1-1.45-.06,1.53,1.53,0,0,1-1.06-.64A2,2,0,0,1,99,14Zm-7.9-5a3.56,3.56,0,0,1,2.18-.43l.81,0Q104,8.69,104,9.68c0,.54-.3.8-.92.8H99A1.87,1.87,0,0,1,99.34,9"/><path class="cls-2" d="M121.81,19.73l3-4L123,13.45a2.38,2.38,0,0,1-.66-1.33,3.22,3.22,0,0,1,.83-1.59l4.49-5.85h-6.17l-2.66,3.89-2.66-3.89H110l4.49,5.85a3.17,3.17,0,0,1,.82,1.59,2.42,2.42,0,0,1-.65,1.33L109.33,20h6.29l3.2-4.46Z"/><polygon class="cls-1" points="124.73 25.53 140.32 4.71 138.52 4.71 122.92 25.53 124.73 25.53"/><polygon class="cls-1" points="129.99 25.53 145.59 4.71 143.78 4.71 128.19 25.53 129.99 25.53"/></g></g></svg>