<svg xmlns="http://www.w3.org/2000/svg" viewBox="0 0 117.32 34.03"><defs><style>.cls-1{fill:#e15200;}.cls-2{fill:#505050;}</style></defs><title>Ресурс 14</title><g id="Слой_2" data-name="Слой 2"><g id="Слой_1-2" data-name="Слой 1"><path class="cls-1" d="M27.49,0A12.89,12.89,0,0,0,18.2,4c-.26.32.14.78.62.48l.2-.16a.08.08,0,0,0,0,0,12,12,0,0,1,7.11-2.5c.48.08.9,2.1,1.14,5.11a48.25,48.25,0,0,1,6.31.41c.08.74.16,1.49.21,2.26-2-.16-4.12-.26-6.37-.26.05,1.15.07,2.38.07,3.66s0,2.52-.07,3.67c2.25,0,4.4-.1,6.37-.27,0,.78-.13,1.53-.21,2.27a50.05,50.05,0,0,1-6.31.41c-.24,3-.66,5-1.14,5.1a11.89,11.89,0,0,1-7.39-2.72c-.47-.27-.86.21-.56.53h0A12.91,12.91,0,1,0,27.49,0Z"/><path class="cls-1" d="M50.93,21.44a8.57,8.57,0,0,0,8.24-6.22h-3a5.78,5.78,0,1,1,0-4.67h3a8.56,8.56,0,1,0-8.24,10.89Z"/><path class="cls-1" d="M12.43,21.44h2.78V4.33H12.43A12.42,12.42,0,0,0,0,16.75v4.69H2.79V16.75a9.63,9.63,0,0,1,9.64-9.62Z"/><path class="cls-1" d="M65.42,11.49H63.8V4.33H61V21.44H63.8V14.28h1.62a8.56,8.56,0,0,0,8.44,7.16V18.66a5.78,5.78,0,0,1,0-11.55V4.33A8.56,8.56,0,0,0,65.42,11.49Z"/><path class="cls-1" d="M78.38,7.5a1,1,0,0,0,.33-.06A.72.72,0,0,0,79,7.28a.77.77,0,0,0,.16-.19,1.49,1.49,0,0,0,.15-.31,3.24,3.24,0,0,0,.13-.48,5.64,5.64,0,0,0,.08-.71c0-.13,0-.24,0-.31s0-.19,0-.33h.89V7.48h.81V4.35H78.76c0,.22,0,.41,0,.58s0,.34,0,.48a6.5,6.5,0,0,1-.09.86.8.8,0,0,1-.22.45.31.31,0,0,1-.1,0H78v.7h.36Z"/><polygon class="cls-1" points="83.5 6.03 83.5 7.48 84.24 7.48 84.24 5.12 83.53 5.12 82.58 6.41 82.58 5.12 81.85 5.12 81.85 7.48 82.48 7.48 83.5 6.03"/><polygon class="cls-1" points="85.58 5.63 86.45 5.63 86.45 7.48 87.21 7.48 87.21 5.12 84.82 5.12 84.82 7.48 85.58 7.48 85.58 5.63"/><path class="cls-1" d="M89.09,7.54a2,2,0,0,0,.5,0,3.32,3.32,0,0,0,.49-.14V6.74H90a1.6,1.6,0,0,1-.35.18,1.27,1.27,0,0,1-.47.09.92.92,0,0,1-.57-.15.54.54,0,0,1-.21-.42h1.73V6.17a1.13,1.13,0,0,0-.29-.84A1.18,1.18,0,0,0,89,5a1.41,1.41,0,0,0-1,.34,1.23,1.23,0,0,0-.36.93,1.13,1.13,0,0,0,.38.91A1.67,1.67,0,0,0,89.09,7.54Zm-.55-1.91a.56.56,0,0,1,.36-.12.45.45,0,0,1,.35.12.49.49,0,0,1,.12.36h-1A.48.48,0,0,1,88.54,5.63Z"/><polygon class="cls-1" points="92.48 8.06 93.15 8.06 93.15 6.96 92.91 6.96 92.91 5.12 92.15 5.12 92.15 6.96 91.29 6.96 91.29 5.12 90.53 5.12 90.53 7.48 92.48 7.48 92.48 8.06"/><path class="cls-1" d="M94.3,6.54h.24l.63.94h.88l-.86-1.22a.47.47,0,0,0,.1-.1A.79.79,0,0,0,95.37,6a.48.48,0,0,1,.13-.19.32.32,0,0,1,.2-.06h.21V5.12h-.29a.76.76,0,0,0-.43.1.93.93,0,0,0-.27.31l-.07.13a.87.87,0,0,1-.08.14.69.69,0,0,1-.18.23.66.66,0,0,1-.29,0V5.12h-.76V7.48h.76Z"/><path class="cls-1" d="M96.91,7.54l.27,0a1,1,0,0,0,.23-.08l.17-.1.15-.11v.25h.75V5.87a.7.7,0,0,0-.28-.62,1.66,1.66,0,0,0-.94-.2,3.27,3.27,0,0,0-.54,0,2.54,2.54,0,0,0-.39.08v.57h.07l.3-.11a1.56,1.56,0,0,1,.41-.06,1.19,1.19,0,0,1,.47.07.28.28,0,0,1,.16.27v0L97.09,6a2,2,0,0,0-.52.14.78.78,0,0,0-.33.26.7.7,0,0,0-.12.42.69.69,0,0,0,.23.53A.79.79,0,0,0,96.91,7.54Zm0-1a.4.4,0,0,1,.18-.11l.27,0,.33,0v.49a.82.82,0,0,1-.2.12.68.68,0,0,1-.23,0l-.21,0L97,7s-.06-.06-.06-.09a.37.37,0,0,1,0-.12A.24.24,0,0,1,97,6.56Z"/><path class="cls-1" d="M99.61,7.48l.57-.82h.34v.82h.75V5.12H99.86a1.9,1.9,0,0,0-.35,0,.84.84,0,0,0-.27.13A.73.73,0,0,0,99,5.5a.67.67,0,0,0-.07.33.75.75,0,0,0,.12.45.86.86,0,0,0,.36.27l-.68.93Zm.22-1.8a.33.33,0,0,1,.24-.07h.45v.58h-.44a.4.4,0,0,1-.26-.07.33.33,0,0,1-.08-.24A.23.23,0,0,1,99.83,5.68Z"/><path class="cls-1" d="M78.42,11.58a1.42,1.42,0,0,0,.31.06,2.13,2.13,0,0,0,.37,0,2.06,2.06,0,0,0,.68-.11,1.35,1.35,0,0,0,.86-.84,2,2,0,0,0,.13-.72,1.78,1.78,0,0,0-.12-.67,1.27,1.27,0,0,0-.32-.49,1.34,1.34,0,0,0-.51-.32,2,2,0,0,0-.66-.1,2.17,2.17,0,0,0-.36,0l-.3.05-.26.08L78,8.66v.71h.09l.15-.11a1.05,1.05,0,0,1,.21-.12A1.36,1.36,0,0,1,78.75,9a1.12,1.12,0,0,1,.32,0,1,1,0,0,1,.29,0,.68.68,0,0,1,.26.12.58.58,0,0,1,.2.21.72.72,0,0,1,.12.31H78.57v.6H80a.79.79,0,0,1-.12.4.83.83,0,0,1-.23.26.9.9,0,0,1-.28.13,1.77,1.77,0,0,1-.3,0,1.18,1.18,0,0,1-.35,0,1.25,1.25,0,0,1-.27-.1l-.2-.11-.15-.12H78v.71l.18.07Z"/><polygon class="cls-1" points="82.84 10.06 81.97 10.06 81.97 9.25 81.21 9.25 81.21 11.61 81.97 11.61 81.97 10.6 82.84 10.6 82.84 11.61 83.6 11.61 83.6 9.25 82.84 9.25 82.84 10.06"/><path class="cls-1" d="M84.39,11.35a1.59,1.59,0,0,0,1.09.32,2.6,2.6,0,0,0,.5,0,3,3,0,0,0,.49-.15v-.61h-.09a1.42,1.42,0,0,1-.35.18,1.31,1.31,0,0,1-.47.09A.92.92,0,0,1,85,11a.54.54,0,0,1-.21-.42h1.73V10.3a1.17,1.17,0,0,0-.29-.84,1.18,1.18,0,0,0-.87-.29,1.41,1.41,0,0,0-1,.34,1.23,1.23,0,0,0-.36.93A1.12,1.12,0,0,0,84.39,11.35Zm.54-1.59a.53.53,0,0,1,.36-.11.46.46,0,0,1,.35.12.58.58,0,0,1,.12.35h-1A.51.51,0,0,1,84.93,9.76Z"/><path class="cls-1" d="M87.67,11.49l.29.12a1.16,1.16,0,0,0,.34.05.91.91,0,0,0,.41-.09,1.07,1.07,0,0,0,.35-.25,1.22,1.22,0,0,0,.23-.39,1.51,1.51,0,0,0,.09-.53,1.45,1.45,0,0,0-.24-.89.83.83,0,0,0-.69-.33.93.93,0,0,0-.42.09,1.74,1.74,0,0,0-.36.22V9.25h-.76v3.23h.76Zm0-1.61a.85.85,0,0,1,.22-.09l.22,0a.44.44,0,0,1,.37.15.82.82,0,0,1,.12.5.8.8,0,0,1-.15.53.53.53,0,0,1-.44.17h-.17l-.17,0Z"/><polygon class="cls-1" points="89.8 11.61 90.56 11.61 90.56 9.78 91.71 9.78 91.71 9.25 89.8 9.25 89.8 11.61"/><path class="cls-1" d="M94.37,10.43A1.25,1.25,0,0,0,94,9.51a1.3,1.3,0,0,0-1-.34,1.26,1.26,0,0,0-1,.34,1.21,1.21,0,0,0-.34.92,1.26,1.26,0,0,0,.33.92,1.33,1.33,0,0,0,1,.33,1.29,1.29,0,0,0,1-.33A1.23,1.23,0,0,0,94.37,10.43Zm-.82.36a.53.53,0,0,1-.11.21.31.31,0,0,1-.16.12.64.64,0,0,1-.2,0,.71.71,0,0,1-.21,0,.61.61,0,0,1-.16-.12.54.54,0,0,1-.1-.23,1.18,1.18,0,0,1,0-.34,1.28,1.28,0,0,1,0-.36.75.75,0,0,1,.11-.22.42.42,0,0,1,.16-.12.64.64,0,0,1,.2,0,.45.45,0,0,1,.2,0,.33.33,0,0,1,.17.12.76.76,0,0,1,.1.22,1.2,1.2,0,0,1,0,.35A1.19,1.19,0,0,1,93.55,10.79Z"/><path class="cls-1" d="M96.61,11.65l.29-.07.23-.08.22-.1v-.75h-.08l-.15.12-.19.13a1.23,1.23,0,0,1-.26.12,1,1,0,0,1-.3,0,1.15,1.15,0,0,1-.31,0,.81.81,0,0,1-.28-.17.77.77,0,0,1-.21-.31,1.19,1.19,0,0,1-.09-.49,1.34,1.34,0,0,1,.08-.48.92.92,0,0,1,.2-.32.88.88,0,0,1,.29-.18A1.13,1.13,0,0,1,96.37,9a.93.93,0,0,1,.29.05l.25.11.2.14.15.12h.09V8.68l-.2-.1L96.9,8.5a1.33,1.33,0,0,0-.3-.06,1.89,1.89,0,0,0-.35,0,1.76,1.76,0,0,0-.66.11,1.34,1.34,0,0,0-.51.32,1.46,1.46,0,0,0-.32.52,1.83,1.83,0,0,0-.11.68,1.91,1.91,0,0,0,.11.7,1.5,1.5,0,0,0,.33.51,1.32,1.32,0,0,0,.51.31,1.91,1.91,0,0,0,.64.1Z"/><path class="cls-1" d="M97.88,9a1.88,1.88,0,0,0-.13.38,1.8,1.8,0,0,0-.07.38c0,.11,0,.21,0,.3A1.82,1.82,0,0,0,98,11.28a1.14,1.14,0,0,0,1,.4,1.34,1.34,0,0,0,1-.33,1.18,1.18,0,0,0,.34-.89,1.25,1.25,0,0,0-.08-.5.93.93,0,0,0-.23-.34.83.83,0,0,0-.32-.2,1.23,1.23,0,0,0-.39-.06,1.35,1.35,0,0,0-.41.06,2.31,2.31,0,0,0-.35.18,1.72,1.72,0,0,1,0-.26.87.87,0,0,1,.09-.17A.55.55,0,0,1,98.78,9,1,1,0,0,1,99,9l.27,0,.25,0h.52V8.31l-.42,0-.5,0a2.64,2.64,0,0,0-.61.12,1.26,1.26,0,0,0-.44.25A1,1,0,0,0,97.88,9Zm.56,1.07V10a.86.86,0,0,1,.26-.1l.23,0a.52.52,0,0,1,.38.15.62.62,0,0,1,.14.41,1.37,1.37,0,0,1,0,.34.56.56,0,0,1-.12.2.39.39,0,0,1-.16.1.57.57,0,0,1-.18,0,.46.46,0,0,1-.23-.06.38.38,0,0,1-.16-.17.81.81,0,0,1-.1-.3c0-.11,0-.26,0-.45Z"/><path class="cls-1" d="M102.69,10.21a.83.83,0,0,0-.3-.14,2.22,2.22,0,0,0-.41,0h-.58V9.25h-.75v2.36H102a1.47,1.47,0,0,0,.41,0,1.1,1.1,0,0,0,.3-.16.94.94,0,0,0,.18-.25.8.8,0,0,0,.07-.34.93.93,0,0,0-.06-.34A.63.63,0,0,0,102.69,10.21Zm-.54.71a.24.24,0,0,1-.05.1.21.21,0,0,1-.1.08.5.5,0,0,1-.19,0h-.41v-.62h.41a.43.43,0,0,1,.27.08.29.29,0,0,1,.09.23A.36.36,0,0,1,102.15,10.92Z"/><rect class="cls-1" x="103.21" y="9.25" width="0.76" height="2.36"/><polygon class="cls-1" points="104.22 9.76 104.97 9.76 104.97 11.61 105.73 11.61 105.73 9.76 106.49 9.76 106.49 9.25 104.22 9.25 104.22 9.76"/><path class="cls-1" d="M107.85,9.17a1.29,1.29,0,0,0-.95.34,1.21,1.21,0,0,0-.34.92,1.23,1.23,0,0,0,.34.92,1.55,1.55,0,0,0,1.91,0,1.23,1.23,0,0,0,.34-.92,1.21,1.21,0,0,0-.34-.92A1.26,1.26,0,0,0,107.85,9.17Zm.48,1.62a.7.7,0,0,1-.11.21.36.36,0,0,1-.16.12.64.64,0,0,1-.2,0,.66.66,0,0,1-.21,0,.48.48,0,0,1-.16-.12.7.7,0,0,1-.11-.23,1.72,1.72,0,0,1,0-.34,1.28,1.28,0,0,1,0-.36.46.46,0,0,1,.11-.22.36.36,0,0,1,.16-.12.58.58,0,0,1,.19,0,.46.46,0,0,1,.21,0,.31.31,0,0,1,.16.12.57.57,0,0,1,.11.22,1.75,1.75,0,0,1,0,.35A1.73,1.73,0,0,1,108.33,10.79Z"/><path class="cls-1" d="M111.47,10.32v0a.91.91,0,0,0,.24-.2.48.48,0,0,0,.1-.31.6.6,0,0,0-.06-.27.45.45,0,0,0-.19-.17.59.59,0,0,0-.24-.09h-1.76v2.36H111a1.43,1.43,0,0,0,.38,0,.85.85,0,0,0,.3-.15.55.55,0,0,0,.18-.22.6.6,0,0,0,.07-.3.56.56,0,0,0-.13-.39A.69.69,0,0,0,111.47,10.32Zm-1.16-.6h.4a.57.57,0,0,1,.26,0,.23.23,0,0,1,.08.19.2.2,0,0,1-.09.17.37.37,0,0,1-.23.06h-.42Zm.75,1.35a.43.43,0,0,1-.24.07h-.51v-.55h.5a.44.44,0,0,1,.25.07.23.23,0,0,1,.09.21A.25.25,0,0,1,111.06,11.07Z"/><path class="cls-1" d="M114.25,9.38a1.75,1.75,0,0,0-.94-.2,3.27,3.27,0,0,0-.54,0l-.39.08v.57h.07a1.87,1.87,0,0,1,.31-.1,1.15,1.15,0,0,1,.39-.07,1.22,1.22,0,0,1,.48.07.28.28,0,0,1,.16.27v0c-.23,0-.44,0-.65.06a1.72,1.72,0,0,0-.52.13.78.78,0,0,0-.33.26.7.7,0,0,0-.12.42.67.67,0,0,0,.23.53.8.8,0,0,0,.57.21l.26,0a.9.9,0,0,0,.23-.08l.17-.1.15-.11v.25h.75V10A.7.7,0,0,0,114.25,9.38ZM113.78,11a.82.82,0,0,1-.2.12.68.68,0,0,1-.23.05l-.21,0a.23.23,0,0,1-.12-.06A.24.24,0,0,1,113,11a.37.37,0,0,1,0-.12.28.28,0,0,1,.06-.18.32.32,0,0,1,.18-.1l.27-.06.33,0Z"/><path class="cls-1" d="M115.91,9.25a1.29,1.29,0,0,0-.35,0,.66.66,0,0,0-.27.12.87.87,0,0,0-.21.22A.67.67,0,0,0,115,10a.75.75,0,0,0,.12.45.86.86,0,0,0,.36.27l-.68.93h.85l.57-.82h.34v.82h.75V9.25Zm.66,1.08h-.44a.4.4,0,0,1-.26-.08.33.33,0,0,1-.08-.24.23.23,0,0,1,.09-.2.33.33,0,0,1,.24-.07h.45Z"/><path class="cls-1" d="M79.83,14a2.64,2.64,0,0,0,.19-.31,1.15,1.15,0,0,1,.21-.31.4.4,0,0,1,.27-.09h.23v-.68h-.31a1,1,0,0,0-.54.12,1.21,1.21,0,0,0-.34.41,1.94,1.94,0,0,0-.1.17,1.45,1.45,0,0,1-.1.18,1.16,1.16,0,0,1-.13.2.79.79,0,0,1-.13.13.34.34,0,0,1-.12.06l-.16,0V12.61H78v3.13h.81V14.48H79l.92,1.26h1l-1.22-1.62A.47.47,0,0,0,79.83,14Z"/><path class="cls-1" d="M82.26,13.3a1.33,1.33,0,0,0-1,.34,1.21,1.21,0,0,0-.34.92,1.23,1.23,0,0,0,.34.92,1.55,1.55,0,0,0,1.91,0,1.41,1.41,0,0,0,0-1.84A1.3,1.3,0,0,0,82.26,13.3Zm.48,1.62a.7.7,0,0,1-.11.21.36.36,0,0,1-.16.12.65.65,0,0,1-.2,0,.65.65,0,0,1-.21,0,.48.48,0,0,1-.16-.12.7.7,0,0,1-.11-.23,1.65,1.65,0,0,1,0-.34,1.28,1.28,0,0,1,0-.36.46.46,0,0,1,.11-.22.36.36,0,0,1,.16-.12.58.58,0,0,1,.19,0,.46.46,0,0,1,.21,0,.31.31,0,0,1,.16.12.62.62,0,0,1,.11.23,1.65,1.65,0,0,1,0,.34A1.73,1.73,0,0,1,82.74,14.92Z"/><polygon class="cls-1" points="85.4 14.45 84.8 13.38 83.97 13.38 83.97 15.74 84.69 15.74 84.69 14.27 85.23 15.24 85.56 15.24 86.1 14.27 86.1 15.74 86.83 15.74 86.83 13.38 86.01 13.38 85.4 14.45"/><polygon class="cls-1" points="87.42 15.74 88.18 15.74 88.18 13.89 89.05 13.89 89.05 15.74 89.81 15.74 89.81 13.38 87.42 13.38 87.42 15.74"/><path class="cls-1" d="M92.29,13.51a1.75,1.75,0,0,0-.94-.2,4.9,4.9,0,0,0-.54,0l-.39.08V14h.07a1.87,1.87,0,0,1,.31-.1,1.3,1.3,0,0,1,.87,0,.26.26,0,0,1,.16.27h0c-.23,0-.44,0-.65.06a1.72,1.72,0,0,0-.52.13.78.78,0,0,0-.33.26.7.7,0,0,0-.12.42.71.71,0,0,0,.23.54.84.84,0,0,0,.57.2,1.1,1.1,0,0,0,.26,0l.23-.07a1.2,1.2,0,0,0,.17-.11l.15-.11v.25h.75V14.13A.7.7,0,0,0,92.29,13.51Zm-.47,1.61a.82.82,0,0,1-.2.12.68.68,0,0,1-.23,0l-.21,0a.23.23,0,0,1-.12-.06.24.24,0,0,1-.06-.09A.41.41,0,0,1,91,15a.27.27,0,0,1,.05-.18.39.39,0,0,1,.18-.1,1.19,1.19,0,0,1,.27-.05l.33,0Z"/><polygon class="cls-1" points="94.77 14.19 93.9 14.19 93.9 13.38 93.14 13.38 93.14 15.74 93.9 15.74 93.9 14.73 94.77 14.73 94.77 15.74 95.53 15.74 95.53 13.38 94.77 13.38 94.77 14.19"/><polygon class="cls-1" points="96.85 14.67 96.85 13.38 96.11 13.38 96.11 15.74 96.74 15.74 97.77 14.29 97.77 15.74 98.5 15.74 98.5 13.38 97.8 13.38 96.85 14.67"/><path class="cls-1" d="M99.55,13.42a.61.61,0,0,0-.27.12.73.73,0,0,0-.21.22.67.67,0,0,0-.08.33.71.71,0,0,0,.13.45.86.86,0,0,0,.36.27l-.68.93h.85l.56-.82h.34v.82h.76V13.38H99.9A1.25,1.25,0,0,0,99.55,13.42Zm1,.45v.59h-.43a.38.38,0,0,1-.26-.08.3.3,0,0,1-.09-.24.24.24,0,0,1,.09-.2.36.36,0,0,1,.24-.07Z"/><path class="cls-2" d="M2.39,30.33a1.5,1.5,0,0,1,.33.51,2,2,0,0,1,.11.67,2,2,0,0,1-.13.74,1.51,1.51,0,0,1-.34.53,1.67,1.67,0,0,1-.53.32,2.17,2.17,0,0,1-.69.11,2.25,2.25,0,0,1-.38,0,2.44,2.44,0,0,1-.31-.06L.18,33,0,33v-.73H.08a.74.74,0,0,0,.16.12.67.67,0,0,0,.2.12l.27.11a1.78,1.78,0,0,0,.35,0,1.76,1.76,0,0,0,.31,0,.71.71,0,0,0,.29-.14.79.79,0,0,0,.23-.25A1,1,0,0,0,2,31.79H.6v-.61H2a.93.93,0,0,0-.13-.32.58.58,0,0,0-.2-.21.72.72,0,0,0-.27-.12,1,1,0,0,0-.29,0,1.15,1.15,0,0,0-.33,0,1.36,1.36,0,0,0-.28.11,1.05,1.05,0,0,0-.21.12l-.16.12H0v-.73l.22-.09L.53,30l.31-.05a2.1,2.1,0,0,1,.36,0,2,2,0,0,1,.67.11A1.62,1.62,0,0,1,2.39,30.33Z"/><path class="cls-2" d="M5.84,33.15H5.07v-1H4.19v1H3.41v-2.4h.78v.83h.88v-.83h.77Z"/><path class="cls-2" d="M8.93,32.09H7.17a.54.54,0,0,0,.21.43,1,1,0,0,0,.59.15,1.31,1.31,0,0,0,.47-.09,1.5,1.5,0,0,0,.36-.18h.08V33a3.49,3.49,0,0,1-.49.16,2.64,2.64,0,0,1-.51,0,1.73,1.73,0,0,1-1.11-.32A1.18,1.18,0,0,1,6.39,32,1.25,1.25,0,0,1,6.75,31a1.42,1.42,0,0,1,1-.35,1.17,1.17,0,0,1,.88.3,1.14,1.14,0,0,1,.3.85Zm-.77-.45A.49.49,0,0,0,8,31.28a.42.42,0,0,0-.35-.13.52.52,0,0,0-.36.12.48.48,0,0,0-.16.37Z"/><path class="cls-2" d="M12,31.92a1.61,1.61,0,0,1-.09.54,1.22,1.22,0,0,1-.24.4,1.07,1.07,0,0,1-.35.25,1,1,0,0,1-.42.09,1.11,1.11,0,0,1-.34-.05l-.3-.12v1H9.47V30.75h.77V31a1.62,1.62,0,0,1,.37-.23.93.93,0,0,1,.42-.09.83.83,0,0,1,.7.33A1.51,1.51,0,0,1,12,31.92Zm-.8,0a.87.87,0,0,0-.12-.51.43.43,0,0,0-.37-.15.91.91,0,0,0-.23,0,1,1,0,0,0-.22.09V32.6l.17,0h.17a.54.54,0,0,0,.45-.18A.83.83,0,0,0,11.18,31.93Z"/><path class="cls-2" d="M14.47,31.29H13.3v1.86h-.77v-2.4h1.94Z"/><path class="cls-2" d="M17.31,32a1.24,1.24,0,0,1-.34.93,1.32,1.32,0,0,1-1,.34,1.3,1.3,0,0,1-1-.34,1.24,1.24,0,0,1-.35-.93A1.27,1.27,0,0,1,15,31a1.35,1.35,0,0,1,1-.34A1.31,1.31,0,0,1,17,31,1.22,1.22,0,0,1,17.31,32Zm-.94.58a.65.65,0,0,0,.11-.22,1.49,1.49,0,0,0,0-.36,1.61,1.61,0,0,0,0-.35.62.62,0,0,0-.11-.23.36.36,0,0,0-.16-.12.52.52,0,0,0-.21,0,.6.6,0,0,0-.2,0,.44.44,0,0,0-.17.12.82.82,0,0,0-.11.23,1.28,1.28,0,0,0,0,.36,1.09,1.09,0,0,0,0,.34.67.67,0,0,0,.1.24.52.52,0,0,0,.17.12.65.65,0,0,0,.21,0,.45.45,0,0,0,.2,0A.33.33,0,0,0,16.37,32.53Z"/><path class="cls-2" d="M20.41,33.15h-.89l-.64-.95h-.24v.95h-.78v-2.4h.78v1a.66.66,0,0,0,.29,0,.65.65,0,0,0,.19-.24l.08-.14.07-.13a.76.76,0,0,1,.27-.31.77.77,0,0,1,.44-.11h.29v.64h-.21a.32.32,0,0,0-.2.06.7.7,0,0,0-.13.19.87.87,0,0,1-.09.17.32.32,0,0,1-.1.1Z"/><path class="cls-2" d="M23.26,32a1.24,1.24,0,0,1-.35.93,1.55,1.55,0,0,1-1.94,0,1.24,1.24,0,0,1-.34-.93A1.26,1.26,0,0,1,21,31a1.38,1.38,0,0,1,1-.34,1.31,1.31,0,0,1,1,.35A1.23,1.23,0,0,1,23.26,32Zm-1,.58a.51.51,0,0,0,.11-.22,1.11,1.11,0,0,0,0-.36,1.16,1.16,0,0,0,0-.35.62.62,0,0,0-.11-.23.31.31,0,0,0-.16-.12.52.52,0,0,0-.21,0,.64.64,0,0,0-.2,0,.42.42,0,0,0-.16.12.49.49,0,0,0-.11.23,1.25,1.25,0,0,0,0,.36,1.51,1.51,0,0,0,0,.34.53.53,0,0,0,.11.24.48.48,0,0,0,.16.12.72.72,0,0,0,.22,0,.48.48,0,0,0,.2,0A.36.36,0,0,0,22.31,32.53Z"/><path class="cls-2" d="M26.71,33.15H26V31.66l-.54,1h-.34l-.54-1v1.49h-.73v-2.4h.83l.62,1.09.62-1.09h.83Z"/><path class="cls-2" d="M31.11,31.89a1.65,1.65,0,0,1-.08.56,1,1,0,0,1-.22.4.81.81,0,0,1-.34.25,1.12,1.12,0,0,1-.42.08.78.78,0,0,1-.29,0l-.19-.08v1h-.76v-1l-.21.09a1.26,1.26,0,0,1-.3,0,1,1,0,0,1-.76-.32,1.36,1.36,0,0,1-.27-.9,1.69,1.69,0,0,1,.08-.53,1.2,1.2,0,0,1,.23-.4.92.92,0,0,1,.34-.24.94.94,0,0,1,.41-.08.85.85,0,0,1,.29,0,.68.68,0,0,1,.19.08v-1h.76v1l.23-.09a1.55,1.55,0,0,1,.31,0,.92.92,0,0,1,.74.3A1.3,1.3,0,0,1,31.11,31.89Zm-2.3.73V31.27l-.08,0h-.11a.52.52,0,0,0-.43.17.86.86,0,0,0-.14.53.84.84,0,0,0,.14.53.53.53,0,0,0,.43.16h.1Zm1.52-.69a.83.83,0,0,0-.13-.52.55.55,0,0,0-.44-.16h-.09l-.1,0v1.35l.09,0h.1a.52.52,0,0,0,.43-.17A.83.83,0,0,0,30.33,31.93Z"/><path class="cls-2" d="M34.12,32a1.24,1.24,0,0,1-.34.93,1.32,1.32,0,0,1-1,.34,1.3,1.3,0,0,1-1-.34,1.24,1.24,0,0,1-.35-.93,1.27,1.27,0,0,1,.35-.94,1.36,1.36,0,0,1,1-.34,1.31,1.31,0,0,1,1,.35A1.22,1.22,0,0,1,34.12,32Zm-.94.58a.65.65,0,0,0,.11-.22,1.49,1.49,0,0,0,0-.36,1.61,1.61,0,0,0,0-.35.62.62,0,0,0-.11-.23.31.31,0,0,0-.16-.12.52.52,0,0,0-.21,0,.6.6,0,0,0-.2,0,.36.36,0,0,0-.16.12.62.62,0,0,0-.12.23,1.79,1.79,0,0,0,0,.36,1.09,1.09,0,0,0,0,.34.67.67,0,0,0,.1.24.52.52,0,0,0,.17.12.67.67,0,0,0,.22,0,.48.48,0,0,0,.2,0A.36.36,0,0,0,33.18,32.53Z"/><path class="cls-2" d="M37.18,31.92a1.61,1.61,0,0,1-.09.54,1.22,1.22,0,0,1-.24.4,1.07,1.07,0,0,1-.35.25,1,1,0,0,1-.41.09,1.13,1.13,0,0,1-.35-.05,1.78,1.78,0,0,1-.29-.12v1h-.78V30.75h.78V31a1.56,1.56,0,0,1,.36-.23.93.93,0,0,1,.42-.09.82.82,0,0,1,.7.33A1.45,1.45,0,0,1,37.18,31.92Zm-.79,0a.87.87,0,0,0-.12-.51.46.46,0,0,0-.38-.15.83.83,0,0,0-.22,0,.85.85,0,0,0-.22.09V32.6l.16,0h.17a.56.56,0,0,0,.46-.18A.83.83,0,0,0,36.39,31.93Z"/><path class="cls-2" d="M39.7,31.27h-.77v1.88h-.77V31.27h-.77v-.52H39.7Z"/><path class="cls-2" d="M44.34,32.17a.93.93,0,0,1-.09.42.83.83,0,0,1-.26.3,1.2,1.2,0,0,1-.41.2,2.26,2.26,0,0,1-.57.06H41.62V30h1.23a4.21,4.21,0,0,1,.57,0,1.57,1.57,0,0,1,.35.11.73.73,0,0,1,.27.25.71.71,0,0,1,.09.36.68.68,0,0,1-.12.4.82.82,0,0,1-.35.28h0a1,1,0,0,1,.5.26A.72.72,0,0,1,44.34,32.17Zm-1.05-1.3a.29.29,0,0,0,0-.16.28.28,0,0,0-.14-.12.67.67,0,0,0-.22,0h-.46v.67h.46a.55.55,0,0,0,.22,0,.31.31,0,0,0,.15-.12A.57.57,0,0,0,43.29,30.87Zm.2,1.29a.33.33,0,0,0-.26-.36l-.26,0h-.54v.8H43a.76.76,0,0,0,.27-.05.39.39,0,0,0,.18-.14A.46.46,0,0,0,43.49,32.16Z"/><path class="cls-2" d="M46.36,32.89l-.15.12-.17.1a1.13,1.13,0,0,1-.24.08,1.14,1.14,0,0,1-.27,0A.84.84,0,0,1,45,33a.71.71,0,0,1-.23-.54.73.73,0,0,1,.12-.43.78.78,0,0,1,.33-.26,1.77,1.77,0,0,1,.53-.14q.32,0,.66-.06h0a.3.3,0,0,0-.16-.28,1.44,1.44,0,0,0-.89,0l-.31.1h-.07V30.8l.4-.08a3.31,3.31,0,0,1,.55,0,1.73,1.73,0,0,1,.94.2.72.72,0,0,1,.3.64v1.63h-.77Zm0-.37V32l-.33,0a1.18,1.18,0,0,0-.28,0,.33.33,0,0,0-.18.11.24.24,0,0,0-.06.18.37.37,0,0,0,0,.12s0,.06.06.09a.23.23,0,0,0,.12.06.56.56,0,0,0,.21,0,.52.52,0,0,0,.24,0A.82.82,0,0,0,46.36,32.52Z"/><path class="cls-2" d="M51.5,33.15H47.83v-2.4h.77v1.87h.68V30.75h.77v1.87h.68V30.75h.77Z"/><path class="cls-2" d="M54.59,32.09H52.83a.54.54,0,0,0,.21.43,1,1,0,0,0,.58.15,1.32,1.32,0,0,0,.48-.09,1.5,1.5,0,0,0,.36-.18h.08V33a4,4,0,0,1-.49.16,2.64,2.64,0,0,1-.51,0,1.73,1.73,0,0,1-1.11-.32,1.18,1.18,0,0,1-.38-.93,1.25,1.25,0,0,1,.36-.94,1.42,1.42,0,0,1,1-.35,1.17,1.17,0,0,1,.88.3,1.14,1.14,0,0,1,.3.85Zm-.77-.45a.49.49,0,0,0-.12-.36.42.42,0,0,0-.35-.13.57.57,0,0,0-.37.12.56.56,0,0,0-.16.37Z"/><path class="cls-2" d="M57.07,31.29H55.9v1.86h-.77v-2.4h1.94Z"/><path class="cls-2" d="M59.91,32a1.21,1.21,0,0,1-.35.93,1.54,1.54,0,0,1-1.93,0,1.24,1.24,0,0,1-.35-.93,1.27,1.27,0,0,1,.35-.94,1.35,1.35,0,0,1,1-.34,1.32,1.32,0,0,1,1,.35A1.22,1.22,0,0,1,59.91,32Zm-.95.58a.66.66,0,0,0,.12-.22,1.6,1.6,0,0,0,0-.36,1.16,1.16,0,0,0,0-.35.61.61,0,0,0-.1-.23.33.33,0,0,0-.17-.12.45.45,0,0,0-.2,0,.6.6,0,0,0-.2,0,.38.38,0,0,0-.17.12.82.82,0,0,0-.11.23,1.28,1.28,0,0,0,0,.36,1.58,1.58,0,0,0,0,.34.67.67,0,0,0,.11.24.61.61,0,0,0,.16.12.78.78,0,0,0,.22,0,.45.45,0,0,0,.2,0A.31.31,0,0,0,59,32.53Z"/><path class="cls-2" d="M64.46,33.74h-.68v-.6H62.36v.6h-.69V32.61h.2a3.17,3.17,0,0,0,.26-.82,5,5,0,0,0,.1-1h2v1.86h.25Zm-1-1.13V31.29h-.53a5.3,5.3,0,0,1-.12.73,3.35,3.35,0,0,1-.21.59Z"/><path class="cls-2" d="M67.44,32a1.24,1.24,0,0,1-.35.93,1.3,1.3,0,0,1-1,.34,1.32,1.32,0,0,1-1-.34,1.44,1.44,0,0,1,0-1.87,1.54,1.54,0,0,1,1.94,0A1.26,1.26,0,0,1,67.44,32Zm-1,.58a.51.51,0,0,0,.11-.22,1.11,1.11,0,0,0,0-.36,1.16,1.16,0,0,0,0-.35.61.61,0,0,0-.1-.23.33.33,0,0,0-.17-.12.46.46,0,0,0-.21,0,.54.54,0,0,0-.19,0,.38.38,0,0,0-.17.12.62.62,0,0,0-.11.23,1.28,1.28,0,0,0,0,.36,1.58,1.58,0,0,0,0,.34.67.67,0,0,0,.11.24.61.61,0,0,0,.16.12.78.78,0,0,0,.22,0,.45.45,0,0,0,.2,0A.31.31,0,0,0,66.49,32.53Z"/><path class="cls-2" d="M70.9,33.15h-.75V31.66l-.55,1h-.34l-.54-1v1.49H68v-2.4h.84l.61,1.09.62-1.09h.84Z"/><path class="cls-2" d="M73.08,32.89s-.1.07-.16.12l-.17.1a1,1,0,0,1-.23.08,1.18,1.18,0,0,1-.27,0,.8.8,0,0,1-.57-.21.68.68,0,0,1-.24-.54.73.73,0,0,1,.12-.43.76.76,0,0,1,.34-.26,1.69,1.69,0,0,1,.53-.14c.21,0,.43-.05.65-.06h0a.28.28,0,0,0-.16-.28,1.22,1.22,0,0,0-.48-.07,1.26,1.26,0,0,0-.41.07l-.31.1h-.07V30.8l.4-.08a3.39,3.39,0,0,1,.55,0,1.77,1.77,0,0,1,1,.2.74.74,0,0,1,.29.64v1.63h-.76Zm0-.37V32l-.34,0a1.43,1.43,0,0,0-.28,0,.34.34,0,0,0-.17.11.24.24,0,0,0-.06.18.41.41,0,0,0,0,.12.24.24,0,0,0,.06.09l.12.06a.65.65,0,0,0,.22,0,.5.5,0,0,0,.23,0A.72.72,0,0,0,73.08,32.52Z"/></g></g></svg>