<svg xmlns="http://www.w3.org/2000/svg" xmlns:xlink="http://www.w3.org/1999/xlink" viewBox="0 0 60.81 82.78"><defs><style>.cls-1{opacity:0.5;}.cls-2{fill:url(#Безымянный_градиент_143);}.cls-3{fill:url(#Безымянный_градиент_142);}.cls-4{fill:url(#Безымянный_градиент_145);}.cls-5{fill:url(#Безымянный_градиент_5);}.cls-6{fill:url(#Безымянный_градиент_3);}.cls-7{fill:url(#Безымянный_градиент_144);}.cls-8,.cls-9{isolation:isolate;}.cls-8{font-size:29.31px;font-family:SegoeUI-Bold, Segoe UI;font-weight:700;}.cls-11,.cls-8{fill:#2a086d;}.cls-10{fill:#fff;}</style><radialGradient id="Безымянный_градиент_143" cx="17.44" cy="-5797.2" r="23.04" gradientTransform="matrix(1, 0, 0, -1, 0, -5758.58)" gradientUnits="userSpaceOnUse"><stop offset="0" stop-color="#fff"/><stop offset="0.51" stop-color="#9bd4e6"/><stop offset="0.65" stop-color="#91cde1"/><stop offset="0.85" stop-color="#30b0d1"/><stop offset="1" stop-color="#334c98"/></radialGradient><linearGradient id="Безымянный_градиент_142" x1="10.22" y1="-5825.21" x2="17.51" y2="-5793.62" gradientTransform="matrix(1, 0, 0, -1, 0, -5758.58)" gradientUnits="userSpaceOnUse"><stop offset="0" stop-color="#374d9f"/><stop offset="0.1" stop-color="#3387be"/><stop offset="0.26" stop-color="#72c6dd"/><stop offset="1" stop-color="#fff"/></linearGradient><linearGradient id="Безымянный_градиент_145" x1="56.51" y1="-5796.82" x2="12.58" y2="-5789.08" gradientTransform="matrix(1, 0, 0, -1, 0, -5758.58)" gradientUnits="userSpaceOnUse"><stop offset="0" stop-color="#374d9f"/><stop offset="0.35" stop-color="#3387be"/><stop offset="0.62" stop-color="#66b3d4"/><stop offset="1" stop-color="#fff"/></linearGradient><linearGradient id="Безымянный_градиент_5" x1="34.29" y1="-5835.84" x2="16.49" y2="-5758.73" gradientTransform="matrix(1, 0, 0, -1, 0, -5758.58)" gradientUnits="userSpaceOnUse"><stop offset="0" stop-color="#374d9f"/><stop offset="0.2" stop-color="#3387be"/><stop offset="0.45" stop-color="#66b3d4"/><stop offset="1" stop-color="#fff"/></linearGradient><radialGradient id="Безымянный_градиент_3" cx="19.32" cy="-5796.89" r="35.33" gradientTransform="matrix(1, 0, 0, -1, 0, -5758.58)" gradientUnits="userSpaceOnUse"><stop offset="0" stop-color="#fff"/><stop offset="0.35" stop-color="#8bd0e3"/><stop offset="0.75" stop-color="#269dc7"/><stop offset="1" stop-color="#334c98"/></radialGradient><radialGradient id="Безымянный_градиент_144" cx="27.28" cy="-5796.14" r="28.84" gradientTransform="matrix(1, 0, 0, -1, 0, -5758.58)" gradientUnits="userSpaceOnUse"><stop offset="0" stop-color="#fff"/><stop offset="0.28" stop-color="#8bd0e3"/><stop offset="0.61" stop-color="#269dc7"/><stop offset="1" stop-color="#334c98"/></radialGradient></defs><title>Ресурс 21</title><g id="Слой_2" data-name="Слой 2"><g id="Слой_1-2" data-name="Слой 1"><g class="cls-1"><path d="M25.81,46.45h-.13s0,0,.06,0S25.81,46.43,25.81,46.45Z"/></g><path class="cls-2" d="M19,57.27c-8-4.45-10.34-10.61-2.28-28.12-2.94,11.53-1.85,16.78,1.17,19.71s7.94,3.32,12.26,2.7C28.12,56.32,22.7,59.07,19,57.27Z"/><path class="cls-3" d="M16.1,44.26a25.89,25.89,0,0,1-.21-5.83,27.36,27.36,0,0,1,1.88-6.75A7.52,7.52,0,0,0,18.7,34,33,33,0,0,0,16.1,44.26Z"/><g class="cls-1"><path d="M52.72,46.25h-.14s0,0,.07,0S52.72,46.24,52.72,46.25Z"/></g><path class="cls-4" d="M26.94,0C33.13,15.44,44.35,33,46.2,43.63c1,5.36.12,11.41-3.52,15.56-6.51,7.56-17.89,9.4-26,2.56-5.53-4.51-7.48-12.18-6.45-18.54C11.83,32.3,21.4,19.16,26.94,0Z"/><path class="cls-5" d="M26.65,3.87c.81,5.39,4.84,12.5,8.73,19.89S43.1,38.65,44.47,43c1.85,6.15,1.34,13.16-2.7,17.81-6.2,7.31-18,7.4-25.44.52-5.85-5.25-7.67-11-5.42-18.28C13,35.4,25.2,11.71,26.65,3.87Z"/><path class="cls-6" d="M28,64c-9.57-.29-17.41-7.83-17.31-16.42a19.93,19.93,0,0,1,1-6c2-7.19,13.35-26.36,15.47-38.7,3.13,9.3,14.54,30.23,16.58,37a24.64,24.64,0,0,1,1.6,7.71C45.39,56.13,37.54,63.68,28,64Z"/><path class="cls-7" d="M15.89,56.67c-.07-.41,6.45,6.07,15.54,4.32,6.72-1.94,10.51-5.9,11.76-10.66s0-10.49-3.24-18c.7,7.32-6.09,5.13-8.35,14.73C28,62.33,17.13,58.41,15.89,56.67Z"/><text class="cls-8" transform="translate(0 50.16)">ОВК</text><g class="cls-9"><path class="cls-10" d="M11,50.71A9.78,9.78,0,0,1,3.7,47.78,10.54,10.54,0,0,1,.87,40.16a11.24,11.24,0,0,1,2.87-8,10,10,0,0,1,7.61-3.07A9.55,9.55,0,0,1,18.6,32a10.86,10.86,0,0,1,2.76,7.72,11.09,11.09,0,0,1-2.86,7.93A9.88,9.88,0,0,1,11,50.71Zm.33-21.23A9.63,9.63,0,0,0,4,32.42a10.91,10.91,0,0,0-2.77,7.74A10.16,10.16,0,0,0,4,47.51a9.41,9.41,0,0,0,7,2.81,9.54,9.54,0,0,0,7.2-2.9A10.74,10.74,0,0,0,21,39.75a10.48,10.48,0,0,0-2.66-7.45A9.19,9.19,0,0,0,11.35,29.48Zm-.24,17.23a4.79,4.79,0,0,1-3.9-1.84,7.7,7.7,0,0,1-1.48-4.95A7.88,7.88,0,0,1,7.2,35a4.86,4.86,0,0,1,4-1.9,4.64,4.64,0,0,1,3.88,1.85A8.23,8.23,0,0,1,16.5,40a7.62,7.62,0,0,1-1.45,4.91A4.84,4.84,0,0,1,11.11,46.71Zm.11-13.25a4.49,4.49,0,0,0-3.71,1.75,7.48,7.48,0,0,0-1.39,4.71,7.31,7.31,0,0,0,1.39,4.7,4.42,4.42,0,0,0,3.6,1.71,4.46,4.46,0,0,0,3.64-1.66A7.24,7.24,0,0,0,16.11,40a7.88,7.88,0,0,0-1.32-4.85A4.2,4.2,0,0,0,11.22,33.46Z"/><path class="cls-10" d="M32.46,50.35H24.38V29.44h7.67a9.54,9.54,0,0,1,5.39,1.29,4.25,4.25,0,0,1,1.93,3.71,4.38,4.38,0,0,1-1.17,3,5.92,5.92,0,0,1-2.33,1.58,5.64,5.64,0,0,1,3,1.57A4.7,4.7,0,0,1,40.19,44a5.7,5.7,0,0,1-2.09,4.62A8.66,8.66,0,0,1,32.46,50.35ZM24.77,50h7.69a8.29,8.29,0,0,0,5.39-1.61A5.32,5.32,0,0,0,39.8,44a4.32,4.32,0,0,0-1.26-3.14,5.46,5.46,0,0,0-3.38-1.56l-.17,0v-.38l.14,0a5.73,5.73,0,0,0,2.78-1.68A4,4,0,0,0,39,34.44a3.83,3.83,0,0,0-1.76-3.39,9.2,9.2,0,0,0-5.17-1.23H24.77Zm6.93-3H29v-5.8h2.72a4.12,4.12,0,0,1,2.62.75,2.51,2.51,0,0,1,1,2.08,2.67,2.67,0,0,1-1,2.18A4,4,0,0,1,31.7,46.94Zm-2.31-.39H31.7a3.64,3.64,0,0,0,2.39-.7A2.25,2.25,0,0,0,34.93,44a2.13,2.13,0,0,0-.82-1.78,3.79,3.79,0,0,0-2.38-.66H29.39Zm1.84-8.45H29V32.84h1.92c2.37,0,3.57.83,3.57,2.46a2.58,2.58,0,0,1-.89,2.06A3.59,3.59,0,0,1,31.23,38.1Zm-1.84-.39h1.84a3.23,3.23,0,0,0,2.13-.65,2.15,2.15,0,0,0,.76-1.76c0-1.39-1-2.07-3.19-2.07H29.39Z"/><path class="cls-10" d="M60.81,50.35H54.49l-.06-.09-6-8.91a4,4,0,0,1-.26-.49v9.49h-5V29.44h5v9.19c.08-.16.17-.34.28-.53v0l5.72-8.64h6l-7.3,10ZM54.7,50h5.35L52.42,39.42l7-9.6h-5L48.8,38.29c-.26.48-.45.86-.56,1.12l-.05.12H47.8V29.82H43.56V50H47.8V39.91h.39l.05.12a8.93,8.93,0,0,0,.53,1.1Z"/></g><path class="cls-11" d="M38.78,76.92h-.35c-2.06,0-3.36,3.61-4.61,3.61s-2.55-3.61-4.61-3.61H29a1,1,0,0,1-.17,0c-2.06,0-3.37,3.61-4.61,3.61s-2.56-3.61-4.62-3.61h-.35c-2.05,0-3.36,3.61-4.61,3.61s-2.48-3.43-4.46-3.6c1.65.18,2.81,2.63,3.85,3.38v2.47H43.94V80.32a.94.94,0,0,1-.55.21C42.15,80.53,40.84,76.92,38.78,76.92Z"/><path class="cls-11" d="M48,76.92h0c-1.75,0-3,2.62-4.05,3.39h0C45,79.55,46.24,76.92,48,76.92Z"/><path class="cls-11" d="M53,80.52c-1,0-2-2.2-3.36-3.17h0l0,0a1.49,1.49,0,0,0-.93-.4H48c-1.76,0-3,2.63-4.06,3.4v2.46H56.63V77.16C55.08,78,54,80.52,53,80.52Zm-4.61-3.61Zm4.85,3.68a1.48,1.48,0,0,0,1.2-1h0C54,80.22,53.62,80.56,53.19,80.59Z"/><path class="cls-11" d="M10.1,76.92h0Z"/><path class="cls-11" d="M9.84,76.92a1.09,1.09,0,0,1-.18,0c-2.06,0-3.36,3.61-4.61,3.61-1,0-1.94-2.12-3.29-3.11v5.37H4.32l-.63-2.67c1.77,3.3,4.28-3.19,6.37-3.19H9.84Z"/><path class="cls-11" d="M3.69,80.11l.63,2.67h9.74V80.31c-1-.75-2.2-3.2-3.85-3.39h-.15C8,76.71,5.81,83.18,3.69,80.11Zm44.65-7.32a2.22,2.22,0,0,1,1.24.44,1.5,1.5,0,0,0-1-.43h-.28Zm-34.28,3.4V78.5a1.4,1.4,0,0,0,.26.16H15c1.14-.55,2.39-3.52,4.26-3.52h.18a1,1,0,0,0,.17,0c1.87,0,3.12,3,4.27,3.52h.7c1.14-.55,2.39-3.52,4.27-3.52H29a1,1,0,0,0,.17,0c1.87,0,3.12,3,4.27,3.52h.69c1.15-.55,2.4-3.52,4.27-3.52h.18a1,1,0,0,0,.17,0c1.87,0,3.12,3,4.27,3.52h.69a1.13,1.13,0,0,0,.21-.12V76.2a.94.94,0,0,1-.55.21c-1.25,0-2.55-3.61-4.61-3.61h-.35c-2.06,0-3.37,3.61-4.61,3.61s-2.56-3.61-4.62-3.61h-.17a.91.91,0,0,1-.17,0c-2.06,0-3.37,3.61-4.62,3.61s-2.55-3.61-4.61-3.61H19.3c-2.06,0-3.36,3.61-4.61,3.61S12.2,73,10.23,72.81c1.63.19,2.79,2.64,3.83,3.38Z"/><path class="cls-11" d="M48,72.8h0c-1.75,0-3,2.62-4.05,3.4h0C45,75.43,46.24,72.8,48,72.8Zm5,3.61c-1,0-2-2.22-3.37-3.18a6.39,6.39,0,0,1,1,1.21,5.27,5.27,0,0,1,.31.46c.92,1.4,2.48,2.46,3.5.54L54.08,78a11.33,11.33,0,0,1,2.56-2.61V73c-1.55.81-2.64,3.37-3.69,3.37Z"/><path class="cls-11" d="M43.94,78.53h0c1.09-.77,2.3-3.4,4.06-3.4h0C46.24,75.14,45,77.76,43.94,78.53Z"/><path class="cls-11" d="M50.89,74.9l-.31-.46a6.79,6.79,0,0,0-1-1.21,2.25,2.25,0,0,0-1.24-.44H48c-1.76,0-3,2.63-4.06,3.4v2.33c1.09-.77,2.3-3.4,4.05-3.4h.63a1.46,1.46,0,0,1,1,.44c1.23.85,2.16,2.68,3,3.09h.67a2.82,2.82,0,0,0,.79-.67l.3-2.55C53.25,77.23,51.8,76.3,50.89,74.9Z"/><path class="cls-11" d="M10.21,72.81H9.84a1.09,1.09,0,0,1-.18,0c-2.06,0-3.36,3.61-4.61,3.61-1,0-1.94-2.12-3.29-3.11v2.34a28.41,28.41,0,0,1,2.48,2.68h0v0h0a1.84,1.84,0,0,0,.47.36h.67c1.15-.54,2.41-3.53,4.28-3.53h.18a.5.5,0,0,0,.17,0l.2,0c1.65.14,2.81,2.56,3.85,3.35V76.19C13.08,75.42,11.87,73,10.21,72.81Z"/><path class="cls-11" d="M48.52,75.13h-.18a2.22,2.22,0,0,1,1.24.44,1.5,1.5,0,0,0-1-.43Z"/><path class="cls-11" d="M53,73.47c-1,0-2-2.22-3.37-3.18l0,0,0,0a2.15,2.15,0,0,0-1.24-.44H48c-1.76,0-3,2.63-4.06,3.4h0a1.06,1.06,0,0,1-.55.21c-1.24,0-2.55-3.62-4.61-3.62h-.35c-2.06,0-3.37,3.62-4.61,3.62s-2.55-3.62-4.61-3.62h-.18a1,1,0,0,1-.17,0c-2.06,0-3.36,3.62-4.61,3.62s-2.55-3.62-4.61-3.62h-.35c-2.06,0-3.37,3.62-4.61,3.62S12.22,70,10.25,69.87c1.64.19,2.8,2.64,3.85,3.39h0v1.29a1,1,0,0,0,.61.25c1.24,0,2.55-3.61,4.61-3.61h.35c2.06,0,3.36,3.61,4.61,3.61s2.55-3.61,4.61-3.61h.35c2.06,0,3.36,3.61,4.61,3.61s2.55-3.61,4.61-3.61h.35c2.06,0,3.37,3.61,4.61,3.61a.91.91,0,0,0,.55-.21h0c1.09-.78,2.3-3.4,4.06-3.4h.62a1.5,1.5,0,0,1,1,.43C51,72.58,52,74.79,53,74.79c.4,0,.82-.39,1.27-.91l.12-1-.12,1a9.85,9.85,0,0,1,2.41-2.45V70.1C55.13,70.91,54,73.47,53,73.47Zm1.43-1a.41.41,0,0,0-.05.09s.06,0,.05-.09Z"/><polygon class="cls-11" points="3.96 74.04 3.96 74.04 3.96 74.04 3.96 74.04"/><path class="cls-11" d="M10.25,69.87h0Z"/><path class="cls-11" d="M10.25,69.87H9.7c-2.06,0-3.37,3.61-4.61,3.61-1,0-1.94-2.12-3.29-3.11v1.32A17,17,0,0,1,4,74H4c.39.44.76.75,1.13.75,1.24,0,2.55-3.61,4.61-3.61h.55c1.64.15,2.81,2.56,3.85,3.36v-1.3C13.05,72.51,11.89,70.06,10.25,69.87Zm-2.6,1.85a6.27,6.27,0,0,1-.42.48A4.65,4.65,0,0,0,7.65,71.72Z"/><path class="cls-11" d="M14.1,74.58v0c-1-.8-2.21-3.21-3.85-3.36C11.89,71.38,13.05,73.83,14.1,74.58Z"/></g></g></svg>