<svg xmlns="http://www.w3.org/2000/svg" viewBox="0 0 118.45 40.68"><defs><style>.cls-1,.cls-3,.cls-4,.cls-5{fill:#161344;}.cls-1,.cls-3{stroke:#fff;stroke-miterlimit:10;}.cls-2{fill:#fff;}.cls-2,.cls-3,.cls-4,.cls-6{fill-rule:evenodd;}</style></defs><title>Ресурс 17</title><g id="Слой_2" data-name="Слой 2"><g id="Слой_1-2" data-name="Слой 1"><rect class="cls-1" x="0.5" y="0.5" width="31.07" height="31.07"/><polygon class="cls-2" points="22.77 16.35 29.46 16.35 23.14 22.68 9.71 9.26 15.67 9.26 22.77 16.35"/><polygon class="cls-3" points="15.66 23.46 22.36 23.46 16.03 29.78 2.61 16.36 8.56 16.36 15.66 23.46"/><polygon class="cls-3" points="9.71 8.61 16.03 2.29 29.45 15.71 23.04 15.71 15.94 8.61 9.71 8.61"/><polygon class="cls-2" points="2.61 15.71 8.93 9.39 22.35 22.81 15.93 22.81 8.83 15.71 2.61 15.71"/><polygon class="cls-4" points="118.4 34.74 114.25 34.74 114.25 35.73 114.59 35.73 114.6 35.1 115.92 35.1 115.92 39.06 115.52 39.06 115.52 39.37 117.1 39.37 117.1 39.06 116.67 39.06 116.67 35.1 118.03 35.1 118.03 35.73 118.39 35.74 118.4 34.74"/><polygon class="cls-4" points="99.78 39.37 99.33 39.37 99.33 38.99 99.77 38.99 99.77 35.09 99.34 35.09 99.34 34.74 102.76 34.74 102.76 35.69 102.37 35.69 102.37 35.11 100.47 35.12 100.47 36.45 102.03 36.45 102.03 37.32 101.69 37.32 101.69 36.79 100.48 36.79 100.48 38.99 102.66 38.99 102.65 38.3 103.07 38.3 103.07 39.37 99.78 39.37"/><polygon class="cls-4" points="113.7 34.45 113.71 39.05 114.14 39.05 114.14 39.38 112.53 39.38 112.52 39.05 112.96 39.05 112.96 35.87 109.53 39.59 109.53 35.08 109.09 35.08 109.09 34.74 110.71 34.74 110.71 35.08 110.28 35.08 110.27 38.13 113.7 34.45"/><path class="cls-4" d="M96.49,34.74c1.23,0,1.88.21,2,.82s-.16,1-1.07,1v.06c.83.19,1.35.48,1.36,1.31s-.81,1.38-1.74,1.38H95v-.93h.51V39H97c1.06,0,1.26-1.79-.09-2.12a1.52,1.52,0,0,0-.58,0v.51h-.43v-.85h.8c.62,0,1-.39.93-.85s-.37-.56-1.18-.55h-1v.48H95v-.83Z"/><polygon class="cls-4" points="108.08 36.64 108.08 36.82 108.08 39.01 108.54 39.01 108.54 39.37 106.99 39.37 106.99 39.01 107.37 39.01 107.37 36.8 104.85 36.8 104.85 36.83 104.85 39.02 105.3 39.02 105.3 39.37 103.77 39.37 103.77 39.02 104.14 39.02 104.14 35.08 103.77 35.08 103.77 34.75 105.3 34.75 105.3 35.08 104.85 35.09 104.85 36.49 107.37 36.49 107.37 35.08 106.99 35.08 106.99 34.75 108.52 34.75 108.52 35.08 108.08 35.08 108.08 36.64"/><path class="cls-4" d="M66.38,39.39V39h-.59v-4h1.32c1.23,0,1.39,2.39-.62,2.16l0-.62h-.38v.92h.7c1.4.09,2-.74,2-1.41a1.62,1.62,0,0,0-1.78-1.39H64.37v.38l.61,0v4h-.59v.35Z"/><path class="cls-4" d="M76.77,35.06l2.28,0v4h-.37v.34h1.55V39h-.47V35.06h.45v-.35h-5V35h.37v4h-.37v.36h1.54V39h-.44V35.06Z"/><path class="cls-4" d="M82.61,35.06l2.28,0v4h-.38v.34h1.55V39H85.6V35.06h.45v-.35h-5V35h.39v4h-.39v.36h1.55V39h-.45V35.06Z"/><polygon class="cls-4" points="63.79 34.71 59.57 34.71 59.57 35.07 59.98 35.07 59.98 39.1 59.57 39.1 59.57 39.42 61.19 39.42 61.17 39.1 60.75 39.1 60.75 35.07 63.41 35.07 63.41 35.73 63.79 35.73 63.79 34.71"/><polygon class="cls-4" points="17 36.65 17 36.84 17 39.04 17.46 39.04 17.46 39.41 15.91 39.41 15.91 39.04 16.28 39.04 16.28 36.83 13.56 36.83 13.56 36.84 13.56 39.06 14.01 39.06 14.01 39.41 12.46 39.41 12.46 39.06 12.85 39.06 12.85 35.09 12.46 35.09 12.46 34.76 14.01 34.76 14.01 35.09 13.56 35.11 13.56 36.52 16.28 36.52 16.28 35.09 15.91 35.09 15.91 34.76 17.44 34.76 17.44 35.09 17 35.09 17 36.65"/><path class="cls-4" d="M4.88,34.73v1H4.4v-.67l-2.05,0v4H3.68c1.23,0,1.39-2.41-.62-2.17v.62H2.71v-.91h.67c1.43-.09,2.05.72,2.05,1.41a1.6,1.6,0,0,1-1.76,1.38H.93V39h.62V35.09H1v-.36Z"/><polygon class="cls-4" points="40.2 36.76 42.44 39.08 42.07 39.06 42.07 39.41 44.02 39.41 44.04 39.06 43.47 39.06 41.03 36.67 42.9 35.09 43.44 35.09 43.44 34.75 41.66 34.75 41.66 35.09 42.23 35.09 40.2 36.76"/><polygon class="cls-4" points="39.97 36.69 39.97 35.09 40.41 35.07 40.41 34.75 38.88 34.75 38.88 35.07 39.26 35.07 39.26 39.04 38.88 39.04 38.88 39.41 40.43 39.41 40.43 39.04 39.97 39.04 39.97 36.86 39.97 36.69"/><path class="cls-4" d="M37.23,34.69h.94v.93H37.8V35l-.46,0c-2.31,0-2.17,4.07-.12,4.16a5.43,5.43,0,0,0,.57,0v-.62h.37v.92h-1C33.79,39.59,33.92,34.49,37.23,34.69Z"/><polygon class="cls-4" points="19.49 36.77 21.73 39.08 21.37 39.06 21.37 39.42 23.31 39.42 23.33 39.06 22.76 39.08 20.32 36.67 22.19 35.09 22.73 35.09 22.73 34.75 20.96 34.75 20.96 35.09 21.53 35.09 19.49 36.77"/><polygon class="cls-4" points="19.27 36.69 19.27 35.09 19.72 35.09 19.72 34.75 18.17 34.75 18.17 35.07 18.54 35.07 18.54 39.06 18.17 39.06 18.17 39.42 19.72 39.41 19.72 39.06 19.27 39.06 19.27 36.86 19.27 36.69"/><path class="cls-4" d="M54.17,37.53l-1.52,1.55.38,0v.35h-2l0-.35h.59l1.55-1.53c-1.21,0-1.75-.77-1.77-1.41a1.64,1.64,0,0,1,1.78-1.39h2.73v.38l-.61,0v4h.59v.35h-2v-.35h.6v-4H53.19c-1.23,0-1.39,2.39.62,2.17l0-.62.38,0v.93Z"/><path class="cls-4" d="M72,38.61v-.08l-2.43-3.42h-.42v-.38H71v.38h-.64l2,2.73,1.44-2.75h-.5v-.38h1.44v.38h-.43l-2,3.85a0,0,0,0,0,0,0h0a.46.46,0,0,1-.07.07c-.66.53-1.23.39-1.89-.17l-.42-.45.64-.69.39.34-.39.42.07.1a1,1,0,0,0,1.28.19Z"/><path class="cls-4" d="M9.86,39.41h1.9V39h-.43L8.83,34.15l-.09.17L6.57,39H6.14v.37H7.6V39H7.1l.66-1.44h1l1.08,0L10.5,39H9.86ZM8.74,37.24H7.87l.82-1.79.05.12.89,1.69Z"/><path class="cls-4" d="M28.7,35.73a2.07,2.07,0,0,0-.8-.78,3.28,3.28,0,0,0-1.39-.26h0a2.58,2.58,0,0,0-1.3.28,2.08,2.08,0,0,0-.86.83,2.62,2.62,0,0,0-.3,1.29,2.3,2.3,0,0,0,.64,1.71,2.45,2.45,0,0,0,1.82.61h0a2.53,2.53,0,0,0,1.3-.3,2.22,2.22,0,0,0,.86-.86,2.68,2.68,0,0,0,.3-1.34A2.39,2.39,0,0,0,28.7,35.73Zm-1.08,2.85a1.37,1.37,0,0,1-1.11.48,1.25,1.25,0,0,1-.74-.2,1.69,1.69,0,0,1-.54-.71A3,3,0,0,1,25,37a2.24,2.24,0,0,1,.39-1.45A1.34,1.34,0,0,1,26.5,35h0a1.24,1.24,0,0,1,1,.44A2.61,2.61,0,0,1,28,37.09,2.46,2.46,0,0,1,27.62,38.58Z"/><path class="cls-4" d="M32.6,36.67l0-.05c.92,0,1.1-.55,1.08-1.08S33,34.71,32,34.71H29.68V35h.39v4h-.39v.37l1.57,0,.71,0h.25c1,0,1.71-.42,1.78-1.4S33.45,36.86,32.6,36.67ZM32.23,39H30.78v-4H32c.62,0,.93.15.93.56s-.33.85-.93.86l-.84,0v.86l.45,0v-.51a1.68,1.68,0,0,1,.39,0,.79.79,0,0,1,.2,0C33.52,37.22,33.33,39,32.23,39Z"/><path class="cls-4" d="M91.67,39l-2.49-4.88L86.94,39h-.45v.38H88V39h-.5l.66-1.44h1l1.07,0L90.85,39h-.62v.38h1.89V39Zm-3.45-1.79L89,35.47,90,37.26Z"/><path class="cls-4" d="M49.91,39l-2.49-4.88L45.18,39h-.43v.37h1.44V39h-.5l.66-1.44,2.07,0L49.09,39h-.64v.38h1.89V39Zm-3.43-1.79.82-1.79.9,1.81Z"/><rect class="cls-5" x="0.5" y="33.42" width="117.89" height="0.49"/><rect class="cls-5" x="0.5" y="40.19" width="117.89" height="0.49"/><path class="cls-6" d="M37.07,31.87l-.88-6.57S40,24.8,41,21.78a28.45,28.45,0,0,0,1-7.87V.59H63.79V31.33H55.5v-24H50v9.8a20,20,0,0,1-1.8,8.5c-1,1.84-2.23,4.15-5.24,5.19A20.84,20.84,0,0,1,37.07,31.87Z"/><path class="cls-6" d="M67.14.59h8.17V13h.41L82.17.59h8.92L83,14.07a7.85,7.85,0,0,1,4.69,3.48c1.84,2.93,1.93,4.94,3,8s2.21,5.82,2.21,5.82H84s-1.12-2.77-1.59-4.57-1.5-5.69-2.89-6.82-4.27-1-4.27-1l0,12.39H67.1Z"/><path class="cls-6" d="M114.85.59H94.15V31.33s11.43,1.05,16-.59,8.83-4.4,8.25-10.68-6.27-7.95-7.79-8.46c-2.64-.88-8.38-.33-8.38-.33l0-3.94h10.31Zm-7.08,24.18c-1.11.67-5.64.71-5.64.71l.12-8.32s7.09-.66,7.57,3S108.77,24.17,107.77,24.77Z"/></g></g></svg>